<?xml version="1.0" encoding="utf-8"?>
<!-- Generator: Adobe Illustrator 23.1.0, SVG Export Plug-In . SVG Version: 6.00 Build 0)  -->
<svg version="1.1" id="Слой_1" xmlns="http://www.w3.org/2000/svg" xmlns:xlink="http://www.w3.org/1999/xlink" x="0px" y="0px"
	 viewBox="0 0 377.7 112.5" style="enable-background:new 0 0 377.7 112.5;" xml:space="preserve">
<style type="text/css">
	.st0{fill:#FFFFFF;}
	.st1{fill:#FBFBFB;}
</style>
<path class="st0" d="M96.1,39.8l-0.9-0.6l0.1-1C96.4,22.9,84.9,9.6,69.6,8.4c-8.6-0.6-16.9,2.7-22.7,9l-1.2,1.3h-4.6h-0.3
	c-12.7,0.1-23.2,9.7-24.4,22.3l-0.2,2.1l-2.2,1C1.9,49.8-3.4,64.2,2.2,76.3c3.3,7.1,9.9,12.2,17.6,13.7l1.4,0.3l63.3,0.3l2.6-0.6
	c14.8-3.1,24.4-17.7,21.3-32.5C106.8,50.2,102.4,43.8,96.1,39.8L96.1,39.8z M26,48c-2.7-8.3,2-17.2,10.3-19.9c3-1,6.2-1,9.3-0.1
	l4.4,1.3l2.7-4c6.1-8.8,15.9-9.5,23-6.3S88.6,30,85.9,40.4l-0.9,3.4l4.8,2.5C99,51,102.7,62.2,98,71.4c-2.4,4.8-6.8,8.3-12,9.6
	l-2.3,0.6H20.9c-8.4-1.8-13.8-10-12-18.4c1.4-6.4,6.5-11.2,13-12.2l4.9-0.7L26,48z"/>
<g>
	<path class="st1" d="M130.4,26.2c5.5,0,10-4.4,10-10c0-5.4-4.4-9.9-10-9.9c-5.5,0-10,4.4-10,9.9C120.5,21.6,125,26.2,130.4,26.2z"
		/>
	<rect x="122" y="30.7" class="st1" width="17" height="58.1"/>
	<path id="path629442_1_" class="st1" d="M188,29.3c-8.2,0-14.7,3.5-18.6,7.2v-5.8h-17v58.1h17V50.3c1.4-1.8,5.2-5.7,11.5-5.7
		c6.4,0,9,2.6,9,9.1v35.1h17V47.8C206.9,36.5,200.7,29.3,188,29.3L188,29.3z"/>
	<path id="path629444_1_" class="st1" d="M260.6,30.7v5.5c-4.4-4.6-10-7-16.2-7c-14.7,0-25.5,10.6-25.5,29.6
		c0,19.4,11.1,29.6,25.5,29.6c6.3,0,11.9-2.6,16.2-7.1v4c0,11.7-10,13-14.3,13c-7.2,0-12.7-2.2-16.8-6.7l-1.6-1.7l-7.9,12.7
		c7.8,7.7,16.4,9.9,26.3,9.9c14.3,0,31.4-5.5,31.4-27.5V30.7H260.6z M260.6,67.8c-2.4,3.1-7.2,5.4-11.4,5.4c-7.9,0-13-5.4-13-14.3
		c0-8.8,5.1-14.2,13-14.2c4.3,0,9.1,2.3,11.4,5.4V67.8z"/>
	<path id="path629446_1_" class="st1" d="M289.8,8.6v80.2h17V8.6H289.8z"/>
	<path id="path629448_1_" class="st1" d="M348.7,29.3c-17.8,0-30.1,13.7-30.1,30.5c0,18.6,13.3,30.5,31,30.5c9,0,18.4-2.4,25.1-9.3
		L367,69.8l-1.4,1.4c-3.5,3.5-10,5.3-14.3,5.3c-7.5,0-13-4-14.7-10h41.1v-5.1C377.8,42.3,366,29.3,348.7,29.3z M348.7,43.2
		c7.7,0,12.1,5.5,12.6,11.1h-25.3C337.1,48.3,341.4,43.2,348.7,43.2z"/>
</g>
<path class="st0" d="M96.1,39.8l-0.9-0.6l0.1-0.9c0.9-12.1-5.6-22.9-16.7-27.7C67.4,5.8,55,8.5,46.9,17.4l-1.2,1.3l-4.6,0
	c-0.1,0-0.2,0-0.2,0c-12.6,0-23.3,9.8-24.5,22.4l-0.2,2.1l-2.2,1c-9.8,4.5-15.2,14.3-13.9,25s9,18.8,19.6,20.8l1.4,0.3l63.3,0.3
	l2.6-0.5c11.2-2.3,19.4-10.8,21.4-22C110.5,56.7,105.8,45.9,96.1,39.8z M26,48c-1.8-5.7-0.4-11.6,3.8-15.9
	c4.2-4.3,10.1-5.8,15.8-4.1l4.4,1.3l2.7-4c6.1-8.8,15.9-9.5,22.9-6.3c7,3.2,12.9,11.1,10.2,21.5L85,43.8l4.8,2.5
	c7.1,3.6,11,10.8,10.1,18.7C99.1,72.9,93.7,79.1,86,81l-2.3,0.6H20.9C12.2,79.8,8.4,72.5,8.6,66C8.8,59.5,13,52.4,21.9,51l4.9-0.7
	L26,48z"/>
<g id="svg629387">
	<path class="st1" d="M130.4,26.2c5.5,0,9.9-4.5,9.8-10c0-5.5-4.5-9.9-10-9.8c-5.4,0-9.8,4.4-9.8,9.8
		C120.5,21.7,125,26.1,130.4,26.2z"/>
	<rect x="122" y="30.7" class="st1" width="16.9" height="58.1"/>
	<path id="path629442" class="st1" d="M188,29.3c-6.9,0-13.6,2.5-18.6,7.2v-5.8h-17v58.1h17V50.3c2.8-3.6,7-5.6,11.5-5.7
		c6.4,0,9,2.6,9,9.1v35.1h17V47.8C206.9,36.5,200.7,29.3,188,29.3z"/>
	<path id="path629444" class="st1" d="M260.6,30.7v5.5c-4.2-4.5-10.1-7-16.2-7c-14.7,0-25.5,10.6-25.5,29.6
		c0,19.4,11.1,29.6,25.5,29.6c6.2,0,12-2.6,16.2-7.1v4c0,11.7-10,13-14.3,13c-7.2,0-12.7-2.2-16.8-6.7l-1.6-1.7l-7.9,12.7
		c7.8,7.7,16.4,9.9,26.3,9.9c14.3,0,31.4-5.5,31.4-27.5V30.7H260.6z M260.6,67.7c-2.9,3.4-7,5.3-11.4,5.4c-7.9,0-13-5.4-13-14.3
		s5-14.2,13-14.2c4.3,0,9.1,2.3,11.4,5.4V67.7z"/>
	<path id="path629446" class="st1" d="M289.8,8.6v80.2h17V8.6H289.8z"/>
	<path id="path629448" class="st1" d="M348.7,29.3c-17.8,0-30.1,13.7-30.1,30.5c0,18.6,13.3,30.5,31,30.5c9,0,18.4-2.4,25.1-9.3
		L367,69.8l-1.4,1.4c-3.5,3.5-10,5.3-14.3,5.3c-7.5,0-13-4-14.7-10h41.1v-5C377.8,42.3,366,29.3,348.7,29.3z M348.7,43.3
		c7.7,0,12.1,5.5,12.6,11.1h-25.3C337.1,48.3,341.4,43.2,348.7,43.3L348.7,43.3z"/>
	<path class="st0" d="M96.1,39.8l-0.8-0.6l0.1-1C96.6,23,85.1,9.6,69.8,8.3c-8.6-0.7-17.1,2.7-22.9,9.1l-1.2,1.3h-4.9
		c-12.7,0.1-23.3,9.7-24.5,22.4l-0.1,2.1l-2.2,1C2,49.8-3.3,64.1,2.3,76.3c3.3,7.1,9.9,12.2,17.6,13.7l1.4,0.3l63.3,0.3l2.6-0.5
		c11-2.2,19.5-10.9,21.4-22C110.7,56.9,105.7,45.7,96.1,39.8z M26.1,48c-2.6-8.3,2-17.3,10.3-19.9c3-0.9,6.2-1,9.2-0.1l4.3,1.3
		l2.7-4c6.1-8.8,15.9-9.6,23-6.3c8.3,3.6,12.7,12.8,10.2,21.5L85,43.8l4.8,2.5c9.2,4.7,12.9,15.9,8.2,25.1
		c-2.4,4.8-6.8,8.3-12.1,9.7l-2.3,0.6H20.9c-8.4-1.8-13.8-10-12-18.4c1.4-6.4,6.5-11.2,13-12.2l4.9-0.7L26.1,48z"/>
</g>
</svg>
