<svg xmlns="http://www.w3.org/2000/svg" xmlns:xlink="http://www.w3.org/1999/xlink" viewBox="0 0 437.65 165.28"><defs><style>.cls-1{fill:url(#Безымянный_градиент);}.cls-2{fill:#fff;}.cls-3{fill:#fbfbfb;}</style><linearGradient id="Безымянный_градиент" x1="78.91" y1="-54.55" x2="358.74" y2="225.27" gradientTransform="matrix(1, 0, 0, -1, 0, 168)" gradientUnits="userSpaceOnUse"><stop offset="0" stop-color="#41c9e2"/><stop offset="0.18" stop-color="#3ec7e2"/><stop offset="0.82" stop-color="#008dda"/></linearGradient></defs><title>Ресурс 1</title><g id="Слой_2" data-name="Слой 2"><g id="Слой_1-2" data-name="Слой 1"><rect class="cls-1" width="437.65" height="165.28" rx="36.94"/><path class="cls-2" d="M124.26,66.22l-.89-.56.08-1a27.85,27.85,0,0,0-48.39-20.8l-1.17,1.28H69A24.69,24.69,0,0,0,44.57,67.45l-.2,2.13-2.15,1A24.18,24.18,0,0,0,48,116.32l1.4.26,63.28.33,2.61-.55a27.47,27.47,0,0,0,9-50.14ZM54.21,74.39a15.85,15.85,0,0,1,19.55-20l4.37,1.28,2.72-4c6.09-8.84,15.92-9.55,23-6.34s12.93,11.1,10.25,21.49l-.87,3.36,4.77,2.5a18.7,18.7,0,0,1-3.81,34.78l-2.33.6H49.09a15.55,15.55,0,0,1,1-30.6l4.9-.72Z"/><path class="cls-3" d="M158.62,52.56a9.92,9.92,0,1,0-10-10A10.11,10.11,0,0,0,158.62,52.56Z"/><rect class="cls-3" x="150.2" y="57.13" width="16.95" height="58.08"/><path id="path629442" class="cls-3" d="M216.17,55.69a27.35,27.35,0,0,0-18.64,7.21V57.13h-17v58.08h17V76.73a14.66,14.66,0,0,1,11.54-5.65c6.37,0,9,2.64,9,9.14v35.11H235V74.2c0-11.3-6.13-18.51-18.87-18.51Z"/><path id="path629444" class="cls-3" d="M288.76,57.13v5.53a22.1,22.1,0,0,0-16.23-7c-14.67,0-25.5,10.58-25.5,29.58,0,19.36,11.07,29.58,25.5,29.58a22.49,22.49,0,0,0,16.23-7.1v4c0,11.66-10,13-14.31,13-7.21,0-12.75-2.17-16.83-6.74l-1.57-1.68L248.12,129c7.81,7.7,16.35,9.86,26.33,9.86,14.31,0,31.38-5.53,31.38-27.53V57.13Zm0,37a15.49,15.49,0,0,1-11.42,5.42c-7.94,0-13-5.42-13-14.31s5-14.19,13-14.19c4.32,0,9.13,2.28,11.42,5.41Z"/><path id="path629446" class="cls-3" d="M318,35v80.2h17V35Z"/><path id="path629448" class="cls-3" d="M376.9,55.69c-17.79,0-30.06,13.71-30.06,30.54,0,18.64,13.35,30.54,31,30.54,9,0,18.39-2.4,25.13-9.26l-7.82-11.3-1.44,1.44c-3.49,3.49-10,5.29-14.31,5.29-7.46,0-13-4-14.67-10h41.12v-5C406,68.67,394.22,55.69,376.9,55.69Zm0,14c7.7,0,12.15,5.53,12.63,11.06H364.28C365.24,74.69,369.57,69.64,376.9,69.64Z"/><path class="cls-2" d="M124.27,66.19l-.88-.55.07-1A27.85,27.85,0,0,0,75.07,43.83L73.9,45.11l-4.62,0h-.23A24.71,24.71,0,0,0,44.58,67.43l-.19,2.13-2.16,1A24.18,24.18,0,0,0,48,116.29l1.41.26,63.28.34,2.6-.55a27.48,27.48,0,0,0,9-50.15Zm-70,8.17a15.85,15.85,0,0,1,19.55-20l4.37,1.27,2.72-4c6.1-8.83,15.92-9.55,23-6.34s12.93,11.1,10.25,21.49l-.87,3.36L118,72.66a18.7,18.7,0,0,1-3.82,34.77l-2.32.6H49.11a15.55,15.55,0,0,1,1-30.6l4.9-.72Z"/></g></g></svg>