<?xml version="1.0" encoding="utf-8"?>
<!-- Generator: Adobe Illustrator 23.1.0, SVG Export Plug-In . SVG Version: 6.00 Build 0)  -->
<svg version="1.1" id="Слой_1" xmlns="http://www.w3.org/2000/svg" xmlns:xlink="http://www.w3.org/1999/xlink" x="0px" y="0px"
	 viewBox="0 0 257.3 112.5" style="enable-background:new 0 0 257.3 112.5;" xml:space="preserve">
<style type="text/css">
	.st0{fill:#FBFBFB;}
</style>
<g>
	<path class="st0" d="M10,26.2c5.5,0,10-4.4,10-10c0-5.4-4.4-9.9-10-9.9c-5.5,0-10,4.4-10,9.9C0.1,21.6,4.6,26.2,10,26.2z"/>
	<rect x="1.6" y="30.7" class="st0" width="17" height="58.1"/>
	<path id="path629442_1_" class="st0" d="M67.6,29.3c-8.2,0-14.7,3.5-18.6,7.2v-5.8H32v58.1h17V50.3c1.4-1.8,5.2-5.7,11.5-5.7
		c6.4,0,9,2.6,9,9.1v35.1h17v-41C86.5,36.5,80.3,29.3,67.6,29.3L67.6,29.3z"/>
	<path id="path629444_1_" class="st0" d="M140.2,30.7v5.5c-4.4-4.6-10-7-16.2-7c-14.7,0-25.5,10.6-25.5,29.6
		c0,19.4,11.1,29.6,25.5,29.6c6.3,0,11.9-2.6,16.2-7.1v4c0,11.7-10,13-14.3,13c-7.2,0-12.7-2.2-16.8-6.7l-1.6-1.7l-7.9,12.7
		c7.8,7.7,16.4,9.9,26.3,9.9c14.3,0,31.4-5.5,31.4-27.5V30.7H140.2z M140.2,67.8c-2.4,3.1-7.2,5.4-11.4,5.4c-7.9,0-13-5.4-13-14.3
		c0-8.8,5.1-14.2,13-14.2c4.3,0,9.1,2.3,11.4,5.4V67.8z"/>
	<path id="path629446_1_" class="st0" d="M169.4,8.6v80.2h17V8.6H169.4z"/>
	<path id="path629448_1_" class="st0" d="M228.3,29.3c-17.8,0-30.1,13.7-30.1,30.5c0,18.6,13.3,30.5,31,30.5c9,0,18.4-2.4,25.1-9.3
		l-7.7-11.2l-1.4,1.4c-3.5,3.5-10,5.3-14.3,5.3c-7.5,0-13-4-14.7-10h41.1v-5.1C257.4,42.3,245.6,29.3,228.3,29.3z M228.3,43.2
		c7.7,0,12.1,5.5,12.6,11.1h-25.3C216.7,48.3,221,43.2,228.3,43.2z"/>
</g>
<g id="svg629387">
	<path class="st0" d="M10,26.2c5.5,0,9.9-4.5,9.8-10c0-5.5-4.5-9.9-10-9.8C4.4,6.4,0,10.8,0,16.2C0.1,21.7,4.6,26.1,10,26.2z"/>
	<rect x="1.6" y="30.7" class="st0" width="16.9" height="58.1"/>
	<path id="path629442" class="st0" d="M67.6,29.3c-6.9,0-13.6,2.5-18.6,7.2v-5.8H32v58.1h17V50.3c2.8-3.6,7-5.6,11.5-5.7
		c6.4,0,9,2.6,9,9.1v35.1h17v-41C86.5,36.5,80.3,29.3,67.6,29.3z"/>
	<path id="path629444" class="st0" d="M140.2,30.7v5.5c-4.2-4.5-10.1-7-16.2-7c-14.7,0-25.5,10.6-25.5,29.6
		c0,19.4,11.1,29.6,25.5,29.6c6.2,0,12-2.6,16.2-7.1v4c0,11.7-10,13-14.3,13c-7.2,0-12.7-2.2-16.8-6.7l-1.6-1.7l-7.9,12.7
		c7.8,7.7,16.4,9.9,26.3,9.9c14.3,0,31.4-5.5,31.4-27.5V30.7H140.2z M140.2,67.7c-2.9,3.4-7,5.3-11.4,5.4c-7.9,0-13-5.4-13-14.3
		s5-14.2,13-14.2c4.3,0,9.1,2.3,11.4,5.4V67.7z"/>
	<path id="path629446" class="st0" d="M169.4,8.6v80.2h17V8.6H169.4z"/>
	<path id="path629448" class="st0" d="M228.3,29.3c-17.8,0-30.1,13.7-30.1,30.5c0,18.6,13.3,30.5,31,30.5c9,0,18.4-2.4,25.1-9.3
		l-7.7-11.2l-1.4,1.4c-3.5,3.5-10,5.3-14.3,5.3c-7.5,0-13-4-14.7-10h41.1v-5C257.4,42.3,245.6,29.3,228.3,29.3z M228.3,43.3
		c7.7,0,12.1,5.5,12.6,11.1h-25.3C216.7,48.3,221,43.2,228.3,43.3L228.3,43.3z"/>
</g>
</svg>
