<svg xmlns="http://www.w3.org/2000/svg" viewBox="0 0 377.72 154.44"><defs><style>.cls-1{fill:#fbfbfb;}.cls-2{fill:#fff;}.cls-3{fill:#fcfcfc;}</style></defs><title>Ресурс 1</title><g id="Слой_2" data-name="Слой 2"><g id="svg629387"><path class="cls-1" d="M130.45,19.84a9.92,9.92,0,1,0-10-10A10.11,10.11,0,0,0,130.45,19.84Z"/><rect class="cls-1" x="122.03" y="24.41" width="16.95" height="58.08"/><path id="path629442" class="cls-1" d="M188,23a27.35,27.35,0,0,0-18.64,7.21V24.41h-17V82.48h17V44a14.63,14.63,0,0,1,11.54-5.65c6.38,0,9,2.64,9,9.13V82.6h17V41.48C206.88,30.18,200.74,23,188,23Z"/><path id="path629444" class="cls-1" d="M260.59,24.41v5.53a22.1,22.1,0,0,0-16.23-7c-14.67,0-25.49,10.58-25.49,29.57,0,19.36,11.06,29.58,25.49,29.58A22.48,22.48,0,0,0,260.59,75v4c0,11.66-10,13-14.31,13-7.21,0-12.74-2.16-16.83-6.73l-1.56-1.68L220,96.31c7.82,7.7,16.35,9.86,26.33,9.86,14.31,0,31.39-5.53,31.39-27.53V24.41Zm0,37a15.44,15.44,0,0,1-11.42,5.41c-7.94,0-13-5.41-13-14.31s5-14.18,13-14.18c4.33,0,9.14,2.28,11.42,5.41Z"/><path id="path629446" class="cls-1" d="M289.79,2.28v80.2h17V2.28Z"/><path id="path629448" class="cls-1" d="M348.74,23c-17.8,0-30.06,13.7-30.06,30.54,0,18.63,13.34,30.54,31,30.54,9,0,18.4-2.41,25.13-9.26L367,63.49l-1.44,1.44c-3.49,3.49-10,5.29-14.31,5.29-7.45,0-13-4-14.67-10h41.12V55.19C377.84,36,366.05,23,348.74,23Zm0,13.94c7.69,0,12.14,5.53,12.62,11.07H336.11C337.07,42,341.4,36.91,348.74,36.91Z"/><path class="cls-2" d="M96.1,33.47l-.88-.56.07-.95A27.85,27.85,0,0,0,46.9,11.11l-1.16,1.28-4.62,0h-.23A24.71,24.71,0,0,0,16.41,34.7l-.19,2.14-2.16,1a24.18,24.18,0,0,0,5.77,45.74l1.4.26,63.28.33,2.61-.54a27,27,0,0,0,21.4-22.05A27,27,0,0,0,96.1,33.47Zm-70,8.17a15.84,15.84,0,0,1,19.55-20L50,22.92l2.73-4c6.09-8.83,15.92-9.55,23-6.34S88.58,23.73,85.9,34.12L85,37.48l4.82,2.45A18.71,18.71,0,0,1,86,74.71l-2.33.6H20.94A15.17,15.17,0,0,1,8.63,59.66,15.19,15.19,0,0,1,21.9,44.71L26.8,44Z"/><g id="slogan"><path id="path629395" class="cls-3" d="M35.67,133.8h9.82v1.63H37.4V141h7.11v1.68H37.4v7.18H35.67Z"/><path id="path629397" class="cls-3" d="M50.74,138.79a18.22,18.22,0,0,1,2.4-.76,11.62,11.62,0,0,1,3.12-.41,3.61,3.61,0,0,1,.77.14v1.54a8.88,8.88,0,0,0-1.15-.07,11.16,11.16,0,0,0-1.47.09l-1.94.31v10.18H50.74Z"/><path id="path629399" class="cls-3" d="M62,133.8H64v1.9H62Zm.09,4h1.73v12H62.13Z"/><path id="path629401" class="cls-3" d="M74.71,137.62a4.61,4.61,0,0,1,4,1.77,7.74,7.74,0,0,1,1.22,4.73H71.21a4.87,4.87,0,0,0,1,3.31,3.64,3.64,0,0,0,2.88,1.16,7.79,7.79,0,0,0,4.11-1v1.78a9.65,9.65,0,0,1-4.2.84,5.23,5.23,0,0,1-4.08-1.61,8.42,8.42,0,0,1-.1-9.36,4.93,4.93,0,0,1,3.89-1.58Zm0,1.58a3.42,3.42,0,0,0-2.4.75,4,4,0,0,0-1,2.59h6.84a3.75,3.75,0,0,0-1-2.5,3.28,3.28,0,0,0-2.45-.84Z"/><path id="path629403" class="cls-3" d="M85.43,138.79a11.11,11.11,0,0,1,5.06-1.17,5,5,0,0,1,3.63,1.1A4.42,4.42,0,0,1,95.24,142v7.8H93.52V142c0-1.89-1.08-2.83-3.22-2.83a11.26,11.26,0,0,0-3.14.48v10.15H85.43Z"/><path id="path629405" class="cls-3" d="M111.14,132.77v15c0,.81-.52,1.42-1.56,1.82a9.2,9.2,0,0,1-3.36.6,5.62,5.62,0,0,1-3.84-1.42q-1.63-1.44-1.66-5.08a6.57,6.57,0,0,1,1.37-4.42,5.13,5.13,0,0,1,4.1-1.61,6.59,6.59,0,0,1,1.54.22,11.22,11.22,0,0,1,1.68.48v-5.57Zm-1.73,7.3a6.21,6.21,0,0,0-1.59-.63,6.69,6.69,0,0,0-1.63-.21,3.2,3.2,0,0,0-2.76,1.2,5.26,5.26,0,0,0-.89,3.24,7,7,0,0,0,.82,3.6,3.19,3.19,0,0,0,3,1.32,7.4,7.4,0,0,0,2.19-.29c.6-.19.91-.43.91-.72Z"/><path id="path629407" class="cls-3" d="M120.59,150.17a7.82,7.82,0,0,1-2.08-.24,10.38,10.38,0,0,1-1.9-.77v-1.82a15.32,15.32,0,0,0,2,1,5.81,5.81,0,0,0,1.87.27,3.33,3.33,0,0,0,2-.53,1.61,1.61,0,0,0,.77-1.37,1.32,1.32,0,0,0-.46-1.1,4.91,4.91,0,0,0-1.44-.77l-.62-.27a18.88,18.88,0,0,1-2.14-.69,3.49,3.49,0,0,1-1.32-1,2.75,2.75,0,0,1-.55-1.82,3,3,0,0,1,.6-1.92,3.51,3.51,0,0,1,1.56-1.13,5.48,5.48,0,0,1,2-.38,5.28,5.28,0,0,1,1.61.21q.68.22,1.83.72v1.73c-.8-.4-1.42-.68-1.85-.84a4.16,4.16,0,0,0-1.49-.24,3.63,3.63,0,0,0-1.8.43,1.29,1.29,0,0,0-.74,1.18,1.49,1.49,0,0,0,.36,1,2.83,2.83,0,0,0,.93.63c.39.14.9.3,1.54.48a16.83,16.83,0,0,1,1.89.69,3.17,3.17,0,0,1,1.25,1,2.78,2.78,0,0,1,.55,1.82,3.35,3.35,0,0,1-.62,2.07,3.84,3.84,0,0,1-1.63,1.22,5.42,5.42,0,0,1-2.07.41Z"/><path id="path629409" class="cls-3" d="M142.43,137.62a4.75,4.75,0,0,1,3.17,1,3.54,3.54,0,0,1,1.18,2.86v5.81a2.29,2.29,0,0,1-1.42,2.32,10.53,10.53,0,0,1-3.91.58,6.14,6.14,0,0,1-3.27-.84,3.07,3.07,0,0,1-1.34-2.81,3.75,3.75,0,0,1,1.18-3.09,4.86,4.86,0,0,1,3.24-1,7.4,7.4,0,0,1,3.76.84v-1.41c0-1.8-1-2.69-3.14-2.69a7.63,7.63,0,0,0-2.09.29,4.87,4.87,0,0,0-1.77.86V138.6a6.17,6.17,0,0,1,1.94-.72A12.34,12.34,0,0,1,142.43,137.62Zm-.57,11a8.68,8.68,0,0,0,2.42-.24,1,1,0,0,0,.74-1v-2.69a6.88,6.88,0,0,0-1.51-.48,8.71,8.71,0,0,0-1.8-.19,4,4,0,0,0-2.33.58,1.92,1.92,0,0,0-.81,1.68,2,2,0,0,0,1,1.82A4.57,4.57,0,0,0,141.86,148.63Z"/><path id="path629411" class="cls-3" d="M152.88,138.79a18.22,18.22,0,0,1,2.4-.76,11.62,11.62,0,0,1,3.12-.41,3.61,3.61,0,0,1,.77.14v1.54a8.88,8.88,0,0,0-1.15-.07,11.16,11.16,0,0,0-1.47.09l-1.94.31v10.18h-1.73Z"/><path id="path629413" class="cls-3" d="M168,137.62a4.6,4.6,0,0,1,4,1.77,7.68,7.68,0,0,1,1.22,4.73h-8.73a4.82,4.82,0,0,0,1,3.31,3.61,3.61,0,0,0,2.88,1.16,7.76,7.76,0,0,0,4.1-1v1.78a9.65,9.65,0,0,1-4.2.84,5.26,5.26,0,0,1-4.08-1.61,8.47,8.47,0,0,1-.1-9.36,4.93,4.93,0,0,1,3.89-1.58Zm0,1.58a3.45,3.45,0,0,0-2.4.75,4,4,0,0,0-1,2.59h6.84a3.75,3.75,0,0,0-1-2.5,3.26,3.26,0,0,0-2.45-.84Z"/><path id="path629415" class="cls-3" d="M190.76,137.62a4.77,4.77,0,0,1,3.17,1,3.53,3.53,0,0,1,1.17,2.86v5.81a2.28,2.28,0,0,1-1.41,2.32,10.57,10.57,0,0,1-3.91.58,6.12,6.12,0,0,1-3.27-.84,3.07,3.07,0,0,1-1.34-2.81,3.77,3.77,0,0,1,1.17-3.09,4.9,4.9,0,0,1,3.24-1,7.41,7.41,0,0,1,3.77.84v-1.41c0-1.8-1-2.69-3.14-2.69a7.58,7.58,0,0,0-2.09.29,4.92,4.92,0,0,0-1.78.86V138.6a6.23,6.23,0,0,1,1.95-.72A12.27,12.27,0,0,1,190.76,137.62Zm-.58,11a8.76,8.76,0,0,0,2.43-.24,1,1,0,0,0,.74-1v-2.69a6.88,6.88,0,0,0-1.51-.48A8.86,8.86,0,0,0,190,144a4,4,0,0,0-2.33.58,1.92,1.92,0,0,0-.81,1.68,2,2,0,0,0,1,1.82,4.55,4.55,0,0,0,2.32.55Z"/><path id="path629417" class="cls-3" d="M201.21,149.81V133.27h1.73v16.54Z"/><path id="path629419" class="cls-3" d="M225.38,137.83l-4,12h-1.75l-3-9.94-3,9.94h-1.75l-4-12h1.82l3.12,10,2.93-10h1.66l3,10,3.17-10Z"/><path id="path629421" class="cls-3" d="M235.53,137.62a4.72,4.72,0,0,1,3.16,1,3.51,3.51,0,0,1,1.18,2.86v5.81a2.27,2.27,0,0,1-1.42,2.32,10.49,10.49,0,0,1-3.91.58,6.11,6.11,0,0,1-3.26-.84,3.05,3.05,0,0,1-1.35-2.81,3.78,3.78,0,0,1,1.18-3.09,4.86,4.86,0,0,1,3.24-1,7.44,7.44,0,0,1,3.77.84v-1.41c0-1.8-1.05-2.69-3.15-2.69a7.56,7.56,0,0,0-2.08.29,4.84,4.84,0,0,0-1.78.86V138.6a6.26,6.26,0,0,1,1.94-.72A12.44,12.44,0,0,1,235.53,137.62Zm-.58,11a8.63,8.63,0,0,0,2.42-.24,1,1,0,0,0,.75-1v-2.69a7.06,7.06,0,0,0-1.51-.48,8.86,8.86,0,0,0-1.8-.19,4,4,0,0,0-2.33.58,1.91,1.91,0,0,0-.82,1.68,2,2,0,0,0,1,1.82A4.59,4.59,0,0,0,235,148.63Z"/><path id="path629423" class="cls-3" d="M255.71,137.83,250.57,151a6.07,6.07,0,0,1-1.75,2.68,3.22,3.22,0,0,1-2,.77,3.18,3.18,0,0,1-1.13-.21v-1.59a2.43,2.43,0,0,0,1,.22,1.9,1.9,0,0,0,1.6-.75,7.36,7.36,0,0,0,1.08-2.25l-5-12h2l3.8,9.77,3.79-9.77Z"/><path id="path629425" class="cls-3" d="M264.08,150.17a7.9,7.9,0,0,1-2.09-.24,10.38,10.38,0,0,1-1.9-.77v-1.82a14.74,14.74,0,0,0,2,1,5.77,5.77,0,0,0,1.87.27,3.28,3.28,0,0,0,1.94-.53,1.61,1.61,0,0,0,.77-1.37,1.29,1.29,0,0,0-.46-1.1,4.91,4.91,0,0,0-1.44-.77l-.62-.27a20.33,20.33,0,0,1-2.14-.69,3.65,3.65,0,0,1-1.32-1,2.8,2.8,0,0,1-.55-1.82,3,3,0,0,1,.6-1.92A3.51,3.51,0,0,1,262.3,138a5.49,5.49,0,0,1,2-.38,5.33,5.33,0,0,1,1.61.21c.44.15,1.05.39,1.82.72v1.73c-.8-.4-1.42-.68-1.85-.84a4.12,4.12,0,0,0-1.49-.24,3.63,3.63,0,0,0-1.8.43,1.3,1.3,0,0,0-.74,1.18,1.49,1.49,0,0,0,.36,1,3,3,0,0,0,.94.63q.57.21,1.53.48a17.9,17.9,0,0,1,1.9.69,3.24,3.24,0,0,1,1.25,1,2.84,2.84,0,0,1,.55,1.82,3.35,3.35,0,0,1-.63,2.07,3.78,3.78,0,0,1-1.63,1.22,5.33,5.33,0,0,1-2.06.41Z"/><path id="path629427" class="cls-3" d="M284.57,150a3,3,0,0,1-2.16-.79,3.05,3.05,0,0,1-.84-2.3v-7.49h-2.09v-1.59h2.09v-3.38h1.73v3.38h3.1v1.59h-3.1v6.93a2.68,2.68,0,0,0,.34,1.54,1.41,1.41,0,0,0,1.24.48,3.65,3.65,0,0,0,1.52-.29v1.63a4.7,4.7,0,0,1-.87.2A5.36,5.36,0,0,1,284.57,150Z"/><path id="path629429" class="cls-3" d="M297.12,137.62a4.45,4.45,0,0,1,3.44,1.27,5.41,5.41,0,0,1,1.17,3.82v7.1H300v-7.1a3.85,3.85,0,0,0-.79-2.6,2.83,2.83,0,0,0-2.28-.91,7.11,7.11,0,0,0-3.43,1v9.65h-1.73V132.53h1.73v6.1a9.19,9.19,0,0,1,1.82-.75A7,7,0,0,1,297.12,137.62Z"/><path id="path629431" class="cls-3" d="M312.46,137.62a4.61,4.61,0,0,1,4,1.77,7.74,7.74,0,0,1,1.22,4.73H309a4.87,4.87,0,0,0,1,3.31,3.64,3.64,0,0,0,2.88,1.16,7.79,7.79,0,0,0,4.11-1v1.78a9.65,9.65,0,0,1-4.2.84,5.23,5.23,0,0,1-4.08-1.61,8.42,8.42,0,0,1-.1-9.36A4.93,4.93,0,0,1,312.46,137.62Zm0,1.58a3.42,3.42,0,0,0-2.4.75,4,4,0,0,0-1,2.59h6.84a3.75,3.75,0,0,0-1-2.5A3.28,3.28,0,0,0,312.46,139.2Z"/><path id="path629433" class="cls-3" d="M323.18,138.79a18.22,18.22,0,0,1,2.4-.76,11.62,11.62,0,0,1,3.12-.41,3.72,3.72,0,0,1,.77.14v1.54a9,9,0,0,0-1.16-.07,11.11,11.11,0,0,0-1.46.09l-1.94.31v10.18h-1.73Z"/><path id="path629435" class="cls-3" d="M338.29,137.62a4.61,4.61,0,0,1,4,1.77,7.81,7.81,0,0,1,1.22,4.73h-8.74a4.87,4.87,0,0,0,1,3.31,3.61,3.61,0,0,0,2.88,1.16,7.79,7.79,0,0,0,4.11-1v1.78a9.65,9.65,0,0,1-4.2.84,5.23,5.23,0,0,1-4.08-1.61,8.42,8.42,0,0,1-.1-9.36A4.92,4.92,0,0,1,338.29,137.62Zm0,1.58a3.42,3.42,0,0,0-2.4.75,3.93,3.93,0,0,0-1,2.59h6.84a3.75,3.75,0,0,0-1-2.5A3.28,3.28,0,0,0,338.29,139.2Z"/></g></g></g></svg>