<svg xmlns="http://www.w3.org/2000/svg" viewBox="0 0 108.97 82.25"><defs><style>.cls-1{fill:#fff;}</style></defs><title>Ресурс 2</title><g id="Слой_2" data-name="Слой 2"><g id="svg629387"><path class="cls-1" d="M96.1,31.56,95.22,31l.07-.95A27.85,27.85,0,0,0,46.9,9.19l-1.16,1.29-4.62-.05h-.23A24.72,24.72,0,0,0,16.41,32.79l-.19,2.13-2.16,1a24.17,24.17,0,0,0,5.77,45.73l1.4.26,63.28.34,2.61-.55a27,27,0,0,0,21.4-22A27,27,0,0,0,96.1,31.56Zm-70,8.16a15.84,15.84,0,0,1,19.55-20L50,21l2.73-4c6.09-8.83,15.92-9.54,23-6.33S88.58,21.82,85.9,32.2L85,35.56,89.85,38A18.71,18.71,0,0,1,86,72.8l-2.33.6H20.94A15.19,15.19,0,0,1,8.63,57.74,15.17,15.17,0,0,1,21.9,42.8l4.9-.73Z"/></g></g></svg>