<svg id="Слой_1" data-name="Слой 1" xmlns="http://www.w3.org/2000/svg" viewBox="0 0 1833.67 1015.23"><title>Монтажная область 1</title><path d="M106.28,690.33l.11-.23a15.17,15.17,0,0,0-21.12-19.45l-.63.33-2.22-.78a13.5,13.5,0,0,0-16.71,7.11l-.3.74-1,.08a13.29,13.29,0,0,0-11.87,14.43,13.46,13.46,0,0,0,6.57,10.26l.65.39,31.54,11.3,1.38.2a15.5,15.5,0,0,0,2.14.15,15,15,0,0,0,11.56-24.34Zm-5.93-1.24-1.19,1.82,2.22,2.37a9.34,9.34,0,0,1-.31,13.19A9.48,9.48,0,0,1,93.76,709l-1.19-.1L61.57,698a7.68,7.68,0,0,1,5.54-14.06l3.12.62.1-1.89h0a7.81,7.81,0,0,1,12.38-6.12l2.21,1.61,2.33-1.73a9.26,9.26,0,0,1,13.1,12.68Z"/><path d="M246.74,690.33l.11-.23a15.17,15.17,0,0,0-21.12-19.45l-.63.33-2.23-.78a13.49,13.49,0,0,0-16.7,7.11l-.3.74-1,.08A13.28,13.28,0,0,0,193,692.56a13.46,13.46,0,0,0,6.57,10.26l.64.39,31.55,11.3,1.38.2a15.36,15.36,0,0,0,2.13.15,15,15,0,0,0,11.56-24.34Zm-5.94-1.24-1.18,1.82,2.21,2.37a9.34,9.34,0,0,1-.31,13.19,9.47,9.47,0,0,1-7.31,2.56l-1.18-.1L202,698a7.66,7.66,0,0,1-3.43-4.72,7.55,7.55,0,0,1,.9-5.79,7.73,7.73,0,0,1,8.06-3.55l3.12.62.11-1.89h0a7.81,7.81,0,0,1,12.38-6.12l2.2,1.61,2.33-1.73a9.26,9.26,0,0,1,13.1,12.68Z"/><path d="M387.19,690.33l.11-.23a15.17,15.17,0,0,0-21.12-19.45l-.63.33-2.23-.78a13.5,13.5,0,0,0-16.7,7.11l-.3.74-1,.08a13.29,13.29,0,0,0-11.87,14.43,13.46,13.46,0,0,0,6.57,10.26l.65.39,31.54,11.3,1.38.2a15.5,15.5,0,0,0,2.14.15,15,15,0,0,0,11.56-24.34Zm-5.93-1.24-1.19,1.82,2.22,2.37a9.34,9.34,0,0,1-.31,13.19,9.48,9.48,0,0,1-7.31,2.56l-1.19-.1-31-10.94a7.66,7.66,0,0,1-3.43-4.72,7.55,7.55,0,0,1,.9-5.79,7.75,7.75,0,0,1,8.07-3.55l3.12.62.1-1.89h0a7.83,7.83,0,0,1,2.49-5.46,7.69,7.69,0,0,1,5.58-2.13,7.88,7.88,0,0,1,4.31,1.47l2.21,1.61,2.33-1.73a9.26,9.26,0,0,1,13.1,12.68Z"/><path d="M527.65,690.33l.11-.23a15.17,15.17,0,0,0-21.12-19.45L506,671l-2.23-.78a13.49,13.49,0,0,0-16.7,7.11l-.31.74-1,.08a13.28,13.28,0,0,0-11.87,14.43,13.46,13.46,0,0,0,6.57,10.26l.64.39,31.55,11.3,1.38.2a15.36,15.36,0,0,0,2.13.15,15,15,0,0,0,11.56-24.34Zm-5.94-1.24-1.18,1.82,2.21,2.37a9.3,9.3,0,0,1,2.58,6.67,9.2,9.2,0,0,1-2.89,6.52,9.44,9.44,0,0,1-7.31,2.56l-1.18-.1-31-10.94a7.68,7.68,0,0,1,5.53-14.06l3.12.62.1-1.89h0a7.82,7.82,0,0,1,2.48-5.46,7.71,7.71,0,0,1,5.58-2.13,7.89,7.89,0,0,1,4.32,1.47l2.2,1.61,2.33-1.73a9.26,9.26,0,0,1,13.1,12.68Z"/><path d="M668.1,690.33l.11-.23a15.17,15.17,0,0,0-21.12-19.45l-.63.33-2.23-.78a13.5,13.5,0,0,0-16.7,7.11l-.3.74-1,.08a13.29,13.29,0,0,0-11.87,14.43A13.46,13.46,0,0,0,621,702.82l.65.39,31.54,11.3,1.38.2a15.5,15.5,0,0,0,2.14.15,15,15,0,0,0,11.55-24.34Zm-5.93-1.24L661,690.91l2.21,2.37a9.33,9.33,0,0,1-.3,13.19,9.48,9.48,0,0,1-7.31,2.56l-1.19-.1-31-10.94a7.68,7.68,0,0,1,5.54-14.06l3.11.62.11-1.89h0a7.83,7.83,0,0,1,2.49-5.46,7.69,7.69,0,0,1,5.58-2.13,7.88,7.88,0,0,1,4.31,1.47l2.2,1.61,2.34-1.73a9.26,9.26,0,0,1,13.1,12.68Z"/><path d="M808.56,690.33l.11-.23a15.17,15.17,0,0,0-21.12-19.45l-.63.33-2.23-.78a13.48,13.48,0,0,0-16.7,7.11l-.31.74-1,.08a13.27,13.27,0,0,0-5.3,24.69l.64.39,31.55,11.3,1.38.2a15.36,15.36,0,0,0,2.13.15,15,15,0,0,0,11.56-24.34Zm-5.94-1.24-1.18,1.82,2.21,2.37a9.34,9.34,0,0,1-.31,13.19A9.47,9.47,0,0,1,796,709l-1.18-.1-31-10.94a7.68,7.68,0,0,1,5.54-14.06l3.12.62.1-1.89h0a7.87,7.87,0,0,1,2.49-5.46,7.69,7.69,0,0,1,5.58-2.13,7.89,7.89,0,0,1,4.32,1.47l2.2,1.61,2.33-1.73a9.26,9.26,0,0,1,13.1,12.68Z"/><path d="M949,690.33l.11-.23A15.17,15.17,0,0,0,928,670.65l-.63.33-2.23-.78a13.49,13.49,0,0,0-16.7,7.11l-.3.74-1,.08a13.29,13.29,0,0,0-11.87,14.43,13.46,13.46,0,0,0,6.57,10.26l.65.39,31.54,11.3,1.38.2a15.5,15.5,0,0,0,2.14.15,15,15,0,0,0,11.55-24.34Zm-5.93-1.24-1.19,1.82,2.21,2.37a9.34,9.34,0,0,1-.3,13.19,9.49,9.49,0,0,1-7.32,2.56l-1.18-.1L904.3,698a7.66,7.66,0,0,1-3.43-4.72,7.55,7.55,0,0,1,.9-5.79,7.75,7.75,0,0,1,8.07-3.55l3.12.62.1-1.89h0a7.81,7.81,0,0,1,12.38-6.12l2.2,1.61,2.33-1.73a9.26,9.26,0,0,1,13.11,12.68Z"/><path d="M1042.33,702.82l.64.39,31.55,11.3,1.38.2a15.36,15.36,0,0,0,2.13.15,15,15,0,0,0,11.56-24.34l-.12-.19.11-.23a15.17,15.17,0,0,0-21.12-19.45l-.63.33-2.23-.78a13.49,13.49,0,0,0-16.7,7.11l-.31.74-1,.08a13.3,13.3,0,0,0-11.88,14.43A13.44,13.44,0,0,0,1042.33,702.82Zm41.2-13.73-1.18,1.82,2.21,2.37a9.3,9.3,0,0,1,2.58,6.67,9.2,9.2,0,0,1-2.89,6.52,9.48,9.48,0,0,1-7.31,2.56l-1.18-.1-31-10.94a7.68,7.68,0,0,1,5.54-14.06l3.12.62.1-1.89h0a7.87,7.87,0,0,1,2.49-5.46,7.71,7.71,0,0,1,5.58-2.13,7.89,7.89,0,0,1,4.32,1.47l2.2,1.61,2.33-1.73a9.26,9.26,0,0,1,13.1,12.68Z"/><path d="M129.37,787.09l.64.4,31.55,11.29,1.38.21a15.47,15.47,0,0,0,2.13.15,15,15,0,0,0,11.56-24.35l-.12-.18.11-.24a15.18,15.18,0,0,0-21.12-19.45l-.63.33-2.23-.78a13.5,13.5,0,0,0-16.7,7.11l-.3.74-1,.09a13.28,13.28,0,0,0-11.87,14.42A13.46,13.46,0,0,0,129.37,787.09Zm41.21-13.73-1.19,1.83,2.21,2.36a9.37,9.37,0,0,1,2.59,6.67,9.23,9.23,0,0,1-2.89,6.52A9.41,9.41,0,0,1,164,793.3l-1.18-.1-31-10.93a7.68,7.68,0,0,1-3.43-4.72,7.57,7.57,0,0,1,.9-5.8,7.74,7.74,0,0,1,8.06-3.55l3.12.62.11-1.88h0a7.86,7.86,0,0,1,2.48-5.47,7.77,7.77,0,0,1,5.59-2.13,8,8,0,0,1,4.31,1.47l2.2,1.61,2.33-1.72a9.26,9.26,0,0,1,13.11,12.67Z"/><path d="M269.83,787.09l.64.4L302,798.78l1.38.21a15.25,15.25,0,0,0,2.13.15,15,15,0,0,0,11.56-24.35l-.13-.18.11-.24A15.17,15.17,0,0,0,296,754.92l-.63.33-2.23-.78a13.49,13.49,0,0,0-16.7,7.11l-.31.74-1,.09a13.28,13.28,0,0,0-11.87,14.42A13.44,13.44,0,0,0,269.83,787.09ZM311,773.36l-1.19,1.83,2.22,2.36a9.32,9.32,0,0,1,2.58,6.67,9.19,9.19,0,0,1-2.89,6.52,9.4,9.4,0,0,1-7.31,2.56l-1.18-.1-31-10.93a7.72,7.72,0,0,1-3.43-4.72,7.62,7.62,0,0,1,.91-5.8,7.74,7.74,0,0,1,8.06-3.55l3.12.62.1-1.88h0a7.88,7.88,0,0,1,2.49-5.47,7.69,7.69,0,0,1,5.58-2.13,7.91,7.91,0,0,1,4.31,1.47l2.21,1.61,2.33-1.72A9.25,9.25,0,0,1,311,773.36Z"/><path d="M410.28,787.09l.64.4,31.55,11.29,1.38.21a15.47,15.47,0,0,0,2.13.15,15,15,0,0,0,11.56-24.35l-.12-.18.11-.24a15.18,15.18,0,0,0-21.12-19.45l-.63.33-2.23-.78a13.5,13.5,0,0,0-16.7,7.11l-.3.74-1,.09a13.27,13.27,0,0,0-11.87,14.42A13.46,13.46,0,0,0,410.28,787.09Zm41.21-13.73-1.19,1.83,2.21,2.36a9.37,9.37,0,0,1,2.59,6.67,9.23,9.23,0,0,1-2.89,6.52,9.43,9.43,0,0,1-7.32,2.56l-1.18-.1-31-10.93a7.68,7.68,0,0,1,5.53-14.07l3.12.62.11-1.88h0a7.87,7.87,0,0,1,8.07-7.6,8,8,0,0,1,4.31,1.47l2.2,1.61,2.33-1.72a9.26,9.26,0,0,1,13.11,12.67Z"/><path d="M550.74,787.09l.64.4,31.54,11.29,1.39.21a15.25,15.25,0,0,0,2.13.15A15,15,0,0,0,598,774.79l-.13-.18.11-.24a15.18,15.18,0,0,0-21.12-19.45l-.62.33-2.23-.78a13.51,13.51,0,0,0-16.71,7.11l-.3.74-1,.09a13.28,13.28,0,0,0-11.87,14.42A13.44,13.44,0,0,0,550.74,787.09Zm41.2-13.73-1.19,1.83,2.22,2.36a9.32,9.32,0,0,1,2.58,6.67,9.19,9.19,0,0,1-2.89,6.52,9.39,9.39,0,0,1-7.31,2.56l-1.18-.1-31-10.93a7.72,7.72,0,0,1-3.43-4.72,7.62,7.62,0,0,1,.91-5.8,7.72,7.72,0,0,1,8.06-3.55l3.12.63.1-1.89h0a7.81,7.81,0,0,1,12.38-6.13l2.21,1.61,2.33-1.72a9.25,9.25,0,0,1,13.1,12.67Z"/><path d="M691.19,787.09l.64.4,31.55,11.29,1.38.21a15.47,15.47,0,0,0,2.13.15,15,15,0,0,0,11.56-24.35l-.12-.18.11-.24a15.18,15.18,0,0,0-21.12-19.45l-.63.33-2.23-.78a13.5,13.5,0,0,0-16.7,7.11l-.3.74-1,.09a13.27,13.27,0,0,0-11.87,14.42A13.46,13.46,0,0,0,691.19,787.09Zm41.21-13.73-1.19,1.83,2.21,2.36a9.37,9.37,0,0,1,2.59,6.67,9.2,9.2,0,0,1-2.9,6.52,9.39,9.39,0,0,1-7.31,2.56l-1.18-.1-31-10.93a7.68,7.68,0,0,1-3.43-4.72,7.57,7.57,0,0,1,.9-5.8,7.74,7.74,0,0,1,8.06-3.55l3.12.63.11-1.89h0a7.87,7.87,0,0,1,8.07-7.6,8,8,0,0,1,4.31,1.47l2.2,1.61,2.33-1.72a9.26,9.26,0,0,1,13.11,12.67Z"/><path d="M831.65,787.09l.64.4,31.54,11.29,1.39.21a15.25,15.25,0,0,0,2.13.15,15,15,0,0,0,11.56-24.35l-.13-.18.11-.24a15.18,15.18,0,0,0-21.12-19.45l-.62.33-2.23-.78a13.51,13.51,0,0,0-16.71,7.11l-.3.74-1,.09a13.28,13.28,0,0,0-11.87,14.42A13.44,13.44,0,0,0,831.65,787.09Zm41.2-13.73-1.19,1.83,2.22,2.36a9.32,9.32,0,0,1,2.58,6.67,9.19,9.19,0,0,1-2.89,6.52,9.4,9.4,0,0,1-7.31,2.56l-1.18-.1-31-10.93a7.68,7.68,0,0,1-3.43-4.72,7.58,7.58,0,0,1,.91-5.8,7.73,7.73,0,0,1,8.06-3.55l3.12.62.1-1.88h0a7.88,7.88,0,0,1,2.49-5.47,7.75,7.75,0,0,1,5.58-2.13,7.91,7.91,0,0,1,4.31,1.47l2.21,1.61,2.33-1.72a9.25,9.25,0,0,1,13.1,12.67Z"/><path d="M972.1,787.09l.64.4,31.55,11.29,1.38.21a15.47,15.47,0,0,0,2.13.15,15,15,0,0,0,11.56-24.35l-.12-.18.11-.24a15.18,15.18,0,0,0-21.12-19.45l-.63.33-2.23-.78a13.5,13.5,0,0,0-16.7,7.11l-.3.74-1,.09a13.27,13.27,0,0,0-11.87,14.42A13.46,13.46,0,0,0,972.1,787.09Zm41.21-13.73-1.19,1.83,2.21,2.36a9.37,9.37,0,0,1,2.59,6.67,9.24,9.24,0,0,1-2.9,6.52,9.39,9.39,0,0,1-7.31,2.56l-1.18-.1-31-10.93a7.68,7.68,0,0,1,5.53-14.07l3.12.62.11-1.88h0a7.85,7.85,0,0,1,8.07-7.6,8,8,0,0,1,4.31,1.47l2.2,1.61,2.33-1.72a9.26,9.26,0,0,1,13.11,12.67Z"/><path d="M106.28,858.88l.11-.23a15.18,15.18,0,0,0-21.12-19.46l-.63.34-2.22-.79a13.51,13.51,0,0,0-16.71,7.11l-.3.75-1,.08a13.29,13.29,0,0,0-11.87,14.43,13.44,13.44,0,0,0,6.57,10.25l.65.4,31.54,11.29,1.38.21a15.5,15.5,0,0,0,2.14.15,15,15,0,0,0,11.56-24.35Zm-5.93-1.25-1.19,1.83,2.22,2.37a9.34,9.34,0,0,1-7.62,15.74l-1.19-.1-31-10.93a7.68,7.68,0,0,1,5.54-14.07l3.12.63.1-1.89h0a7.83,7.83,0,0,1,12.38-6.13l2.21,1.62L87.25,845a9.25,9.25,0,0,1,13.1,12.67Z"/><path d="M246.74,858.88l.11-.23a15.18,15.18,0,0,0-21.12-19.46l-.63.34-2.23-.79a13.5,13.5,0,0,0-16.7,7.11l-.3.75-1,.08A13.28,13.28,0,0,0,193,861.11a13.44,13.44,0,0,0,6.57,10.25l.64.4,31.55,11.29,1.38.21a15.36,15.36,0,0,0,2.13.15,15,15,0,0,0,11.56-24.35Zm-5.94-1.25-1.18,1.83,2.21,2.37a9.34,9.34,0,0,1-7.62,15.74l-1.18-.1-31-10.93a7.68,7.68,0,0,1-3.43-4.72,7.54,7.54,0,0,1,.9-5.79,7.74,7.74,0,0,1,8.06-3.56l3.12.63.11-1.89h0a7.83,7.83,0,0,1,12.38-6.13l2.2,1.62L227.7,845a9.25,9.25,0,0,1,13.1,12.67Z"/><path d="M387.19,858.88l.11-.23a15.18,15.18,0,0,0-21.12-19.46l-.63.34-2.23-.79a13.5,13.5,0,0,0-16.7,7.11l-.3.75-1,.08a13.29,13.29,0,0,0-11.87,14.43,13.44,13.44,0,0,0,6.57,10.25l.65.4,31.54,11.29,1.38.21a15.5,15.5,0,0,0,2.14.15,15,15,0,0,0,11.56-24.35Zm-5.93-1.25-1.19,1.83,2.22,2.37a9.34,9.34,0,0,1-7.62,15.74l-1.19-.1-31-10.93a7.68,7.68,0,0,1-3.43-4.72A7.54,7.54,0,0,1,340,856a7.75,7.75,0,0,1,8.07-3.56l3.12.63.1-1.89h0a7.83,7.83,0,0,1,12.38-6.13l2.21,1.62,2.33-1.73a9.25,9.25,0,0,1,13.1,12.67Z"/><path d="M527.65,858.88l.11-.23a15.18,15.18,0,0,0-21.12-19.46l-.63.34-2.23-.79a13.49,13.49,0,0,0-16.7,7.11l-.31.75-1,.08a13.28,13.28,0,0,0-11.87,14.43,13.44,13.44,0,0,0,6.57,10.25l.64.4,31.55,11.29,1.38.21a15.36,15.36,0,0,0,2.13.15,15,15,0,0,0,11.56-24.35Zm-5.94-1.25-1.18,1.83,2.21,2.37a9.3,9.3,0,0,1,2.58,6.66,9.19,9.19,0,0,1-2.89,6.52,9.4,9.4,0,0,1-7.31,2.56l-1.18-.1-31-10.93a7.68,7.68,0,0,1,5.53-14.07l3.12.63.1-1.89h0a7.82,7.82,0,0,1,2.48-5.47,7.7,7.7,0,0,1,5.58-2.12,7.88,7.88,0,0,1,4.32,1.46l2.2,1.62,2.33-1.73a9.25,9.25,0,0,1,13.1,12.67Z"/><path d="M668.1,858.88l.11-.23a15.18,15.18,0,0,0-21.12-19.46l-.63.34-2.23-.79a13.5,13.5,0,0,0-16.7,7.11l-.3.75-1,.08a13.29,13.29,0,0,0-11.87,14.43A13.44,13.44,0,0,0,621,871.36l.65.4,31.54,11.29,1.38.21a15.5,15.5,0,0,0,2.14.15,15,15,0,0,0,11.55-24.35Zm-5.93-1.25L661,859.46l2.21,2.37a9.34,9.34,0,0,1-7.61,15.74l-1.19-.1-31-10.93a7.68,7.68,0,0,1,5.54-14.07l3.11.63.11-1.89h0a7.83,7.83,0,0,1,12.38-6.13l2.2,1.62,2.34-1.73a9.25,9.25,0,0,1,13.1,12.67Z"/><path d="M800.94,838.67a15.26,15.26,0,0,0-13.39.52l-.63.34-2.23-.79a13.49,13.49,0,0,0-16.7,7.11l-.31.75-1,.08a13.26,13.26,0,0,0-5.3,24.68l.64.4,31.55,11.29,1.38.21a15.36,15.36,0,0,0,2.13.15,15,15,0,0,0,11.56-24.35l-.12-.18.11-.23A15.24,15.24,0,0,0,800.94,838.67Zm1.68,19-1.18,1.83,2.21,2.37A9.34,9.34,0,0,1,796,877.57l-1.18-.1-31-10.93a7.69,7.69,0,0,1,5.54-14.07l3.12.63.1-1.89h0A7.83,7.83,0,0,1,785,845.07l2.2,1.62,2.33-1.73a9.25,9.25,0,0,1,13.1,12.67Z"/><path d="M949,858.88l.11-.23A15.18,15.18,0,0,0,928,839.19l-.63.34-2.23-.79a13.5,13.5,0,0,0-16.7,7.11l-.3.75-1,.08a13.29,13.29,0,0,0-11.87,14.43,13.44,13.44,0,0,0,6.57,10.25l.65.4,31.54,11.29,1.38.21a15.47,15.47,0,0,0,2.13.15,15,15,0,0,0,11.56-24.35Zm-5.93-1.25-1.19,1.83,2.21,2.37a9.34,9.34,0,0,1-7.62,15.74l-1.18-.1-31-10.93a7.68,7.68,0,0,1-3.43-4.72,7.54,7.54,0,0,1,.9-5.79,7.74,7.74,0,0,1,8.06-3.56l3.13.63.1-1.89h0a7.83,7.83,0,0,1,12.38-6.13l2.2,1.62L930,845a9.26,9.26,0,0,1,13.11,12.67Z"/><path d="M1089.47,858.88l.11-.23a15.18,15.18,0,0,0-21.12-19.46l-.63.34-2.23-.79a13.49,13.49,0,0,0-16.7,7.11l-.31.75-1,.08a13.26,13.26,0,0,0-5.3,24.68l.64.4,31.55,11.29,1.38.21a15.25,15.25,0,0,0,2.13.15,15,15,0,0,0,11.56-24.35Zm-5.94-1.25-1.18,1.83,2.21,2.37a9.3,9.3,0,0,1,2.58,6.66,9.19,9.19,0,0,1-2.89,6.52,9.4,9.4,0,0,1-7.31,2.56l-1.18-.1-31-10.93a7.69,7.69,0,0,1,5.54-14.07l3.12.63.1-1.89h0a7.88,7.88,0,0,1,2.49-5.47,7.7,7.7,0,0,1,5.58-2.12,7.88,7.88,0,0,1,4.32,1.46l2.2,1.62,2.33-1.73a9.25,9.25,0,0,1,13.1,12.67Z"/><path d="M176.51,943.15l.11-.23a15.17,15.17,0,0,0-21.12-19.45l-.63.33-2.23-.79a13.51,13.51,0,0,0-16.7,7.12l-.3.74-1,.08a13.29,13.29,0,0,0-11.87,14.43,13.47,13.47,0,0,0,6.57,10.26l.64.39,31.55,11.29,1.38.21a15.47,15.47,0,0,0,2.13.15,15,15,0,0,0,11.56-24.34Zm-5.93-1.24-1.19,1.82,2.21,2.37a9.35,9.35,0,0,1,2.59,6.66,9.25,9.25,0,0,1-2.89,6.53,9.46,9.46,0,0,1-7.32,2.55l-1.18-.1-31-10.93a7.68,7.68,0,0,1,5.53-14.06l3.12.62.11-1.89h0A7.86,7.86,0,0,1,143,930a7.69,7.69,0,0,1,5.59-2.13,8,8,0,0,1,4.31,1.46l2.2,1.62,2.33-1.73a9.26,9.26,0,0,1,13.11,12.68Z"/><path d="M317,943.15l.11-.23A15.17,15.17,0,0,0,296,923.47l-.63.33L293.1,923a13.51,13.51,0,0,0-16.71,7.12l-.3.74-1,.08a13.3,13.3,0,0,0-11.87,14.43,13.46,13.46,0,0,0,6.58,10.26l.64.39L302,967.32l1.38.21a15.25,15.25,0,0,0,2.13.15,15,15,0,0,0,11.56-24.34ZM311,941.9l-1.19,1.83,2.22,2.37a9.34,9.34,0,0,1-7.62,15.74l-1.18-.1-31-10.93a7.68,7.68,0,0,1,5.54-14.06l3.12.62.1-1.89h0A7.87,7.87,0,0,1,283.5,930a7.64,7.64,0,0,1,5.58-2.13,7.9,7.9,0,0,1,4.31,1.46L295.6,931l2.33-1.73A9.25,9.25,0,0,1,311,941.9Z"/><path d="M457.42,943.15l.11-.23a15.17,15.17,0,0,0-21.12-19.45l-.63.33-2.23-.79a13.51,13.51,0,0,0-16.7,7.12l-.3.74-1,.08a13.28,13.28,0,0,0-11.87,14.43,13.47,13.47,0,0,0,6.57,10.26l.64.39,31.55,11.29,1.38.21a15.47,15.47,0,0,0,2.13.15,15,15,0,0,0,11.56-24.34Zm-5.93-1.25-1.19,1.83,2.21,2.37a9.34,9.34,0,0,1-.3,13.19,9.46,9.46,0,0,1-7.32,2.55l-1.18-.1-31-10.93a7.68,7.68,0,0,1,5.53-14.06l3.12.62.11-1.89h0a7.84,7.84,0,0,1,8.07-7.59,8,8,0,0,1,4.31,1.46l2.2,1.62,2.33-1.73a9.26,9.26,0,0,1,13.11,12.67Z"/><path d="M597.87,943.15l.11-.23a15.17,15.17,0,0,0-21.12-19.45l-.62.33L574,923a13.51,13.51,0,0,0-16.71,7.12l-.3.74-1,.08a13.29,13.29,0,0,0-11.87,14.43,13.46,13.46,0,0,0,6.58,10.26l.64.39,31.54,11.29,1.39.21a15.25,15.25,0,0,0,2.13.15A15,15,0,0,0,598,943.34Zm-5.93-1.25-1.19,1.83L593,946.1a9.34,9.34,0,0,1-7.62,15.74l-1.18-.1-31-10.93a7.69,7.69,0,0,1-3.43-4.72,7.59,7.59,0,0,1,.91-5.79,7.72,7.72,0,0,1,8.06-3.55l3.12.62.1-1.89h0a7.83,7.83,0,0,1,12.38-6.13l2.21,1.62,2.33-1.73a9.25,9.25,0,0,1,13.1,12.67Z"/><path d="M738.33,943.15l.11-.23a15.17,15.17,0,0,0-21.12-19.45l-.63.33-2.23-.79a13.51,13.51,0,0,0-16.7,7.12l-.3.74-1,.08a13.28,13.28,0,0,0-11.87,14.43,13.47,13.47,0,0,0,6.57,10.26l.64.39,31.55,11.29,1.38.21a15.47,15.47,0,0,0,2.13.15,15,15,0,0,0,11.56-24.34Zm-5.93-1.24-1.19,1.82,2.21,2.37a9.35,9.35,0,0,1,2.59,6.66,9.25,9.25,0,0,1-2.89,6.53,9.46,9.46,0,0,1-7.32,2.55l-1.18-.1-31-10.93a7.68,7.68,0,0,1,5.53-14.06l3.12.62.11-1.89h0a7.83,7.83,0,0,1,8.07-7.59,8,8,0,0,1,4.31,1.46L717,931l2.33-1.73a9.26,9.26,0,0,1,13.11,12.68Z"/><path d="M878.78,943.15l.11-.23a15.17,15.17,0,0,0-21.12-19.45l-.63.33-2.22-.79a13.51,13.51,0,0,0-16.71,7.12l-.3.74-1,.08a13.29,13.29,0,0,0-11.87,14.43,13.46,13.46,0,0,0,6.58,10.26l.64.39,31.54,11.29,1.39.21a15.25,15.25,0,0,0,2.13.15,15,15,0,0,0,11.56-24.34Zm-5.93-1.24-1.19,1.82,2.22,2.37a9.34,9.34,0,0,1-7.62,15.74l-1.18-.1-31-10.93a7.68,7.68,0,0,1,5.54-14.06l3.12.62.1-1.89h0a7.83,7.83,0,0,1,12.38-6.13l2.21,1.62,2.33-1.73a9.26,9.26,0,0,1,13.1,12.68Z"/><path d="M1019.24,943.15l.11-.23a15.17,15.17,0,0,0-21.12-19.45l-.63.33-2.23-.79a13.51,13.51,0,0,0-16.7,7.12l-.3.74-1,.08a13.28,13.28,0,0,0-11.87,14.43,13.47,13.47,0,0,0,6.57,10.26l.64.39,31.55,11.29,1.38.21a15.47,15.47,0,0,0,2.13.15,15,15,0,0,0,11.56-24.34Zm-5.93-1.25-1.19,1.83,2.21,2.37a9.34,9.34,0,0,1-7.62,15.74l-1.18-.1-31-10.93a7.68,7.68,0,0,1,5.53-14.06l3.12.62.11-1.89h0a7.83,7.83,0,0,1,8.07-7.59,8,8,0,0,1,4.31,1.46l2.2,1.62,2.33-1.73a9.26,9.26,0,0,1,13.11,12.67Z"/><path d="M1260.77,109l.65.4L1293,120.64l1.38.21a15.5,15.5,0,0,0,2.14.15A15,15,0,0,0,1308,96.65l-.12-.18.11-.24a15.18,15.18,0,0,0-21.12-19.45l-.63.33-2.23-.78a13.5,13.5,0,0,0-16.7,7.11l-.3.74-1,.09a13.28,13.28,0,0,0-11.87,14.42A13.46,13.46,0,0,0,1260.77,109ZM1302,95.22l-1.19,1.83,2.22,2.36a9.36,9.36,0,0,1,2.58,6.67,9.23,9.23,0,0,1-2.89,6.52,9.4,9.4,0,0,1-7.31,2.56l-1.19-.1-31-10.93a7.68,7.68,0,0,1-3.43-4.72,7.57,7.57,0,0,1,.9-5.8,7.75,7.75,0,0,1,8.07-3.55l3.12.62.1-1.88h0a7.83,7.83,0,0,1,2.49-5.47,7.73,7.73,0,0,1,5.58-2.13,8,8,0,0,1,4.31,1.47l2.2,1.61,2.34-1.72A9.25,9.25,0,0,1,1302,95.22Z"/><path d="M1401.23,109l.64.4,31.55,11.29,1.38.21a15.36,15.36,0,0,0,2.13.15,15,15,0,0,0,11.56-24.35l-.12-.18.11-.24a15.18,15.18,0,0,0-21.12-19.45l-.63.33-2.23-.78a13.49,13.49,0,0,0-16.7,7.11l-.31.74-1,.09a13.27,13.27,0,0,0-11.87,14.42A13.43,13.43,0,0,0,1401.23,109Zm41.2-13.73-1.18,1.83,2.21,2.36a9.32,9.32,0,0,1,2.58,6.67,9.19,9.19,0,0,1-2.89,6.52,9.4,9.4,0,0,1-7.31,2.56l-1.18-.1-31-10.93a7.74,7.74,0,0,1-3.44-4.72,7.62,7.62,0,0,1,.91-5.8,7.75,7.75,0,0,1,8.06-3.55l3.12.62.1-1.88h0a7.88,7.88,0,0,1,2.49-5.47,7.71,7.71,0,0,1,5.58-2.13,8,8,0,0,1,4.32,1.47l2.2,1.61,2.33-1.72a9.25,9.25,0,0,1,13.1,12.67Z"/><path d="M1541.68,109l.64.4,31.55,11.29,1.38.21a15.5,15.5,0,0,0,2.14.15,15,15,0,0,0,11.55-24.35l-.12-.18.11-.24a15.18,15.18,0,0,0-21.12-19.45l-.63.33-2.23-.78a13.5,13.5,0,0,0-16.7,7.11l-.3.74-1,.09a13.28,13.28,0,0,0-11.87,14.42A13.46,13.46,0,0,0,1541.68,109Zm41.21-13.73-1.19,1.83,2.21,2.36a9.33,9.33,0,0,1,2.59,6.67,9.23,9.23,0,0,1-2.89,6.52,9.4,9.4,0,0,1-7.31,2.56l-1.19-.1-31-10.93a7.68,7.68,0,0,1,5.54-14.07l3.11.62.11-1.88h0a7.83,7.83,0,0,1,2.49-5.47,7.75,7.75,0,0,1,5.58-2.13,8,8,0,0,1,4.31,1.47l2.2,1.61,2.33-1.72a9.26,9.26,0,0,1,13.11,12.67Z"/><path d="M1682.14,109l.64.4,31.55,11.29,1.38.21a15.36,15.36,0,0,0,2.13.15,15,15,0,0,0,11.56-24.35l-.12-.18.1-.24a15.17,15.17,0,0,0-21.11-19.45l-.63.33-2.23-.78a13.49,13.49,0,0,0-16.7,7.11l-.31.74-1,.09a13.27,13.27,0,0,0-11.87,14.42A13.41,13.41,0,0,0,1682.14,109Zm41.2-13.73-1.19,1.83,2.22,2.36a9.32,9.32,0,0,1,2.58,6.67,9.19,9.19,0,0,1-2.89,6.52,9.39,9.39,0,0,1-7.31,2.56l-1.18-.1-31-10.93a7.72,7.72,0,0,1-3.43-4.72,7.62,7.62,0,0,1,.91-5.8,7.74,7.74,0,0,1,8.06-3.55l3.12.62.1-1.88h0a7.86,7.86,0,0,1,8.07-7.6,8,8,0,0,1,4.32,1.47l2.2,1.61,2.33-1.72a9.25,9.25,0,0,1,13.1,12.67Z"/><path d="M1822.59,109l.65.4,31.54,11.29,1.38.21a15.5,15.5,0,0,0,2.14.15,15,15,0,0,0,11.55-24.35l-.12-.18.11-.24a15.18,15.18,0,0,0-21.12-19.45l-.63.33-2.23-.78a13.5,13.5,0,0,0-16.7,7.11l-.3.74-1,.09A13.28,13.28,0,0,0,1816,98.69,13.46,13.46,0,0,0,1822.59,109Zm41.21-13.73-1.19,1.83,2.21,2.36a9.33,9.33,0,0,1,2.59,6.67,9.23,9.23,0,0,1-2.89,6.52,9.41,9.41,0,0,1-7.32,2.56l-1.18-.1-31-10.93a7.68,7.68,0,0,1-3.43-4.72,7.57,7.57,0,0,1,.9-5.8,7.74,7.74,0,0,1,8.06-3.55l3.12.62.11-1.88h0a7.86,7.86,0,0,1,2.48-5.47,7.77,7.77,0,0,1,5.59-2.13,8,8,0,0,1,4.31,1.47l2.2,1.61,2.33-1.72a9.26,9.26,0,0,1,13.11,12.67Z"/><path d="M1120.32,109l.64.4,31.55,11.29,1.38.21a15.36,15.36,0,0,0,2.13.15,15,15,0,0,0,11.56-24.35l-.12-.18.11-.24a15.18,15.18,0,0,0-21.12-19.45l-.63.33-2.23-.78a13.5,13.5,0,0,0-16.7,7.11l-.31.74-1,.09a13.27,13.27,0,0,0-11.87,14.42A13.43,13.43,0,0,0,1120.32,109Zm41.2-13.73-1.18,1.83,2.21,2.36a9.32,9.32,0,0,1,2.58,6.67,9.19,9.19,0,0,1-2.89,6.52,9.39,9.39,0,0,1-7.31,2.56l-1.18-.1-31-10.93a7.68,7.68,0,0,1-3.43-4.72,7.57,7.57,0,0,1,.9-5.8,7.74,7.74,0,0,1,8.06-3.55l3.12.62.1-1.88h0a7.87,7.87,0,0,1,8.06-7.6,8,8,0,0,1,4.32,1.47l2.2,1.61,2.33-1.72a9.25,9.25,0,0,1,13.1,12.67Z"/><path d="M1237.68,180.74l.11-.23a15.17,15.17,0,0,0-21.11-19.46l-.63.34-2.23-.79a13.51,13.51,0,0,0-16.71,7.11l-.3.75-1,.08A13.29,13.29,0,0,0,1184,183a13.43,13.43,0,0,0,6.58,10.25l.64.4,31.55,11.29,1.38.21a15.25,15.25,0,0,0,2.13.15,15,15,0,0,0,11.56-24.35Zm-5.93-1.25-1.19,1.83,2.22,2.37a9.34,9.34,0,0,1-7.62,15.74l-1.18-.1-31-10.93a7.69,7.69,0,0,1,5.54-14.07l3.12.63.1-1.89h0a7.83,7.83,0,0,1,12.38-6.13l2.21,1.62,2.33-1.73a9.25,9.25,0,0,1,13.1,12.67Z"/><path d="M1378.14,180.74l.11-.23a15.18,15.18,0,0,0-21.12-19.46l-.63.34-2.23-.79a13.5,13.5,0,0,0-16.7,7.11l-.3.75-1,.08A13.28,13.28,0,0,0,1324.43,183a13.44,13.44,0,0,0,6.57,10.25l.64.4,31.55,11.29,1.38.21a15.47,15.47,0,0,0,2.13.15,15,15,0,0,0,11.56-24.35Zm-5.93-1.25-1.19,1.83,2.21,2.37a9.33,9.33,0,0,1-.3,13.18,9.43,9.43,0,0,1-7.32,2.56l-1.18-.1-31-10.93a7.68,7.68,0,0,1-3.43-4.72,7.54,7.54,0,0,1,.9-5.79,7.74,7.74,0,0,1,8.06-3.56l3.12.63.11-1.89h0a7.83,7.83,0,0,1,12.38-6.13l2.2,1.62,2.33-1.73a9.26,9.26,0,0,1,13.11,12.67Z"/><path d="M1518.59,180.74l.11-.23a15.18,15.18,0,0,0-21.12-19.46l-.62.34-2.23-.79a13.51,13.51,0,0,0-16.71,7.11l-.3.75-1,.08A13.29,13.29,0,0,0,1464.88,183a13.43,13.43,0,0,0,6.58,10.25l.64.4,31.54,11.29,1.39.21a15.25,15.25,0,0,0,2.13.15,15,15,0,0,0,11.56-24.35Zm-5.93-1.25-1.19,1.83,2.22,2.37a9.34,9.34,0,0,1-7.62,15.74l-1.18-.1-31-10.93a7.72,7.72,0,0,1-3.43-4.72,7.54,7.54,0,0,1,.91-5.79,7.73,7.73,0,0,1,8.06-3.56l3.12.63.1-1.89h0a7.83,7.83,0,0,1,12.38-6.13l2.21,1.62,2.33-1.73a9.25,9.25,0,0,1,13.1,12.67Z"/><path d="M1659.05,180.74l.11-.23A15.18,15.18,0,0,0,1638,161.05l-.63.34-2.23-.79a13.5,13.5,0,0,0-16.7,7.11l-.3.75-1,.08A13.28,13.28,0,0,0,1605.34,183a13.44,13.44,0,0,0,6.57,10.25l.64.4,31.55,11.29,1.38.21a15.47,15.47,0,0,0,2.13.15,15,15,0,0,0,11.56-24.35Zm-5.93-1.25-1.19,1.83,2.21,2.37a9.35,9.35,0,0,1,2.59,6.66,9.24,9.24,0,0,1-2.9,6.52,9.39,9.39,0,0,1-7.31,2.56l-1.18-.1-31-10.93a7.68,7.68,0,0,1,5.53-14.07l3.12.63.11-1.89h0a7.82,7.82,0,0,1,2.48-5.47,7.71,7.71,0,0,1,5.59-2.12,7.87,7.87,0,0,1,4.31,1.46l2.2,1.62,2.33-1.73a9.26,9.26,0,0,1,13.11,12.67Z"/><path d="M1799.5,180.74l.11-.23a15.18,15.18,0,0,0-21.12-19.46l-.63.34-2.22-.79a13.51,13.51,0,0,0-16.71,7.11l-.3.75-1,.08A13.29,13.29,0,0,0,1745.79,183a13.44,13.44,0,0,0,6.57,10.25l.65.4,31.54,11.29,1.39.21a15.25,15.25,0,0,0,2.13.15,15,15,0,0,0,11.56-24.35Zm-5.93-1.25-1.19,1.83,2.22,2.37a9.34,9.34,0,0,1-7.62,15.74l-1.19-.1-31-10.93a7.68,7.68,0,0,1,5.54-14.07l3.12.63.1-1.89h0a7.83,7.83,0,0,1,12.38-6.13l2.21,1.62,2.33-1.73a9.25,9.25,0,0,1,13.1,12.67Z"/><path d="M1307.91,265l.11-.23a15.17,15.17,0,0,0-21.12-19.45l-.63.33-2.23-.79a13.51,13.51,0,0,0-16.7,7.12l-.3.74-1,.08a13.29,13.29,0,0,0-11.87,14.43,13.47,13.47,0,0,0,6.57,10.26l.65.39L1293,289.18l1.38.21a15.5,15.5,0,0,0,2.14.15A15,15,0,0,0,1308,265.2Zm-5.93-1.24-1.19,1.82L1303,268a9.32,9.32,0,0,1-.31,13.19,9.43,9.43,0,0,1-7.31,2.55l-1.19-.1-31-10.93a7.68,7.68,0,0,1,5.54-14.06l3.12.62.1-1.89h0a7.83,7.83,0,0,1,2.49-5.46,7.65,7.65,0,0,1,5.58-2.13,8,8,0,0,1,4.31,1.46l2.2,1.62,2.34-1.73a9.26,9.26,0,0,1,13.1,12.68Z"/><path d="M1448.37,265l.11-.23a15.17,15.17,0,0,0-21.12-19.45l-.63.33-2.23-.79a13.5,13.5,0,0,0-16.7,7.12l-.31.74-1,.08a13.28,13.28,0,0,0-11.87,14.43,13.45,13.45,0,0,0,6.57,10.26l.64.39,31.55,11.29,1.38.21a15.36,15.36,0,0,0,2.13.15,15,15,0,0,0,11.56-24.34Zm-5.94-1.25-1.18,1.83,2.21,2.37a9.34,9.34,0,0,1-7.62,15.74l-1.18-.1-31-10.93a7.68,7.68,0,0,1,5.53-14.06l3.12.62.1-1.89h0a7.87,7.87,0,0,1,2.49-5.46,7.64,7.64,0,0,1,5.58-2.13,8,8,0,0,1,4.32,1.46l2.2,1.62,2.33-1.73a9.25,9.25,0,0,1,13.1,12.67Z"/><path d="M1588.82,265l.11-.23a15.17,15.17,0,0,0-21.12-19.45l-.63.33-2.23-.79a13.51,13.51,0,0,0-16.7,7.12l-.3.74-1,.08a13.29,13.29,0,0,0-11.87,14.43,13.47,13.47,0,0,0,6.57,10.26l.65.39,31.54,11.29,1.38.21a15.5,15.5,0,0,0,2.14.15,15,15,0,0,0,11.55-24.34Zm-5.93-1.25-1.19,1.83,2.21,2.37a9.33,9.33,0,0,1-.3,13.19,9.43,9.43,0,0,1-7.31,2.55l-1.19-.1-31-10.93a7.68,7.68,0,0,1,5.54-14.06l3.11.62.11-1.89h0a7.84,7.84,0,0,1,8.07-7.59,8,8,0,0,1,4.31,1.46l2.2,1.62,2.33-1.73a9.26,9.26,0,0,1,13.11,12.67Z"/><path d="M1729.28,265l.1-.23a15.17,15.17,0,0,0-21.11-19.45l-.63.33-2.23-.79a13.5,13.5,0,0,0-16.7,7.12l-.31.74-1,.08a13.28,13.28,0,0,0-11.87,14.43,13.42,13.42,0,0,0,6.57,10.26l.64.39,31.55,11.29,1.38.21a15.36,15.36,0,0,0,2.13.15,15,15,0,0,0,11.56-24.34Zm-5.94-1.25-1.19,1.83,2.22,2.37a9.34,9.34,0,0,1-7.62,15.74l-1.18-.1-31-10.93a7.69,7.69,0,0,1-3.43-4.72,7.59,7.59,0,0,1,.91-5.79,7.73,7.73,0,0,1,8.06-3.55l3.12.62.1-1.89h0a7.84,7.84,0,0,1,8.07-7.59,8,8,0,0,1,4.32,1.46l2.2,1.62,2.33-1.73a9.25,9.25,0,0,1,13.1,12.67Z"/><path d="M1869.73,265l.11-.23a15.17,15.17,0,0,0-21.12-19.45l-.63.33-2.23-.79a13.51,13.51,0,0,0-16.7,7.12l-.3.74-1,.08A13.29,13.29,0,0,0,1816,267.24a13.47,13.47,0,0,0,6.57,10.26l.65.39,31.54,11.29,1.38.21a15.5,15.5,0,0,0,2.14.15,15,15,0,0,0,11.55-24.34Zm-5.93-1.24-1.19,1.82,2.21,2.37a9.31,9.31,0,0,1-.3,13.19,9.44,9.44,0,0,1-7.32,2.55l-1.18-.1-31-10.93a7.68,7.68,0,0,1,5.53-14.06l3.12.62.11-1.89h0a7.83,7.83,0,0,1,8.07-7.59,8,8,0,0,1,4.31,1.46l2.2,1.62,2.33-1.73a9.26,9.26,0,0,1,13.11,12.68Z"/><path d="M1167.46,265l.11-.23a15.17,15.17,0,0,0-21.12-19.45l-.63.33-2.23-.79a13.5,13.5,0,0,0-16.7,7.12l-.31.74-1,.08a13.28,13.28,0,0,0-11.87,14.43,13.45,13.45,0,0,0,6.57,10.26l.64.39,31.55,11.29,1.38.21a15.36,15.36,0,0,0,2.13.15,15,15,0,0,0,11.56-24.34Zm-5.94-1.24-1.18,1.82,2.21,2.37a9.34,9.34,0,0,1-7.62,15.74l-1.18-.1-31-10.93a7.66,7.66,0,0,1-3.43-4.72,7.54,7.54,0,0,1,.9-5.79,7.73,7.73,0,0,1,8.06-3.55l3.12.62.1-1.89h0a7.83,7.83,0,0,1,8.06-7.59,8,8,0,0,1,4.32,1.46l2.2,1.62,2.33-1.73a9.26,9.26,0,0,1,13.1,12.68Z"/><path d="M1237.68,349.28l.11-.23a15.17,15.17,0,0,0-21.11-19.45l-.63.33-2.23-.78a13.51,13.51,0,0,0-16.71,7.11l-.3.74-1,.09A13.28,13.28,0,0,0,1184,351.51a13.44,13.44,0,0,0,6.58,10.26l.64.39,31.55,11.3,1.38.2a13.89,13.89,0,0,0,2.13.16,15,15,0,0,0,11.56-24.35Zm-5.93-1.24-1.19,1.82,2.22,2.37a9.35,9.35,0,0,1-7.62,15.75l-1.18-.1L1193,357a7.68,7.68,0,0,1,5.54-14.07l3.12.62.1-1.89h0a7.81,7.81,0,0,1,12.38-6.12l2.21,1.61,2.33-1.73a9.26,9.26,0,0,1,13.1,12.68Z"/><path d="M1378.14,349.28l.11-.23a15.18,15.18,0,0,0-21.12-19.45l-.63.33-2.23-.78a13.5,13.5,0,0,0-16.7,7.11l-.3.74-1,.09a13.27,13.27,0,0,0-11.87,14.42,13.46,13.46,0,0,0,6.57,10.26l.64.39,31.55,11.3,1.38.2a14.08,14.08,0,0,0,2.13.16,15,15,0,0,0,11.56-24.35Zm-5.93-1.24-1.19,1.82,2.21,2.37a9.34,9.34,0,0,1-7.62,15.75l-1.18-.1-31-10.93a7.7,7.7,0,0,1-3.43-4.73,7.55,7.55,0,0,1,.9-5.79,7.74,7.74,0,0,1,8.06-3.55l3.12.62.11-1.89h0a7.86,7.86,0,0,1,8.07-7.59,8,8,0,0,1,4.31,1.47l2.2,1.61,2.33-1.73A9.26,9.26,0,0,1,1372.21,348Z"/><path d="M1518.59,349.28l.11-.23a15.18,15.18,0,0,0-21.12-19.45l-.62.33-2.23-.78a13.51,13.51,0,0,0-16.71,7.11l-.3.74-1,.09a13.28,13.28,0,0,0-11.87,14.42,13.44,13.44,0,0,0,6.58,10.26l.64.39,31.54,11.3,1.39.2a13.89,13.89,0,0,0,2.13.16,15,15,0,0,0,11.56-24.35Zm-5.93-1.24-1.19,1.82,2.22,2.37a9.35,9.35,0,0,1-7.62,15.75l-1.18-.1-31-10.93a7.74,7.74,0,0,1-3.43-4.73,7.55,7.55,0,0,1,.91-5.79,7.72,7.72,0,0,1,8.06-3.55l3.12.62.1-1.89h0a7.87,7.87,0,0,1,2.49-5.46,7.65,7.65,0,0,1,5.58-2.13,7.93,7.93,0,0,1,4.31,1.47l2.21,1.61,2.33-1.73a9.26,9.26,0,0,1,13.1,12.68Z"/><path d="M1659.05,349.28l.11-.23A15.18,15.18,0,0,0,1638,329.6l-.63.33-2.23-.78a13.5,13.5,0,0,0-16.7,7.11l-.3.74-1,.09a13.27,13.27,0,0,0-11.87,14.42,13.46,13.46,0,0,0,6.57,10.26l.64.39,31.55,11.3,1.38.2a14.08,14.08,0,0,0,2.13.16,15,15,0,0,0,11.56-24.35Zm-5.93-1.24-1.19,1.82,2.21,2.37a9.37,9.37,0,0,1,2.59,6.67,9.24,9.24,0,0,1-2.9,6.52,9.44,9.44,0,0,1-7.31,2.56l-1.18-.1-31-10.93a7.68,7.68,0,0,1,5.53-14.07l3.12.62.11-1.89h0a7.82,7.82,0,0,1,2.48-5.46,7.67,7.67,0,0,1,5.59-2.13,8,8,0,0,1,4.31,1.47l2.2,1.61,2.33-1.73A9.26,9.26,0,0,1,1653.12,348Z"/><path d="M1799.5,349.28l.11-.23a15.18,15.18,0,0,0-21.12-19.45l-.63.33-2.22-.78a13.51,13.51,0,0,0-16.71,7.11l-.3.74-1,.09a13.28,13.28,0,0,0-11.87,14.42,13.46,13.46,0,0,0,6.57,10.26l.65.39,31.54,11.3,1.38.2a14.11,14.11,0,0,0,2.14.16,15,15,0,0,0,11.56-24.35Zm-5.93-1.24-1.19,1.82,2.22,2.37A9.35,9.35,0,0,1,1787,368l-1.19-.1-31-10.93a7.68,7.68,0,0,1,5.54-14.07l3.12.62.1-1.89h0a7.87,7.87,0,0,1,2.49-5.46,7.65,7.65,0,0,1,5.58-2.13,7.93,7.93,0,0,1,4.31,1.47l2.21,1.61,2.33-1.73a9.26,9.26,0,0,1,13.1,12.68Z"/><path d="M1307.91,433.56l.11-.24a15.18,15.18,0,0,0-21.12-19.45l-.63.33-2.23-.78a13.5,13.5,0,0,0-16.7,7.11l-.3.74-1,.09a13.29,13.29,0,0,0-11.87,14.43,13.44,13.44,0,0,0,6.57,10.25l.65.4L1293,457.73l1.38.21a15.5,15.5,0,0,0,2.14.15A15,15,0,0,0,1308,433.74Zm-5.93-1.25-1.19,1.83,2.22,2.37a9.32,9.32,0,0,1,2.58,6.66,9.23,9.23,0,0,1-2.89,6.52,9.4,9.4,0,0,1-7.31,2.56l-1.19-.1-31-10.93a7.68,7.68,0,0,1-3.43-4.72,7.54,7.54,0,0,1,.9-5.79,7.75,7.75,0,0,1,8.07-3.56l3.12.63.1-1.89h0a7.83,7.83,0,0,1,2.49-5.47,7.68,7.68,0,0,1,5.58-2.12,7.87,7.87,0,0,1,4.31,1.46l2.2,1.62,2.34-1.73a9.25,9.25,0,0,1,13.1,12.67Z"/><path d="M1448.37,433.56l.11-.24a15.18,15.18,0,0,0-21.12-19.45l-.63.33-2.23-.78a13.49,13.49,0,0,0-16.7,7.11l-.31.74-1,.09a13.28,13.28,0,0,0-11.87,14.43,13.41,13.41,0,0,0,6.57,10.25l.64.4,31.55,11.29,1.38.21a15.36,15.36,0,0,0,2.13.15,15,15,0,0,0,11.56-24.35Zm-5.94-1.25-1.18,1.83,2.21,2.37a9.28,9.28,0,0,1,2.58,6.66,9.19,9.19,0,0,1-2.89,6.52,9.4,9.4,0,0,1-7.31,2.56l-1.18-.1-31-10.93a7.74,7.74,0,0,1-3.44-4.72,7.59,7.59,0,0,1,.91-5.79,7.74,7.74,0,0,1,8.06-3.56l3.12.63.1-1.89h0a7.88,7.88,0,0,1,2.49-5.47,7.7,7.7,0,0,1,5.58-2.12,7.88,7.88,0,0,1,4.32,1.46l2.2,1.62,2.33-1.73a9.25,9.25,0,0,1,13.1,12.67Z"/><path d="M1588.82,433.56l.11-.24a15.18,15.18,0,0,0-21.12-19.45l-.63.33-2.23-.78a13.5,13.5,0,0,0-16.7,7.11l-.3.74-1,.09a13.29,13.29,0,0,0-11.87,14.43,13.44,13.44,0,0,0,6.57,10.25l.64.4,31.55,11.29,1.38.21a15.5,15.5,0,0,0,2.14.15,15,15,0,0,0,11.55-24.35Zm-5.93-1.25-1.19,1.83,2.21,2.37a9.3,9.3,0,0,1-.3,13.18,9.4,9.4,0,0,1-7.31,2.56l-1.19-.1-31-10.93a7.68,7.68,0,0,1-3.43-4.72,7.54,7.54,0,0,1,.9-5.79,7.75,7.75,0,0,1,8.07-3.56l3.11.63.11-1.89h0a7.83,7.83,0,0,1,2.49-5.47,7.7,7.7,0,0,1,5.58-2.12,7.87,7.87,0,0,1,4.31,1.46l2.2,1.62,2.33-1.73a9.26,9.26,0,0,1,13.11,12.67Z"/><path d="M1729.28,433.56l.1-.24a15.17,15.17,0,0,0-21.11-19.45l-.63.33-2.23-.78a13.49,13.49,0,0,0-16.7,7.11l-.31.74-1,.09a13.26,13.26,0,0,0-5.3,24.68l.64.4,31.55,11.29,1.38.21a15.36,15.36,0,0,0,2.13.15,15,15,0,0,0,11.56-24.35Zm-5.94-1.25-1.19,1.83,2.22,2.37a9.28,9.28,0,0,1,2.58,6.66,9.19,9.19,0,0,1-2.89,6.52,9.4,9.4,0,0,1-7.31,2.56l-1.18-.1-31-10.93a7.72,7.72,0,0,1-3.43-4.72,7.59,7.59,0,0,1,.91-5.79,7.74,7.74,0,0,1,8.06-3.56l3.12.63.1-1.89h0a7.83,7.83,0,0,1,12.39-6.13l2.2,1.62,2.33-1.73a9.25,9.25,0,0,1,13.1,12.67Z"/><path d="M1869.73,433.56l.11-.24a15.18,15.18,0,0,0-21.12-19.45l-.63.33-2.23-.78a13.5,13.5,0,0,0-16.7,7.11l-.3.74-1,.09A13.29,13.29,0,0,0,1816,435.79a13.44,13.44,0,0,0,6.57,10.25l.65.4,31.54,11.29,1.38.21a15.5,15.5,0,0,0,2.14.15,15,15,0,0,0,11.55-24.35Zm-5.93-1.25-1.19,1.83,2.21,2.37a9.3,9.3,0,0,1-.3,13.18,9.43,9.43,0,0,1-7.32,2.56l-1.18-.1-31-10.93a7.68,7.68,0,0,1-3.43-4.72,7.54,7.54,0,0,1,.9-5.79,7.74,7.74,0,0,1,8.06-3.56l3.12.63.11-1.89h0a7.86,7.86,0,0,1,2.48-5.47,7.72,7.72,0,0,1,5.59-2.12,7.87,7.87,0,0,1,4.31,1.46l2.2,1.62,2.33-1.73a9.26,9.26,0,0,1,13.11,12.67Z"/><path d="M1167.46,433.56l.11-.24a15.18,15.18,0,0,0-21.12-19.45l-.63.33-2.23-.78a13.5,13.5,0,0,0-16.7,7.11l-.31.74-1,.09a13.28,13.28,0,0,0-11.87,14.43,13.41,13.41,0,0,0,6.57,10.25l.64.4,31.55,11.29,1.38.21a15.36,15.36,0,0,0,2.13.15,15,15,0,0,0,11.56-24.35Zm-5.94-1.25-1.18,1.83,2.21,2.37a9.28,9.28,0,0,1,2.58,6.66,9.19,9.19,0,0,1-2.89,6.52,9.39,9.39,0,0,1-7.31,2.56l-1.18-.1-31-10.93a7.68,7.68,0,0,1-3.43-4.72,7.54,7.54,0,0,1,.9-5.79,7.74,7.74,0,0,1,8.06-3.56l3.12.63.1-1.89h0a7.82,7.82,0,0,1,2.48-5.47,7.7,7.7,0,0,1,5.58-2.12,7.88,7.88,0,0,1,4.32,1.46l2.2,1.62,2.33-1.73a9.25,9.25,0,0,1,13.1,12.67Z"/><path d="M1237.68,517.83l.11-.23a15.17,15.17,0,0,0-21.11-19.46l-.63.34-2.23-.79a13.51,13.51,0,0,0-16.71,7.11l-.3.75-1,.08A13.29,13.29,0,0,0,1184,520.06a13.43,13.43,0,0,0,6.58,10.25l.64.4L1222.74,542l1.38.21a15.25,15.25,0,0,0,2.13.15A15,15,0,0,0,1237.81,518Zm-5.93-1.25-1.19,1.83,2.22,2.37a9.34,9.34,0,0,1-7.62,15.74l-1.18-.1-31-10.93a7.68,7.68,0,0,1,5.54-14.06l3.12.62.1-1.89h0a7.83,7.83,0,0,1,12.38-6.13l2.21,1.62,2.33-1.73a9.25,9.25,0,0,1,13.1,12.67Z"/><path d="M1378.14,517.83l.11-.23a15.18,15.18,0,0,0-21.12-19.46l-.63.34-2.23-.79a13.5,13.5,0,0,0-16.7,7.11l-.3.75-1,.08a13.28,13.28,0,0,0-11.87,14.43,13.44,13.44,0,0,0,6.57,10.25l.64.4L1363.19,542l1.38.21a15.47,15.47,0,0,0,2.13.15A15,15,0,0,0,1378.26,518Zm-5.93-1.25-1.19,1.83,2.21,2.37a9.34,9.34,0,0,1-7.62,15.74l-1.18-.1-31-10.93a7.68,7.68,0,0,1-3.43-4.72,7.54,7.54,0,0,1,.9-5.79,7.72,7.72,0,0,1,8.06-3.55l3.12.62.11-1.89h0a7.86,7.86,0,0,1,8.07-7.59,8,8,0,0,1,4.31,1.46l2.2,1.62,2.33-1.73a9.26,9.26,0,0,1,13.11,12.67Z"/><path d="M1518.59,517.83l.11-.23a15.18,15.18,0,0,0-21.12-19.46l-.62.34-2.23-.79A13.51,13.51,0,0,0,1478,504.8l-.3.75-1,.08a13.29,13.29,0,0,0-11.87,14.43,13.43,13.43,0,0,0,6.58,10.25l.64.4L1503.64,542l1.39.21a15.25,15.25,0,0,0,2.13.15A15,15,0,0,0,1518.72,518Zm-5.93-1.25-1.19,1.83,2.22,2.37a9.34,9.34,0,0,1-7.62,15.74l-1.18-.1-31-10.93a7.72,7.72,0,0,1-3.43-4.72,7.54,7.54,0,0,1,.91-5.79,7.71,7.71,0,0,1,8.06-3.55l3.12.62.1-1.89h0A7.83,7.83,0,0,1,1495,504l2.21,1.62,2.33-1.73a9.25,9.25,0,0,1,13.1,12.67Z"/><path d="M1659.05,517.83l.11-.23A15.18,15.18,0,0,0,1638,498.14l-.63.34-2.23-.79a13.5,13.5,0,0,0-16.7,7.11l-.3.75-1,.08a13.28,13.28,0,0,0-11.87,14.43,13.44,13.44,0,0,0,6.57,10.25l.64.4L1644.1,542l1.38.21a15.47,15.47,0,0,0,2.13.15A15,15,0,0,0,1659.17,518Zm-5.93-1.25-1.19,1.83,2.21,2.37a9.34,9.34,0,0,1-7.62,15.74l-1.18-.1-31-10.93a7.68,7.68,0,0,1,5.53-14.06l3.12.62.11-1.89h0a7.86,7.86,0,0,1,8.07-7.59,8,8,0,0,1,4.31,1.46l2.2,1.62,2.33-1.73a9.26,9.26,0,0,1,13.11,12.67Z"/><path d="M1799.5,517.83l.11-.23a15.18,15.18,0,0,0-21.12-19.46l-.63.34-2.22-.79a13.51,13.51,0,0,0-16.71,7.11l-.3.75-1,.08a13.29,13.29,0,0,0-11.87,14.43,13.44,13.44,0,0,0,6.57,10.25l.65.4L1784.55,542l1.38.21a15.5,15.5,0,0,0,2.14.15A15,15,0,0,0,1799.63,518Zm-5.93-1.25-1.19,1.83,2.22,2.37a9.34,9.34,0,0,1-7.62,15.74l-1.19-.1-31-10.93a7.68,7.68,0,0,1,5.54-14.06l3.12.62.1-1.89h0a7.89,7.89,0,0,1,2.49-5.47,7.72,7.72,0,0,1,5.58-2.12,7.9,7.9,0,0,1,4.31,1.46l2.21,1.62,2.33-1.73a9.25,9.25,0,0,1,13.1,12.67Z"/><path d="M1307.91,602.1l.11-.23a15.17,15.17,0,0,0-21.12-19.45l-.63.33L1284,582a13.52,13.52,0,0,0-16.7,7.12l-.3.74-1,.08a13.29,13.29,0,0,0-11.87,14.43,13.46,13.46,0,0,0,6.57,10.26l.65.39L1293,626.27l1.38.21a15.5,15.5,0,0,0,2.14.15A15,15,0,0,0,1308,602.29Zm-5.93-1.24-1.19,1.82,2.22,2.37a9.35,9.35,0,0,1,2.58,6.67,9.24,9.24,0,0,1-2.89,6.52,9.41,9.41,0,0,1-7.31,2.55l-1.19-.09-31-10.94a7.66,7.66,0,0,1-3.43-4.72,7.55,7.55,0,0,1,.9-5.79,7.75,7.75,0,0,1,8.07-3.55l3.12.62.1-1.89h0a7.83,7.83,0,0,1,2.49-5.46,7.69,7.69,0,0,1,5.58-2.13,7.88,7.88,0,0,1,4.31,1.47l2.2,1.61,2.34-1.73a9.26,9.26,0,0,1,13.1,12.68Z"/><path d="M1448.37,602.1l.11-.23a15.17,15.17,0,0,0-21.12-19.45l-.63.33-2.23-.79a13.51,13.51,0,0,0-16.7,7.12l-.31.74-1,.08a13.28,13.28,0,0,0-11.87,14.43,13.43,13.43,0,0,0,6.57,10.26l.64.39,31.55,11.29,1.38.21a15.36,15.36,0,0,0,2.13.15,15,15,0,0,0,11.56-24.34Zm-5.94-1.24-1.18,1.82,2.21,2.37a9.3,9.3,0,0,1,2.58,6.67,9.2,9.2,0,0,1-2.89,6.52,9.4,9.4,0,0,1-7.31,2.55l-1.18-.09-31-10.94a7.71,7.71,0,0,1-3.44-4.72,7.59,7.59,0,0,1,.91-5.79,7.73,7.73,0,0,1,8.06-3.55l3.12.62.1-1.89h0a7.87,7.87,0,0,1,2.49-5.46,7.75,7.75,0,0,1,5.58-2.13,7.89,7.89,0,0,1,4.32,1.47l2.2,1.61,2.33-1.73a9.26,9.26,0,0,1,13.1,12.68Z"/><path d="M1588.82,602.1l.11-.23a15.17,15.17,0,0,0-21.12-19.45l-.63.33L1565,582a13.52,13.52,0,0,0-16.7,7.12l-.3.74-1,.08a13.29,13.29,0,0,0-11.87,14.43,13.46,13.46,0,0,0,6.57,10.26l.65.39,31.54,11.29,1.38.21a15.5,15.5,0,0,0,2.14.15,15,15,0,0,0,11.55-24.34Zm-5.93-1.24-1.19,1.82,2.21,2.37a9.33,9.33,0,0,1-7.61,15.74l-1.19-.09-31-10.94a7.66,7.66,0,0,1-3.43-4.72,7.55,7.55,0,0,1,.9-5.79,7.75,7.75,0,0,1,8.07-3.55l3.11.62.11-1.89h0a7.83,7.83,0,0,1,2.49-5.46,7.71,7.71,0,0,1,5.58-2.13,7.88,7.88,0,0,1,4.31,1.47l2.2,1.61,2.33-1.73a9.26,9.26,0,0,1,13.11,12.68Z"/><path d="M1729.28,602.1l.1-.23a15.17,15.17,0,0,0-21.11-19.45l-.63.33-2.23-.79a13.5,13.5,0,0,0-16.7,7.12l-.31.74-1,.08a13.27,13.27,0,0,0-5.3,24.69l.64.39,31.55,11.29,1.38.21a15.36,15.36,0,0,0,2.13.15,15,15,0,0,0,11.56-24.34Zm-5.94-1.24-1.19,1.82,2.22,2.37a9.3,9.3,0,0,1,2.58,6.67,9.2,9.2,0,0,1-2.89,6.52,9.4,9.4,0,0,1-7.31,2.55l-1.18-.09-31-10.94a7.69,7.69,0,0,1-3.43-4.72,7.59,7.59,0,0,1,.91-5.79,7.73,7.73,0,0,1,8.06-3.55l3.12.62.1-1.89h0a7.87,7.87,0,0,1,2.49-5.46,7.69,7.69,0,0,1,5.58-2.13,7.89,7.89,0,0,1,4.32,1.47l2.2,1.61,2.33-1.73a9.26,9.26,0,0,1,13.1,12.68Z"/><path d="M1869.73,602.1l.11-.23a15.17,15.17,0,0,0-21.12-19.45l-.63.33-2.23-.79a13.51,13.51,0,0,0-16.7,7.12l-.3.74-1,.08A13.29,13.29,0,0,0,1816,604.33a13.46,13.46,0,0,0,6.57,10.26l.65.39,31.54,11.29,1.38.21a15.5,15.5,0,0,0,2.14.15,15,15,0,0,0,11.55-24.34Zm-5.93-1.24-1.19,1.82,2.21,2.37a9.31,9.31,0,0,1-.3,13.19,9.43,9.43,0,0,1-7.32,2.55l-1.18-.09-31-10.94a7.66,7.66,0,0,1-3.43-4.72,7.55,7.55,0,0,1,.9-5.79,7.74,7.74,0,0,1,8.06-3.55l3.12.62.11-1.89h0a7.86,7.86,0,0,1,2.48-5.46,7.73,7.73,0,0,1,5.59-2.13,7.88,7.88,0,0,1,4.31,1.47l2.2,1.61,2.33-1.73a9.26,9.26,0,0,1,13.11,12.68Z"/><path d="M1167.46,602.1l.11-.23a15.17,15.17,0,0,0-21.12-19.45l-.63.33-2.23-.79a13.5,13.5,0,0,0-16.7,7.12l-.31.74-1,.08a13.28,13.28,0,0,0-11.87,14.43,13.43,13.43,0,0,0,6.57,10.26l.64.39,31.55,11.29,1.38.21a15.36,15.36,0,0,0,2.13.15,15,15,0,0,0,11.56-24.34Zm-5.94-1.24-1.18,1.82,2.21,2.37a9.3,9.3,0,0,1,2.58,6.67,9.2,9.2,0,0,1-2.89,6.52,9.4,9.4,0,0,1-7.31,2.55l-1.18-.09-31-10.94a7.66,7.66,0,0,1-3.43-4.72,7.55,7.55,0,0,1,.9-5.79,7.73,7.73,0,0,1,8.06-3.55l3.12.62.1-1.89h0A7.82,7.82,0,0,1,1134,589a7.71,7.71,0,0,1,5.58-2.13,7.89,7.89,0,0,1,4.32,1.47l2.2,1.61,2.33-1.73a9.26,9.26,0,0,1,13.1,12.68Z"/><path d="M1237.68,690.33l.11-.23a15.17,15.17,0,0,0-21.11-19.45l-.63.33-2.23-.78a13.51,13.51,0,0,0-16.71,7.11l-.3.74-1,.09A13.28,13.28,0,0,0,1184,692.56a13.44,13.44,0,0,0,6.58,10.26l.64.39,31.55,11.3,1.38.2a15.25,15.25,0,0,0,2.13.15,15,15,0,0,0,11.56-24.34Zm-5.93-1.24-1.19,1.82,2.22,2.37a9.34,9.34,0,0,1-.31,13.19,9.44,9.44,0,0,1-7.31,2.56l-1.18-.1L1193,698a7.68,7.68,0,0,1,5.54-14.07l3.12.62.1-1.89h0a7.81,7.81,0,0,1,12.38-6.12l2.21,1.61,2.33-1.73a9.26,9.26,0,0,1,13.1,12.68Z"/><path d="M1378.14,690.33l.11-.23a15.17,15.17,0,0,0-21.12-19.45l-.63.33-2.23-.78a13.5,13.5,0,0,0-16.7,7.11l-.3.74-1,.09a13.27,13.27,0,0,0-11.87,14.42,13.46,13.46,0,0,0,6.57,10.26l.64.39,31.55,11.3,1.38.2a15.47,15.47,0,0,0,2.13.15,15,15,0,0,0,11.56-24.34Zm-5.93-1.24-1.19,1.82,2.21,2.37a9.34,9.34,0,0,1-.3,13.19,9.46,9.46,0,0,1-7.32,2.56l-1.18-.1-31-10.93a7.7,7.7,0,0,1-3.43-4.73,7.55,7.55,0,0,1,.9-5.79,7.74,7.74,0,0,1,8.06-3.55l3.12.62.11-1.89h0a7.86,7.86,0,0,1,8.07-7.59,8,8,0,0,1,4.31,1.47l2.2,1.61,2.33-1.73a9.26,9.26,0,0,1,13.11,12.68Z"/><path d="M1518.59,690.33l.11-.23a15.17,15.17,0,0,0-21.12-19.45l-.62.33-2.23-.78a13.51,13.51,0,0,0-16.71,7.11l-.3.74-1,.09a13.28,13.28,0,0,0-11.87,14.42,13.44,13.44,0,0,0,6.58,10.26l.64.39,31.54,11.3,1.39.2a15.25,15.25,0,0,0,2.13.15,15,15,0,0,0,11.56-24.34Zm-5.93-1.24-1.19,1.82,2.22,2.37a9.34,9.34,0,0,1-.31,13.19,9.44,9.44,0,0,1-7.31,2.56l-1.18-.1-31-10.93a7.74,7.74,0,0,1-3.43-4.73,7.55,7.55,0,0,1,.91-5.79,7.72,7.72,0,0,1,8.06-3.55l3.12.62.1-1.89h0a7.87,7.87,0,0,1,2.49-5.46,7.69,7.69,0,0,1,5.58-2.13,7.93,7.93,0,0,1,4.31,1.47l2.21,1.61,2.33-1.73a9.26,9.26,0,0,1,13.1,12.68Z"/><path d="M1659.05,690.33l.11-.23A15.17,15.17,0,0,0,1638,670.65l-.63.33-2.23-.78a13.5,13.5,0,0,0-16.7,7.11l-.3.74-1,.09a13.27,13.27,0,0,0-11.87,14.42,13.46,13.46,0,0,0,6.57,10.26l.64.39,31.55,11.3,1.38.2a15.47,15.47,0,0,0,2.13.15,15,15,0,0,0,11.56-24.34Zm-5.93-1.24-1.19,1.82,2.21,2.37a9.36,9.36,0,0,1,2.59,6.67,9.25,9.25,0,0,1-2.9,6.52,9.44,9.44,0,0,1-7.31,2.56l-1.18-.1-31-10.93a7.68,7.68,0,0,1,5.53-14.07l3.12.62.11-1.89h0a7.82,7.82,0,0,1,2.48-5.46,7.71,7.71,0,0,1,5.59-2.13,8,8,0,0,1,4.31,1.47l2.2,1.61,2.33-1.73a9.26,9.26,0,0,1,13.11,12.68Z"/><path d="M1799.5,690.33l.11-.23a15.17,15.17,0,0,0-21.12-19.45l-.63.33-2.22-.78a13.51,13.51,0,0,0-16.71,7.11l-.3.74-1,.09a13.28,13.28,0,0,0-11.87,14.42,13.46,13.46,0,0,0,6.57,10.26l.65.39,31.54,11.3,1.38.2a15.5,15.5,0,0,0,2.14.15,15,15,0,0,0,11.56-24.34Zm-5.93-1.24-1.19,1.82,2.22,2.37a9.34,9.34,0,0,1-.31,13.19A9.44,9.44,0,0,1,1787,709l-1.19-.1-31-10.93a7.68,7.68,0,0,1,5.54-14.07l3.12.62.1-1.89h0a7.87,7.87,0,0,1,2.49-5.46,7.69,7.69,0,0,1,5.58-2.13,7.93,7.93,0,0,1,4.31,1.47l2.21,1.61,2.33-1.73a9.26,9.26,0,0,1,13.1,12.68Z"/><path d="M1260.77,787.09l.65.4L1293,798.78l1.38.21a15.5,15.5,0,0,0,2.14.15A15,15,0,0,0,1308,774.79l-.12-.18.11-.24a15.18,15.18,0,0,0-21.12-19.45l-.63.33-2.23-.78a13.5,13.5,0,0,0-16.7,7.11l-.3.74-1,.09a13.29,13.29,0,0,0-11.87,14.43A13.44,13.44,0,0,0,1260.77,787.09ZM1302,773.36l-1.19,1.83,2.22,2.36a9.36,9.36,0,0,1,2.58,6.67,9.23,9.23,0,0,1-2.89,6.52,9.4,9.4,0,0,1-7.31,2.56l-1.19-.1-31-10.93a7.68,7.68,0,0,1-3.43-4.72,7.57,7.57,0,0,1,.9-5.8,7.75,7.75,0,0,1,8.07-3.55l3.12.62.1-1.88h0a7.83,7.83,0,0,1,2.49-5.47,7.68,7.68,0,0,1,5.58-2.12,7.87,7.87,0,0,1,4.31,1.46l2.2,1.61,2.34-1.72a9.25,9.25,0,0,1,13.1,12.67Z"/><path d="M1401.23,787.09l.64.4,31.55,11.29,1.38.21a15.36,15.36,0,0,0,2.13.15,15,15,0,0,0,11.56-24.35l-.12-.18.11-.24a15.18,15.18,0,0,0-21.12-19.45l-.63.33-2.23-.78a13.49,13.49,0,0,0-16.7,7.11l-.31.74-1,.09a13.28,13.28,0,0,0-11.87,14.43A13.41,13.41,0,0,0,1401.23,787.09Zm41.2-13.73-1.18,1.83,2.21,2.36a9.32,9.32,0,0,1,2.58,6.67,9.19,9.19,0,0,1-2.89,6.52,9.4,9.4,0,0,1-7.31,2.56l-1.18-.1-31-10.93a7.74,7.74,0,0,1-3.44-4.72,7.62,7.62,0,0,1,.91-5.8,7.75,7.75,0,0,1,8.06-3.55l3.12.62.1-1.88h0a7.88,7.88,0,0,1,2.49-5.47,7.66,7.66,0,0,1,5.58-2.12,7.88,7.88,0,0,1,4.32,1.46l2.2,1.61,2.33-1.72a9.25,9.25,0,0,1,13.1,12.67Z"/><path d="M1541.68,787.09l.64.4,31.55,11.29,1.38.21a15.5,15.5,0,0,0,2.14.15,15,15,0,0,0,11.55-24.35l-.12-.18.11-.24a15.18,15.18,0,0,0-21.12-19.45l-.63.33-2.23-.78a13.5,13.5,0,0,0-16.7,7.11l-.3.74-1,.09a13.29,13.29,0,0,0-11.87,14.43A13.46,13.46,0,0,0,1541.68,787.09Zm41.21-13.73-1.19,1.83,2.21,2.36a9.33,9.33,0,0,1,2.59,6.67,9.23,9.23,0,0,1-2.89,6.52,9.4,9.4,0,0,1-7.31,2.56l-1.19-.1-31-10.93a7.68,7.68,0,0,1,5.54-14.07l3.11.62.11-1.88h0a7.83,7.83,0,0,1,2.49-5.47,7.7,7.7,0,0,1,5.58-2.12,7.87,7.87,0,0,1,4.31,1.46l2.2,1.61,2.33-1.72a9.26,9.26,0,0,1,13.11,12.67Z"/><path d="M1682.14,787.09l.64.4,31.55,11.29,1.38.21a15.36,15.36,0,0,0,2.13.15,15,15,0,0,0,11.56-24.35l-.12-.18.1-.24a15.17,15.17,0,0,0-21.11-19.45l-.63.33-2.23-.78a13.49,13.49,0,0,0-16.7,7.11l-.31.74-1,.09a13.26,13.26,0,0,0-5.3,24.68Zm41.2-13.73-1.19,1.83,2.22,2.36a9.32,9.32,0,0,1,2.58,6.67,9.19,9.19,0,0,1-2.89,6.52,9.39,9.39,0,0,1-7.31,2.56l-1.18-.1-31-10.93a7.72,7.72,0,0,1-3.43-4.72,7.62,7.62,0,0,1,.91-5.8,7.74,7.74,0,0,1,8.06-3.55l3.12.63.1-1.89h0a7.83,7.83,0,0,1,12.39-6.13l2.2,1.61,2.33-1.72a9.25,9.25,0,0,1,13.1,12.67Z"/><path d="M1822.59,787.09l.65.4,31.54,11.29,1.38.21a15.5,15.5,0,0,0,2.14.15,15,15,0,0,0,11.55-24.35l-.12-.18.11-.24a15.18,15.18,0,0,0-21.12-19.45l-.63.33-2.23-.78a13.5,13.5,0,0,0-16.7,7.11l-.3.74-1,.09A13.29,13.29,0,0,0,1816,776.84,13.46,13.46,0,0,0,1822.59,787.09Zm41.21-13.73-1.19,1.83,2.21,2.36a9.33,9.33,0,0,1,2.59,6.67,9.23,9.23,0,0,1-2.89,6.52,9.41,9.41,0,0,1-7.32,2.56l-1.18-.1-31-10.93a7.68,7.68,0,0,1-3.43-4.72,7.57,7.57,0,0,1,.9-5.8,7.74,7.74,0,0,1,8.06-3.55l3.12.63.11-1.89h0a7.86,7.86,0,0,1,2.48-5.47,7.72,7.72,0,0,1,5.59-2.12,7.87,7.87,0,0,1,4.31,1.46l2.2,1.61,2.33-1.72a9.26,9.26,0,0,1,13.11,12.67Z"/><path d="M1120.32,787.09l.64.4,31.55,11.29,1.38.21a15.36,15.36,0,0,0,2.13.15,15,15,0,0,0,11.56-24.35l-.12-.18.11-.24a15.18,15.18,0,0,0-21.12-19.45l-.63.33-2.23-.78a13.5,13.5,0,0,0-16.7,7.11l-.31.74-1,.09a13.28,13.28,0,0,0-11.87,14.43A13.43,13.43,0,0,0,1120.32,787.09Zm41.2-13.73-1.18,1.83,2.21,2.36a9.32,9.32,0,0,1,2.58,6.67,9.19,9.19,0,0,1-2.89,6.52,9.39,9.39,0,0,1-7.31,2.56l-1.18-.1-31-10.93a7.68,7.68,0,0,1-3.43-4.72,7.57,7.57,0,0,1,.9-5.8,7.74,7.74,0,0,1,8.06-3.55l3.12.63.1-1.89h0a7.82,7.82,0,0,1,2.48-5.47,7.7,7.7,0,0,1,5.58-2.12,7.88,7.88,0,0,1,4.32,1.46l2.2,1.61,2.33-1.72a9.25,9.25,0,0,1,13.1,12.67Z"/><path d="M1237.68,858.88l.11-.23a15.17,15.17,0,0,0-21.11-19.46l-.63.34-2.23-.79a13.51,13.51,0,0,0-16.71,7.11l-.3.75-1,.08A13.29,13.29,0,0,0,1184,861.11a13.43,13.43,0,0,0,6.58,10.25l.64.4,31.55,11.29,1.38.21a15.25,15.25,0,0,0,2.13.15,15,15,0,0,0,11.56-24.35Zm-5.93-1.25-1.19,1.83,2.22,2.37a9.34,9.34,0,0,1-7.62,15.74l-1.18-.1-31-10.93a7.69,7.69,0,0,1,5.54-14.07l3.12.63.1-1.89h0a7.83,7.83,0,0,1,12.38-6.13l2.21,1.62,2.33-1.73a9.25,9.25,0,0,1,13.1,12.67Z"/><path d="M1378.14,858.88l.11-.23a15.18,15.18,0,0,0-21.12-19.46l-.63.34-2.23-.79a13.5,13.5,0,0,0-16.7,7.11l-.3.75-1,.08a13.28,13.28,0,0,0-11.87,14.43,13.44,13.44,0,0,0,6.57,10.25l.64.4,31.55,11.29,1.38.21a15.47,15.47,0,0,0,2.13.15,15,15,0,0,0,11.56-24.35Zm-5.93-1.25-1.19,1.83,2.21,2.37a9.33,9.33,0,0,1-.3,13.18,9.43,9.43,0,0,1-7.32,2.56l-1.18-.1-31-10.93a7.68,7.68,0,0,1-3.43-4.72,7.54,7.54,0,0,1,.9-5.79,7.74,7.74,0,0,1,8.06-3.56l3.12.63.11-1.89h0a7.83,7.83,0,0,1,12.38-6.13l2.2,1.62,2.33-1.73a9.26,9.26,0,0,1,13.11,12.67Z"/><path d="M1518.59,858.88l.11-.23a15.18,15.18,0,0,0-21.12-19.46l-.62.34-2.23-.79a13.51,13.51,0,0,0-16.71,7.11l-.3.75-1,.08a13.29,13.29,0,0,0-11.87,14.43,13.43,13.43,0,0,0,6.58,10.25l.64.4,31.54,11.29,1.39.21a15.25,15.25,0,0,0,2.13.15,15,15,0,0,0,11.56-24.35Zm-5.93-1.25-1.19,1.83,2.22,2.37a9.34,9.34,0,0,1-7.62,15.74l-1.18-.1-31-10.93a7.72,7.72,0,0,1-3.43-4.72,7.54,7.54,0,0,1,.91-5.79,7.73,7.73,0,0,1,8.06-3.56l3.12.63.1-1.89h0a7.83,7.83,0,0,1,12.38-6.13l2.21,1.62,2.33-1.73a9.25,9.25,0,0,1,13.1,12.67Z"/><path d="M1659.05,858.88l.11-.23A15.18,15.18,0,0,0,1638,839.19l-.63.34-2.23-.79a13.5,13.5,0,0,0-16.7,7.11l-.3.75-1,.08a13.28,13.28,0,0,0-11.87,14.43,13.44,13.44,0,0,0,6.57,10.25l.64.4,31.55,11.29,1.38.21a15.47,15.47,0,0,0,2.13.15,15,15,0,0,0,11.56-24.35Zm-5.93-1.25-1.19,1.83,2.21,2.37a9.35,9.35,0,0,1,2.59,6.66,9.22,9.22,0,0,1-2.9,6.52,9.39,9.39,0,0,1-7.31,2.56l-1.18-.1-31-10.93a7.68,7.68,0,0,1,5.53-14.07l3.12.63.11-1.89h0a7.82,7.82,0,0,1,2.48-5.47,7.71,7.71,0,0,1,5.59-2.12,7.87,7.87,0,0,1,4.31,1.46l2.2,1.62L1640,845a9.26,9.26,0,0,1,13.11,12.67Z"/><path d="M1799.5,858.88l.11-.23a15.18,15.18,0,0,0-21.12-19.46l-.63.34-2.22-.79a13.51,13.51,0,0,0-16.71,7.11l-.3.75-1,.08a13.29,13.29,0,0,0-11.87,14.43,13.44,13.44,0,0,0,6.57,10.25l.65.4,31.54,11.29,1.39.21a15.25,15.25,0,0,0,2.13.15,15,15,0,0,0,11.56-24.35Zm-5.93-1.25-1.19,1.83,2.22,2.37a9.34,9.34,0,0,1-7.62,15.74l-1.19-.1-31-10.93a7.68,7.68,0,0,1,5.54-14.07l3.12.63.1-1.89h0a7.83,7.83,0,0,1,12.38-6.13l2.21,1.62,2.33-1.73a9.25,9.25,0,0,1,13.1,12.67Z"/><path d="M1307.91,943.15l.11-.23a15.17,15.17,0,0,0-21.12-19.45l-.63.33L1284,923a13.51,13.51,0,0,0-16.7,7.12l-.3.74-1,.08a13.29,13.29,0,0,0-11.87,14.43,13.47,13.47,0,0,0,6.57,10.26l.65.39L1293,967.32l1.38.21a15.5,15.5,0,0,0,2.14.15A15,15,0,0,0,1308,943.34Zm-5.93-1.24-1.19,1.82,2.22,2.37a9.32,9.32,0,0,1-.31,13.19,9.43,9.43,0,0,1-7.31,2.55l-1.19-.1-31-10.93a7.68,7.68,0,0,1,5.54-14.06l3.12.62.1-1.89h0a7.83,7.83,0,0,1,2.49-5.46,7.65,7.65,0,0,1,5.58-2.13,8,8,0,0,1,4.31,1.46l2.2,1.62,2.34-1.73a9.26,9.26,0,0,1,13.1,12.68Z"/><path d="M1448.37,943.15l.11-.23a15.17,15.17,0,0,0-21.12-19.45l-.63.33-2.23-.79a13.5,13.5,0,0,0-16.7,7.12l-.31.74-1,.08a13.28,13.28,0,0,0-11.87,14.43,13.45,13.45,0,0,0,6.57,10.26l.64.39,31.55,11.29,1.38.21a15.36,15.36,0,0,0,2.13.15,15,15,0,0,0,11.56-24.34Zm-5.94-1.24-1.18,1.82,2.21,2.37a9.34,9.34,0,0,1-7.62,15.74l-1.18-.1-31-10.93a7.68,7.68,0,0,1,5.53-14.06l3.12.62.1-1.89h0a7.87,7.87,0,0,1,2.49-5.46,7.64,7.64,0,0,1,5.58-2.13,8,8,0,0,1,4.32,1.46L1427,931l2.33-1.73a9.26,9.26,0,0,1,13.1,12.68Z"/><path d="M1588.82,943.15l.11-.23a15.17,15.17,0,0,0-21.12-19.45l-.63.33L1565,923a13.51,13.51,0,0,0-16.7,7.12l-.3.74-1,.08a13.29,13.29,0,0,0-11.87,14.43,13.47,13.47,0,0,0,6.57,10.26l.65.39,31.54,11.29,1.38.21a15.5,15.5,0,0,0,2.14.15,15,15,0,0,0,11.55-24.34Zm-5.93-1.24-1.19,1.82,2.21,2.37a9.33,9.33,0,0,1-.3,13.19,9.43,9.43,0,0,1-7.31,2.55l-1.19-.1-31-10.93a7.68,7.68,0,0,1,5.54-14.06l3.11.62.11-1.89h0a7.84,7.84,0,0,1,8.07-7.59,8,8,0,0,1,4.31,1.46l2.2,1.62,2.33-1.73a9.26,9.26,0,0,1,13.11,12.68Z"/><path d="M1729.28,943.15l.1-.23a15.17,15.17,0,0,0-21.11-19.45l-.63.33-2.23-.79a13.5,13.5,0,0,0-16.7,7.12l-.31.74-1,.08a13.28,13.28,0,0,0-11.87,14.43,13.42,13.42,0,0,0,6.57,10.26l.64.39,31.55,11.29,1.38.21a15.36,15.36,0,0,0,2.13.15,15,15,0,0,0,11.56-24.34Zm-5.94-1.24-1.19,1.82,2.22,2.37a9.34,9.34,0,0,1-7.62,15.74l-1.18-.1-31-10.93a7.69,7.69,0,0,1-3.43-4.72,7.59,7.59,0,0,1,.91-5.79,7.73,7.73,0,0,1,8.06-3.55l3.12.62.1-1.89h0a7.84,7.84,0,0,1,8.07-7.59,8,8,0,0,1,4.32,1.46l2.2,1.62,2.33-1.73a9.26,9.26,0,0,1,13.1,12.68Z"/><path d="M1869.73,943.15l.11-.23a15.17,15.17,0,0,0-21.12-19.45l-.63.33-2.23-.79a13.51,13.51,0,0,0-16.7,7.12l-.3.74-1,.08A13.29,13.29,0,0,0,1816,945.38a13.47,13.47,0,0,0,6.57,10.26l.65.39,31.54,11.29,1.38.21a15.5,15.5,0,0,0,2.14.15,15,15,0,0,0,11.55-24.34Zm-5.93-1.24-1.19,1.82,2.21,2.37a9.31,9.31,0,0,1-.3,13.19,9.44,9.44,0,0,1-7.32,2.55l-1.18-.1-31-10.93a7.68,7.68,0,0,1,5.53-14.06l3.12.62.11-1.89h0a7.83,7.83,0,0,1,8.07-7.59,8,8,0,0,1,4.31,1.46l2.2,1.62,2.33-1.73a9.26,9.26,0,0,1,13.11,12.68Z"/><path d="M1167.46,943.15l.11-.23a15.17,15.17,0,0,0-21.12-19.45l-.63.33-2.23-.79a13.5,13.5,0,0,0-16.7,7.12l-.31.74-1,.08a13.28,13.28,0,0,0-11.87,14.43,13.45,13.45,0,0,0,6.57,10.26l.64.39,31.55,11.29,1.38.21a15.36,15.36,0,0,0,2.13.15,15,15,0,0,0,11.56-24.34Zm-5.94-1.24-1.18,1.82,2.21,2.37a9.34,9.34,0,0,1-7.62,15.74l-1.18-.1-31-10.93a7.66,7.66,0,0,1-3.43-4.72,7.54,7.54,0,0,1,.9-5.79,7.73,7.73,0,0,1,8.06-3.55l3.12.62.1-1.89h0a7.83,7.83,0,0,1,8.06-7.59,8,8,0,0,1,4.32,1.46l2.2,1.62,2.33-1.73a9.26,9.26,0,0,1,13.1,12.68Z"/><path d="M78.4,1012.15a8,8,0,0,1,4.31,1.47l2.2,1.61h0l2.33-1.73a9,9,0,0,1,11.88.86,11,11,0,0,1,.81.87h6.52a15.12,15.12,0,0,0-21.19-7.49l-.63.33-2.22-.78a13.51,13.51,0,0,0-16.71,7.11l-.3.74-1,.09H72A7.8,7.8,0,0,1,78.4,1012.15Z"/><path d="M218.86,1012.15a8,8,0,0,1,4.31,1.47l2.2,1.61h0l2.33-1.73a9,9,0,0,1,11.88.86,9.39,9.39,0,0,1,.81.87h6.53a15.12,15.12,0,0,0-21.19-7.49l-.63.33-2.23-.78a13.5,13.5,0,0,0-16.7,7.11l-.3.74-1,.09h7.51A7.79,7.79,0,0,1,218.86,1012.15Z"/><path d="M353.73,1014.28a7.65,7.65,0,0,1,5.58-2.13,8,8,0,0,1,4.31,1.47l2.2,1.61h0l2.33-1.73a9,9,0,0,1,11.88.86,9.26,9.26,0,0,1,.8.87h6.53a15.12,15.12,0,0,0-21.19-7.49l-.63.33-2.23-.78a13.5,13.5,0,0,0-16.7,7.11l-.3.74-1,.09h7.52A7.69,7.69,0,0,1,353.73,1014.28Z"/><path d="M494.18,1014.28a7.67,7.67,0,0,1,5.58-2.13,8,8,0,0,1,4.32,1.47l2.2,1.61h0l2.33-1.73a9,9,0,0,1,11.88.86,9.39,9.39,0,0,1,.81.87h6.53a15.12,15.12,0,0,0-21.19-7.49l-.63.33-2.23-.78a13.5,13.5,0,0,0-16.7,7.11l-.31.74-1,.09h7.52A8.48,8.48,0,0,1,494.18,1014.28Z"/><path d="M634.64,1014.28a7.65,7.65,0,0,1,5.58-2.13,8,8,0,0,1,4.31,1.47l2.2,1.61h0l2.33-1.73a9,9,0,0,1,11.88.86,10.84,10.84,0,0,1,.8.87h6.53a15.12,15.12,0,0,0-21.19-7.49l-.63.33-2.23-.78a13.5,13.5,0,0,0-16.7,7.11l-.3.74-1,.09h7.52A7.69,7.69,0,0,1,634.64,1014.28Z"/><path d="M775.09,1014.28a7.65,7.65,0,0,1,5.58-2.13,8,8,0,0,1,4.32,1.47l2.2,1.61h0l2.33-1.73a9,9,0,0,1,11.88.86,9.39,9.39,0,0,1,.81.87h6.53a15.12,15.12,0,0,0-21.19-7.49l-.63.33-2.23-.78a13.49,13.49,0,0,0-16.7,7.11l-.31.74-1,.09h7.52A8.48,8.48,0,0,1,775.09,1014.28Z"/><path d="M921.13,1012.15a8,8,0,0,1,4.31,1.47l2.2,1.61h0l2.32-1.73a9,9,0,0,1,11.89.86,10.84,10.84,0,0,1,.8.87h6.53a15.12,15.12,0,0,0-21.19-7.49l-.63.33-2.23-.78a13.5,13.5,0,0,0-16.7,7.11l-.3.74-1,.09h7.51A7.8,7.8,0,0,1,921.13,1012.15Z"/><path d="M1056,1014.28a7.67,7.67,0,0,1,5.58-2.13,8,8,0,0,1,4.32,1.47l2.2,1.61h0l2.33-1.73a9,9,0,0,1,11.88.86,9.39,9.39,0,0,1,.81.87h6.53a15.12,15.12,0,0,0-21.19-7.49l-.63.33-2.23-.78a13.49,13.49,0,0,0-16.7,7.11l-.31.74-1,.09h7.52A8.48,8.48,0,0,1,1056,1014.28Z"/><path d="M1209.8,1012.15a7.91,7.91,0,0,1,4.31,1.47l2.2,1.61h0l2.33-1.73a9,9,0,0,1,11.88.86,11,11,0,0,1,.81.87h6.52a15.11,15.11,0,0,0-21.18-7.49l-.63.33-2.23-.78a13.51,13.51,0,0,0-16.71,7.11l-.3.74-1,.09h7.52A7.77,7.77,0,0,1,1209.8,1012.15Z"/><path d="M1350.26,1012.15a8,8,0,0,1,4.31,1.47l2.2,1.61h0l2.33-1.73a9,9,0,0,1,11.89.86,10.84,10.84,0,0,1,.8.87h6.53a15.12,15.12,0,0,0-21.19-7.49l-.63.33-2.23-.78a13.5,13.5,0,0,0-16.7,7.11l-.3.74-1,.09h7.51A7.8,7.8,0,0,1,1350.26,1012.15Z"/><path d="M1485.13,1014.28a7.65,7.65,0,0,1,5.58-2.13,7.93,7.93,0,0,1,4.31,1.47l2.2,1.61h0l2.33-1.73a9,9,0,0,1,11.88.86,11,11,0,0,1,.81.87h6.52a15.12,15.12,0,0,0-21.19-7.49l-.62.33-2.23-.78a13.51,13.51,0,0,0-16.71,7.11l-.3.74-1,.09h7.53A6.88,6.88,0,0,1,1485.13,1014.28Z"/><path d="M1625.58,1014.28a7.67,7.67,0,0,1,5.59-2.13,8,8,0,0,1,4.31,1.47l2.2,1.61h0l2.33-1.73a9,9,0,0,1,11.88.86,9.39,9.39,0,0,1,.81.87h6.53a15.12,15.12,0,0,0-21.19-7.49l-.63.33-2.23-.78a13.5,13.5,0,0,0-16.7,7.11l-.3.74-1,.09h7.52A8.48,8.48,0,0,1,1625.58,1014.28Z"/><path d="M1766,1014.28a7.65,7.65,0,0,1,5.58-2.13,7.93,7.93,0,0,1,4.31,1.47l2.2,1.61h0l2.33-1.73a9,9,0,0,1,11.88.86,11,11,0,0,1,.81.87h6.52a15.12,15.12,0,0,0-21.19-7.49l-.63.33-2.22-.78a13.51,13.51,0,0,0-16.71,7.11l-.3.74-1,.09h7.53A6.88,6.88,0,0,1,1766,1014.28Z"/><path d="M0,768.83l.1-1.89h0a7.88,7.88,0,0,1,2.49-5.47,7.75,7.75,0,0,1,5.58-2.13,7.91,7.91,0,0,1,4.31,1.47l2.21,1.61L17,760.69a9,9,0,0,1,11.88.85,9,9,0,0,1,1.22,11.82l-1.18,1.83,2.21,2.36a9.32,9.32,0,0,1,2.58,6.67,9.19,9.19,0,0,1-2.89,6.52,9.4,9.4,0,0,1-7.31,2.56l-1.18-.1-23-8.11V791l21.77,7.79,1.38.21a15.36,15.36,0,0,0,2.13.15,15,15,0,0,0,11.56-24.35l-.12-.18.11-.24a15.18,15.18,0,0,0-21.12-19.45l-.63.33-2.23-.78A13.51,13.51,0,0,0-.66,756.66v12Z"/><path d="M0,937.37l.1-1.89h0a7.83,7.83,0,0,1,12.38-6.13L14.69,931,17,929.23a9,9,0,0,1,11.88.86,9,9,0,0,1,1.22,11.82l-1.18,1.82,2.21,2.37a9.34,9.34,0,0,1-7.62,15.74l-1.18-.1-23-8.11v5.9l21.77,7.79,1.38.21a15.36,15.36,0,0,0,2.13.15,15,15,0,0,0,11.56-24.34l-.12-.19.11-.23a15.17,15.17,0,0,0-21.12-19.45l-.63.33L12.19,923A13.57,13.57,0,0,0-.66,925.2v12Z"/><polygon points="84.92 0 84.91 0 84.92 0 84.92 0"/><path d="M106.28,12.19l.11-.23a15,15,0,0,0,.07-12H99.94a9,9,0,0,1,.41,11l-1.19,1.82,2.22,2.37a9.34,9.34,0,0,1-.31,13.19,9.48,9.48,0,0,1-7.31,2.56l-1.19-.1-31-10.94A7.68,7.68,0,0,1,67.11,5.79l3.12.62.1-1.89h0A7.81,7.81,0,0,1,72,0H64.41A13.29,13.29,0,0,0,52.57,14.42a13.46,13.46,0,0,0,6.57,10.26l.65.39,31.54,11.3,1.38.2a15.5,15.5,0,0,0,2.14.15,14.64,14.64,0,0,0,12.84-7.57,14.76,14.76,0,0,0-1.28-16.77Z"/><polygon points="225.37 0 225.37 0 225.37 0 225.37 0"/><path d="M246.74,12.19l.11-.23a15.07,15.07,0,0,0,.07-12h-6.53a9,9,0,0,1,.41,11l-1.18,1.82,2.21,2.37a9.34,9.34,0,0,1-.31,13.19,9.47,9.47,0,0,1-7.31,2.56l-1.18-.1L202,19.85a7.66,7.66,0,0,1-3.43-4.72,7.55,7.55,0,0,1,.9-5.79,7.73,7.73,0,0,1,8.06-3.55l3.12.62.11-1.89h0A7.87,7.87,0,0,1,212.41,0h-7.55A13.28,13.28,0,0,0,193,14.42a13.46,13.46,0,0,0,6.57,10.26l.64.39,31.55,11.3,1.38.2a15.36,15.36,0,0,0,2.13.15,14.61,14.61,0,0,0,12.84-7.57,14.74,14.74,0,0,0-1.28-16.77Z"/><polygon points="365.83 0 365.82 0 365.82 0 365.83 0"/><path d="M387.19,12.19l.11-.23a15,15,0,0,0,.07-12h-6.52a9,9,0,0,1,.41,11l-1.19,1.82,2.22,2.37A9.34,9.34,0,0,1,382,28.33a9.48,9.48,0,0,1-7.31,2.56l-1.19-.1-31-10.94a7.66,7.66,0,0,1-3.43-4.72,7.55,7.55,0,0,1,.9-5.79A7.75,7.75,0,0,1,348,5.79l3.12.62.1-1.89h0A7.9,7.9,0,0,1,352.87,0h-7.55a13.28,13.28,0,0,0-11.84,14.42,13.46,13.46,0,0,0,6.57,10.26l.65.39,31.54,11.3,1.38.2a15.5,15.5,0,0,0,2.14.15,14.64,14.64,0,0,0,12.84-7.57,14.76,14.76,0,0,0-1.28-16.77Z"/><polygon points="506.28 0 506.28 0 506.28 0 506.28 0"/><path d="M527.65,12.19l.11-.23a15.07,15.07,0,0,0,.07-12H521.3a9,9,0,0,1,.41,11l-1.18,1.82,2.21,2.37a9.3,9.3,0,0,1,2.58,6.67,9.2,9.2,0,0,1-2.89,6.52,9.44,9.44,0,0,1-7.31,2.56l-1.18-.1-31-10.94a7.68,7.68,0,0,1,5.53-14.06l3.12.62.1-1.89h0A7.76,7.76,0,0,1,493.33,0h-7.56a13.28,13.28,0,0,0-11.83,14.42,13.46,13.46,0,0,0,6.57,10.26l.64.39,31.55,11.3,1.38.2a15.36,15.36,0,0,0,2.13.15,14.61,14.61,0,0,0,12.84-7.57,14.74,14.74,0,0,0-1.28-16.77Z"/><polygon points="646.74 0 646.73 0 646.73 0 646.74 0"/><path d="M668.1,12.19l.11-.23a15,15,0,0,0,.07-12h-6.52a9,9,0,0,1,.41,11L661,12.77l2.21,2.37a9.33,9.33,0,0,1-.3,13.19,9.48,9.48,0,0,1-7.31,2.56l-1.19-.1-31-10.94a7.68,7.68,0,0,1,5.54-14.06l3.11.62.11-1.89h0A7.9,7.9,0,0,1,633.78,0h-7.56a13.28,13.28,0,0,0-11.83,14.42A13.46,13.46,0,0,0,621,24.68l.65.39,31.54,11.3,1.38.2a15.5,15.5,0,0,0,2.14.15,14.64,14.64,0,0,0,12.84-7.57,14.75,14.75,0,0,0-1.29-16.77Z"/><path d="M808.56,12.19l.11-.23a15.07,15.07,0,0,0,.07-12h-6.53a9,9,0,0,1,.41,11l-1.18,1.82,2.21,2.37a9.34,9.34,0,0,1-.31,13.19A9.47,9.47,0,0,1,796,30.89l-1.18-.1-31-10.94a7.68,7.68,0,0,1,5.54-14.06l3.12.62.1-1.89h0A7.84,7.84,0,0,1,774.24,0h-7.56a13.27,13.27,0,0,0-5.26,24.68l.64.39,31.55,11.3,1.38.2a15.36,15.36,0,0,0,2.13.15A14.61,14.61,0,0,0,810,29.15a14.74,14.74,0,0,0-1.28-16.77Z"/><polygon points="787.19 0 787.19 0 787.19 0 787.19 0"/><polygon points="927.64 0 927.64 0 927.64 0 927.64 0"/><path d="M949,12.19l.11-.23a15,15,0,0,0,.07-12h-6.53a9,9,0,0,1,.42,11l-1.19,1.82,2.21,2.37a9.34,9.34,0,0,1-.3,13.19,9.49,9.49,0,0,1-7.32,2.56l-1.18-.1-31-10.94a7.66,7.66,0,0,1-3.43-4.72,7.55,7.55,0,0,1,.9-5.79,7.75,7.75,0,0,1,8.07-3.55l3.12.62.1-1.89h0A7.87,7.87,0,0,1,914.68,0h-7.55A13.28,13.28,0,0,0,895.3,14.42a13.46,13.46,0,0,0,6.57,10.26l.65.39,31.54,11.3,1.38.2a15.5,15.5,0,0,0,2.14.15,14.61,14.61,0,0,0,12.83-7.57,14.73,14.73,0,0,0-1.28-16.77Z"/><path d="M1089.47,12.19l.11-.23a15.07,15.07,0,0,0,.07-12h-6.53a9,9,0,0,1,.41,11l-1.18,1.82,2.21,2.37a9.3,9.3,0,0,1,2.58,6.67,9.2,9.2,0,0,1-2.89,6.52,9.48,9.48,0,0,1-7.31,2.56l-1.18-.1-31-10.94a7.68,7.68,0,0,1,5.54-14.06l3.12.62.1-1.89h0A7.84,7.84,0,0,1,1055.15,0h-7.56a13.29,13.29,0,0,0-11.84,14.42,13.44,13.44,0,0,0,6.58,10.26l.64.39,31.55,11.3,1.38.2a15.36,15.36,0,0,0,2.13.15,14.61,14.61,0,0,0,12.84-7.57,14.74,14.74,0,0,0-1.28-16.77Z"/><polygon points="1068.1 0 1068.1 0 1068.1 0 1068.1 0"/><path d="M129.37,109l.64.4,31.55,11.29,1.38.21a15.47,15.47,0,0,0,2.13.15,15,15,0,0,0,11.56-24.35l-.12-.18.11-.24A15.18,15.18,0,0,0,155.5,76.78l-.63.33-2.23-.78a13.5,13.5,0,0,0-16.7,7.11l-.3.74-1,.09A13.28,13.28,0,0,0,122.8,98.69,13.46,13.46,0,0,0,129.37,109Zm-.1-15.34a7.74,7.74,0,0,1,8.06-3.55l3.12.62.11-1.88h0A7.86,7.86,0,0,1,143,83.32a7.77,7.77,0,0,1,5.59-2.13,8,8,0,0,1,4.31,1.47l2.2,1.61,2.33-1.72a9.26,9.26,0,0,1,13.11,12.67l-1.19,1.83,2.21,2.36a9.37,9.37,0,0,1,2.59,6.67,9.23,9.23,0,0,1-2.89,6.52,9.41,9.41,0,0,1-7.32,2.56l-1.18-.1-31-10.93a7.68,7.68,0,0,1-3.43-4.72A7.57,7.57,0,0,1,129.27,93.61Z"/><path d="M269.83,109l.64.4L302,120.64l1.38.21a15.25,15.25,0,0,0,2.13.15,15,15,0,0,0,11.56-24.35l-.13-.18.11-.24A15.17,15.17,0,0,0,296,76.78l-.63.33-2.23-.78a13.49,13.49,0,0,0-16.7,7.11l-.31.74-1,.09a13.28,13.28,0,0,0-11.87,14.42A13.44,13.44,0,0,0,269.83,109Zm-.1-15.34a7.74,7.74,0,0,1,8.06-3.55l3.12.62.1-1.88h0a7.88,7.88,0,0,1,2.49-5.47,7.69,7.69,0,0,1,5.58-2.13,7.91,7.91,0,0,1,4.31,1.47l2.21,1.61,2.33-1.72A9.25,9.25,0,0,1,311,95.22l-1.19,1.83,2.22,2.36a9.32,9.32,0,0,1,2.58,6.67,9.19,9.19,0,0,1-2.89,6.52,9.4,9.4,0,0,1-7.31,2.56l-1.18-.1-31-10.93a7.72,7.72,0,0,1-3.43-4.72A7.62,7.62,0,0,1,269.73,93.61Z"/><path d="M410.28,109l.64.4,31.55,11.29,1.38.21A15.47,15.47,0,0,0,446,121a15,15,0,0,0,11.56-24.35l-.12-.18.11-.24a15.18,15.18,0,0,0-21.12-19.45l-.63.33-2.23-.78a13.5,13.5,0,0,0-16.7,7.11l-.3.74-1,.09a13.27,13.27,0,0,0-11.87,14.42A13.46,13.46,0,0,0,410.28,109Zm-.1-15.34a7.75,7.75,0,0,1,8.06-3.55l3.12.62.11-1.88h0a7.87,7.87,0,0,1,8.07-7.6,8,8,0,0,1,4.31,1.47l2.2,1.61,2.33-1.72a9.26,9.26,0,0,1,13.11,12.67l-1.19,1.83,2.21,2.36a9.37,9.37,0,0,1,2.59,6.67,9.23,9.23,0,0,1-2.89,6.52,9.43,9.43,0,0,1-7.32,2.56l-1.18-.1-31-10.93A7.69,7.69,0,0,1,410.18,93.61Z"/><path d="M550.74,109l.64.4,31.54,11.29,1.39.21a15.25,15.25,0,0,0,2.13.15A15,15,0,0,0,598,96.65l-.13-.18.11-.24a15.18,15.18,0,0,0-21.12-19.45l-.62.33L574,76.33a13.51,13.51,0,0,0-16.71,7.11l-.3.74-1,.09a13.28,13.28,0,0,0-11.87,14.42A13.44,13.44,0,0,0,550.74,109Zm-.1-15.34a7.72,7.72,0,0,1,8.06-3.55l3.12.62.1-1.88h0a7.81,7.81,0,0,1,12.38-6.13l2.21,1.61,2.33-1.72a9.25,9.25,0,0,1,13.1,12.67l-1.19,1.83L593,99.41a9.32,9.32,0,0,1,2.58,6.67,9.19,9.19,0,0,1-2.89,6.52,9.39,9.39,0,0,1-7.31,2.56l-1.18-.1-31-10.93a7.72,7.72,0,0,1-3.43-4.72A7.62,7.62,0,0,1,550.64,93.61Z"/><path d="M691.19,109l.64.4,31.55,11.29,1.38.21a15.47,15.47,0,0,0,2.13.15,15,15,0,0,0,11.56-24.35l-.12-.18.11-.24a15.18,15.18,0,0,0-21.12-19.45l-.63.33-2.23-.78a13.5,13.5,0,0,0-16.7,7.11l-.3.74-1,.09a13.27,13.27,0,0,0-11.87,14.42A13.46,13.46,0,0,0,691.19,109Zm-.1-15.34a7.74,7.74,0,0,1,8.06-3.55l3.12.62.11-1.88h0a7.87,7.87,0,0,1,8.07-7.6,8,8,0,0,1,4.31,1.47l2.2,1.61,2.33-1.72A9.26,9.26,0,0,1,732.4,95.22l-1.19,1.83,2.21,2.36a9.37,9.37,0,0,1,2.59,6.67,9.2,9.2,0,0,1-2.9,6.52,9.39,9.39,0,0,1-7.31,2.56l-1.18-.1-31-10.93a7.68,7.68,0,0,1-3.43-4.72A7.57,7.57,0,0,1,691.09,93.61Z"/><path d="M831.65,109l.64.4,31.54,11.29,1.39.21a15.25,15.25,0,0,0,2.13.15,15,15,0,0,0,11.56-24.35l-.13-.18.11-.24a15.18,15.18,0,0,0-21.12-19.45l-.62.33-2.23-.78a13.51,13.51,0,0,0-16.71,7.11l-.3.74-1,.09a13.28,13.28,0,0,0-11.87,14.42A13.44,13.44,0,0,0,831.65,109Zm-.1-15.34a7.73,7.73,0,0,1,8.06-3.55l3.12.62.1-1.88h0a7.88,7.88,0,0,1,2.49-5.47,7.75,7.75,0,0,1,5.58-2.13,7.91,7.91,0,0,1,4.31,1.47l2.21,1.61,2.33-1.72a9.25,9.25,0,0,1,13.1,12.67l-1.19,1.83,2.22,2.36a9.32,9.32,0,0,1,2.58,6.67,9.19,9.19,0,0,1-2.89,6.52,9.4,9.4,0,0,1-7.31,2.56l-1.18-.1-31-10.93a7.68,7.68,0,0,1-3.43-4.72A7.58,7.58,0,0,1,831.55,93.61Z"/><path d="M972.1,109l.64.4,31.55,11.29,1.38.21a15.47,15.47,0,0,0,2.13.15,15,15,0,0,0,11.56-24.35l-.12-.18.11-.24a15.18,15.18,0,0,0-21.12-19.45l-.63.33-2.23-.78a13.5,13.5,0,0,0-16.7,7.11l-.3.74-1,.09a13.27,13.27,0,0,0-11.87,14.42A13.46,13.46,0,0,0,972.1,109ZM972,93.61a7.75,7.75,0,0,1,8.06-3.55l3.12.62.11-1.88h0a7.85,7.85,0,0,1,8.07-7.6,8,8,0,0,1,4.31,1.47l2.2,1.61,2.33-1.72a9.26,9.26,0,0,1,13.11,12.67l-1.19,1.83,2.21,2.36a9.37,9.37,0,0,1,2.59,6.67,9.24,9.24,0,0,1-2.9,6.52,9.39,9.39,0,0,1-7.31,2.56l-1.18-.1-31-10.93A7.69,7.69,0,0,1,972,93.61Z"/><path d="M0,90.68.1,88.8h0a7.88,7.88,0,0,1,2.49-5.47,7.75,7.75,0,0,1,5.58-2.13,7.91,7.91,0,0,1,4.31,1.47l2.21,1.61L17,82.55a9,9,0,0,1,11.88.85,9,9,0,0,1,1.22,11.82l-1.18,1.83,2.21,2.36a9.32,9.32,0,0,1,2.58,6.67,9.19,9.19,0,0,1-2.89,6.52,9.4,9.4,0,0,1-7.31,2.56l-1.18-.1L-.66,107v5.9l21.77,7.79,1.38.21a15.36,15.36,0,0,0,2.13.15A15,15,0,0,0,36.18,96.65l-.12-.18.11-.24A15.18,15.18,0,0,0,15.05,76.78l-.63.33-2.23-.78A13.51,13.51,0,0,0-.66,78.52v12Z"/><path d="M106.28,180.74l.11-.23a15.18,15.18,0,0,0-21.12-19.46l-.63.34-2.22-.79a13.51,13.51,0,0,0-16.71,7.11l-.3.75-1,.08A13.29,13.29,0,0,0,52.57,183a13.44,13.44,0,0,0,6.57,10.25l.65.4,31.54,11.29,1.38.21a15.5,15.5,0,0,0,2.14.15,15,15,0,0,0,11.56-24.35Zm-5.21,16.13a9.4,9.4,0,0,1-7.31,2.56l-1.19-.1-31-10.93a7.68,7.68,0,0,1,5.54-14.07l3.12.63.1-1.89h0a7.83,7.83,0,0,1,12.38-6.13l2.21,1.62,2.33-1.73a9.25,9.25,0,0,1,13.1,12.67l-1.19,1.83,2.22,2.37A9.33,9.33,0,0,1,101.07,196.87Z"/><path d="M246.74,180.74l.11-.23a15.18,15.18,0,0,0-21.12-19.46l-.63.34-2.23-.79a13.5,13.5,0,0,0-16.7,7.11l-.3.75-1,.08A13.28,13.28,0,0,0,193,183a13.44,13.44,0,0,0,6.57,10.25l.64.4,31.55,11.29,1.38.21a15.36,15.36,0,0,0,2.13.15,15,15,0,0,0,11.56-24.35Zm-5.22,16.13a9.4,9.4,0,0,1-7.31,2.56l-1.18-.1L202,188.4a7.68,7.68,0,0,1-3.43-4.72,7.54,7.54,0,0,1,.9-5.79,7.74,7.74,0,0,1,8.06-3.56l3.12.63.11-1.89h0a7.83,7.83,0,0,1,12.38-6.13l2.2,1.62,2.33-1.73a9.25,9.25,0,0,1,13.1,12.67l-1.18,1.83,2.21,2.37A9.33,9.33,0,0,1,241.52,196.87Z"/><path d="M387.19,180.74l.11-.23a15.18,15.18,0,0,0-21.12-19.46l-.63.34-2.23-.79a13.5,13.5,0,0,0-16.7,7.11l-.3.75-1,.08A13.29,13.29,0,0,0,333.48,183a13.44,13.44,0,0,0,6.57,10.25l.65.4,31.54,11.29,1.38.21a15.5,15.5,0,0,0,2.14.15,15,15,0,0,0,11.56-24.35ZM382,196.87a9.4,9.4,0,0,1-7.31,2.56l-1.19-.1-31-10.93a7.68,7.68,0,0,1-3.43-4.72,7.54,7.54,0,0,1,.9-5.79,7.75,7.75,0,0,1,8.07-3.56l3.12.63.1-1.89h0a7.83,7.83,0,0,1,12.38-6.13l2.21,1.62,2.33-1.73a9.25,9.25,0,0,1,13.1,12.67l-1.19,1.83,2.22,2.37A9.33,9.33,0,0,1,382,196.87Z"/><path d="M527.65,180.74l.11-.23a15.18,15.18,0,0,0-21.12-19.46l-.63.34-2.23-.79a13.49,13.49,0,0,0-16.7,7.11l-.31.75-1,.08A13.28,13.28,0,0,0,473.94,183a13.44,13.44,0,0,0,6.57,10.25l.64.4,31.55,11.29,1.38.21a15.36,15.36,0,0,0,2.13.15,15,15,0,0,0,11.56-24.35Zm-5.22,16.13a9.4,9.4,0,0,1-7.31,2.56l-1.18-.1-31-10.93a7.68,7.68,0,0,1,5.53-14.07l3.12.63.1-1.89h0a7.82,7.82,0,0,1,2.48-5.47,7.7,7.7,0,0,1,5.58-2.12,7.88,7.88,0,0,1,4.32,1.46l2.2,1.62,2.33-1.73a9.25,9.25,0,0,1,13.1,12.67l-1.18,1.83,2.21,2.37a9.3,9.3,0,0,1,2.58,6.66A9.19,9.19,0,0,1,522.43,196.87Z"/><path d="M668.1,180.74l.11-.23a15.18,15.18,0,0,0-21.12-19.46l-.63.34-2.23-.79a13.5,13.5,0,0,0-16.7,7.11l-.3.75-1,.08A13.29,13.29,0,0,0,614.39,183,13.44,13.44,0,0,0,621,193.22l.65.4,31.54,11.29,1.38.21a15.5,15.5,0,0,0,2.14.15,15,15,0,0,0,11.55-24.35Zm-5.21,16.13a9.4,9.4,0,0,1-7.31,2.56l-1.19-.1-31-10.93a7.68,7.68,0,0,1,5.54-14.07L632,175l.11-1.89h0a7.83,7.83,0,0,1,12.38-6.13l2.2,1.62,2.34-1.73a9.25,9.25,0,0,1,13.1,12.67L661,181.32l2.21,2.37A9.32,9.32,0,0,1,662.89,196.87Z"/><path d="M800.94,160.53a15.26,15.26,0,0,0-13.39.52l-.63.34-2.23-.79a13.49,13.49,0,0,0-16.7,7.11l-.31.75-1,.08a13.26,13.26,0,0,0-5.3,24.68l.64.4,31.55,11.29,1.38.21a15.36,15.36,0,0,0,2.13.15,15,15,0,0,0,11.56-24.35l-.12-.18.11-.23A15.24,15.24,0,0,0,800.94,160.53Zm2.4,36.34a9.4,9.4,0,0,1-7.31,2.56l-1.18-.1-31-10.93a7.69,7.69,0,0,1,5.54-14.07l3.12.63.1-1.89h0A7.83,7.83,0,0,1,785,166.93l2.2,1.62,2.33-1.73a9.25,9.25,0,0,1,13.1,12.67l-1.18,1.83,2.21,2.37A9.33,9.33,0,0,1,803.34,196.87Z"/><path d="M949,180.74l.11-.23A15.18,15.18,0,0,0,928,161.05l-.63.34-2.23-.79a13.5,13.5,0,0,0-16.7,7.11l-.3.75-1,.08A13.29,13.29,0,0,0,895.3,183a13.44,13.44,0,0,0,6.57,10.25l.65.4,31.54,11.29,1.38.21a15.47,15.47,0,0,0,2.13.15,15,15,0,0,0,11.56-24.35Zm-5.21,16.13a9.41,9.41,0,0,1-7.32,2.56l-1.18-.1-31-10.93a7.68,7.68,0,0,1-3.43-4.72,7.54,7.54,0,0,1,.9-5.79,7.74,7.74,0,0,1,8.06-3.56L913,175l.1-1.89h0a7.83,7.83,0,0,1,12.38-6.13l2.2,1.62,2.33-1.73a9.26,9.26,0,0,1,13.11,12.67l-1.19,1.83,2.21,2.37A9.33,9.33,0,0,1,943.8,196.87Z"/><path d="M1089.47,180.74l.11-.23a15.18,15.18,0,0,0-21.12-19.46l-.63.34-2.23-.79a13.49,13.49,0,0,0-16.7,7.11l-.31.75-1,.08a13.26,13.26,0,0,0-5.3,24.68l.64.4,31.55,11.29,1.38.21a15.25,15.25,0,0,0,2.13.15,15,15,0,0,0,11.56-24.35Zm-5.22,16.13a9.4,9.4,0,0,1-7.31,2.56l-1.18-.1-31-10.93a7.69,7.69,0,0,1,5.54-14.07l3.12.63.1-1.89h0a7.88,7.88,0,0,1,2.49-5.47,7.7,7.7,0,0,1,5.58-2.12,7.88,7.88,0,0,1,4.32,1.46l2.2,1.62,2.33-1.73a9.25,9.25,0,0,1,13.1,12.67l-1.18,1.83,2.21,2.37a9.3,9.3,0,0,1,2.58,6.66A9.19,9.19,0,0,1,1084.25,196.87Z"/><path d="M176.51,265l.11-.23a15.17,15.17,0,0,0-21.12-19.45l-.63.33-2.23-.79a13.51,13.51,0,0,0-16.7,7.12l-.3.74-1,.08a13.29,13.29,0,0,0-11.87,14.43,13.47,13.47,0,0,0,6.57,10.26l.64.39,31.55,11.29,1.38.21a15.47,15.47,0,0,0,2.13.15,15,15,0,0,0,11.56-24.34Zm-5.21,16.14A9.46,9.46,0,0,1,164,283.7l-1.18-.1-31-10.93a7.68,7.68,0,0,1,5.53-14.06l3.12.62.11-1.89h0a7.86,7.86,0,0,1,2.48-5.46,7.69,7.69,0,0,1,5.59-2.13,8,8,0,0,1,4.31,1.46l2.2,1.62,2.33-1.73a9.26,9.26,0,0,1,13.11,12.68l-1.19,1.82L171.6,268a9.35,9.35,0,0,1,2.59,6.66A9.25,9.25,0,0,1,171.3,281.15Z"/><path d="M317,265l.11-.23A15.17,15.17,0,0,0,296,245.33l-.63.33-2.23-.79A13.51,13.51,0,0,0,276.39,252l-.3.74-1,.08a13.3,13.3,0,0,0-11.87,14.43,13.46,13.46,0,0,0,6.58,10.26l.64.39L302,289.18l1.38.21a15.25,15.25,0,0,0,2.13.15,15,15,0,0,0,11.56-24.34Zm-5.21,16.14a9.43,9.43,0,0,1-7.31,2.55l-1.18-.1-31-10.93a7.68,7.68,0,0,1,5.54-14.06l3.12.62.1-1.89h0a7.87,7.87,0,0,1,2.49-5.46,7.64,7.64,0,0,1,5.58-2.13,7.9,7.9,0,0,1,4.31,1.46l2.21,1.62,2.33-1.73A9.25,9.25,0,0,1,311,263.76l-1.19,1.83,2.22,2.37A9.34,9.34,0,0,1,311.75,281.15Z"/><path d="M457.42,265l.11-.23a15.17,15.17,0,0,0-21.12-19.45l-.63.33-2.23-.79a13.51,13.51,0,0,0-16.7,7.12l-.3.74-1,.08a13.28,13.28,0,0,0-11.87,14.43,13.47,13.47,0,0,0,6.57,10.26l.64.39,31.55,11.29,1.38.21a15.47,15.47,0,0,0,2.13.15,15,15,0,0,0,11.56-24.34Zm-5.21,16.14a9.46,9.46,0,0,1-7.32,2.55l-1.18-.1-31-10.93a7.68,7.68,0,0,1,5.53-14.06l3.12.62.11-1.89h0a7.84,7.84,0,0,1,8.07-7.59,8,8,0,0,1,4.31,1.46l2.2,1.62,2.33-1.73a9.26,9.26,0,0,1,13.11,12.67l-1.19,1.83,2.21,2.37A9.34,9.34,0,0,1,452.21,281.15Z"/><path d="M597.87,265l.11-.23a15.17,15.17,0,0,0-21.12-19.45l-.62.33-2.23-.79A13.51,13.51,0,0,0,557.3,252l-.3.74-1,.08a13.29,13.29,0,0,0-11.87,14.43,13.46,13.46,0,0,0,6.58,10.26l.64.39,31.54,11.29,1.39.21a15.25,15.25,0,0,0,2.13.15A15,15,0,0,0,598,265.2Zm-5.21,16.14a9.43,9.43,0,0,1-7.31,2.55l-1.18-.1-31-10.93a7.69,7.69,0,0,1-3.43-4.72,7.59,7.59,0,0,1,.91-5.79,7.72,7.72,0,0,1,8.06-3.55l3.12.62.1-1.89h0a7.83,7.83,0,0,1,12.38-6.13l2.21,1.62,2.33-1.73a9.25,9.25,0,0,1,13.1,12.67l-1.19,1.83L593,268A9.34,9.34,0,0,1,592.66,281.15Z"/><path d="M738.33,265l.11-.23a15.17,15.17,0,0,0-21.12-19.45l-.63.33-2.23-.79a13.51,13.51,0,0,0-16.7,7.12l-.3.74-1,.08a13.28,13.28,0,0,0-11.87,14.43,13.47,13.47,0,0,0,6.57,10.26l.64.39,31.55,11.29,1.38.21a15.47,15.47,0,0,0,2.13.15,15,15,0,0,0,11.56-24.34Zm-5.21,16.14a9.46,9.46,0,0,1-7.32,2.55l-1.18-.1-31-10.93a7.68,7.68,0,0,1,5.53-14.06l3.12.62.11-1.89h0a7.83,7.83,0,0,1,8.07-7.59,8,8,0,0,1,4.31,1.46l2.2,1.62,2.33-1.73a9.26,9.26,0,0,1,13.11,12.68l-1.19,1.82,2.21,2.37a9.35,9.35,0,0,1,2.59,6.66A9.25,9.25,0,0,1,733.12,281.15Z"/><path d="M878.78,265l.11-.23a15.17,15.17,0,0,0-21.12-19.45l-.63.33-2.22-.79A13.51,13.51,0,0,0,838.21,252l-.3.74-1,.08a13.29,13.29,0,0,0-11.87,14.43,13.46,13.46,0,0,0,6.58,10.26l.64.39,31.54,11.29,1.39.21a15.25,15.25,0,0,0,2.13.15,15,15,0,0,0,11.56-24.34Zm-5.21,16.14a9.42,9.42,0,0,1-7.31,2.55l-1.18-.1-31-10.93a7.68,7.68,0,0,1,5.54-14.06l3.12.62.1-1.89h0a7.83,7.83,0,0,1,12.38-6.13l2.21,1.62,2.33-1.73a9.26,9.26,0,0,1,13.1,12.68l-1.19,1.82,2.22,2.37A9.34,9.34,0,0,1,873.57,281.15Z"/><path d="M1019.24,265l.11-.23a15.17,15.17,0,0,0-21.12-19.45l-.63.33-2.23-.79a13.51,13.51,0,0,0-16.7,7.12l-.3.74-1,.08a13.28,13.28,0,0,0-11.87,14.43,13.47,13.47,0,0,0,6.57,10.26l.64.39,31.55,11.29,1.38.21a15.47,15.47,0,0,0,2.13.15,15,15,0,0,0,11.56-24.34ZM1014,281.15a9.42,9.42,0,0,1-7.31,2.55l-1.18-.1-31-10.93a7.68,7.68,0,0,1,5.53-14.06l3.12.62.11-1.89h0a7.83,7.83,0,0,1,8.07-7.59,8,8,0,0,1,4.31,1.46l2.2,1.62,2.33-1.73a9.26,9.26,0,0,1,13.11,12.67l-1.19,1.83,2.21,2.37A9.33,9.33,0,0,1,1014,281.15Z"/><path d="M0,259.23l.1-1.89h0a7.83,7.83,0,0,1,12.38-6.13l2.21,1.62L17,251.09A9,9,0,0,1,28.9,252a9,9,0,0,1,1.22,11.82l-1.18,1.82L31.15,268a9.34,9.34,0,0,1-7.62,15.74l-1.18-.1-23-8.11v5.9l21.77,7.79,1.38.21a15.36,15.36,0,0,0,2.13.15A15,15,0,0,0,36.18,265.2l-.12-.19.11-.23a15.17,15.17,0,0,0-21.12-19.45l-.63.33-2.23-.79A13.57,13.57,0,0,0-.66,247.06v12Z"/><path d="M106.28,349.28l.11-.23A15.18,15.18,0,0,0,85.27,329.6l-.63.33-2.22-.78a13.51,13.51,0,0,0-16.71,7.11l-.3.74-1,.09a13.28,13.28,0,0,0-11.87,14.42,13.46,13.46,0,0,0,6.57,10.26l.65.39,31.54,11.3,1.38.2a14.11,14.11,0,0,0,2.14.16,15,15,0,0,0,11.56-24.35Zm-5.21,16.14A9.4,9.4,0,0,1,93.76,368l-1.19-.1L61.57,357a7.68,7.68,0,0,1,5.54-14.07l3.12.62.1-1.89h0A7.86,7.86,0,0,1,78.4,334a8,8,0,0,1,4.31,1.47l2.21,1.61,2.33-1.73A9.26,9.26,0,0,1,100.35,348l-1.19,1.82,2.22,2.37A9.34,9.34,0,0,1,101.07,365.42Z"/><path d="M246.74,349.28l.11-.23a15.18,15.18,0,0,0-21.12-19.45l-.63.33-2.23-.78a13.5,13.5,0,0,0-16.7,7.11l-.3.74-1,.09A13.27,13.27,0,0,0,193,351.51a13.46,13.46,0,0,0,6.57,10.26l.64.39,31.55,11.3,1.38.2a14,14,0,0,0,2.13.16,15,15,0,0,0,11.56-24.35Zm-5.22,16.14a9.39,9.39,0,0,1-7.31,2.56l-1.18-.1L202,357a7.7,7.7,0,0,1-3.43-4.73,7.55,7.55,0,0,1,.9-5.79,7.73,7.73,0,0,1,8.06-3.55l3.12.62.11-1.89h0a7.85,7.85,0,0,1,8.07-7.59,8,8,0,0,1,4.31,1.47l2.2,1.61,2.33-1.73A9.26,9.26,0,0,1,240.8,348l-1.18,1.82,2.21,2.37A9.34,9.34,0,0,1,241.52,365.42Z"/><path d="M387.19,349.28l.11-.23a15.18,15.18,0,0,0-21.12-19.45l-.63.33-2.23-.78a13.5,13.5,0,0,0-16.7,7.11l-.3.74-1,.09a13.28,13.28,0,0,0-11.87,14.42,13.46,13.46,0,0,0,6.57,10.26l.65.39,31.54,11.3,1.38.2a14.11,14.11,0,0,0,2.14.16,15,15,0,0,0,11.56-24.35ZM382,365.42a9.4,9.4,0,0,1-7.31,2.56l-1.19-.1-31-10.93a7.7,7.7,0,0,1-3.43-4.73,7.55,7.55,0,0,1,.9-5.79,7.75,7.75,0,0,1,8.07-3.55l3.12.62.1-1.89h0a7.83,7.83,0,0,1,2.49-5.46,7.65,7.65,0,0,1,5.58-2.13,8,8,0,0,1,4.31,1.47l2.21,1.61,2.33-1.73A9.26,9.26,0,0,1,381.26,348l-1.19,1.82,2.22,2.37A9.34,9.34,0,0,1,382,365.42Z"/><path d="M527.65,349.28l.11-.23a15.18,15.18,0,0,0-21.12-19.45l-.63.33-2.23-.78a13.5,13.5,0,0,0-16.7,7.11l-.31.74-1,.09a13.27,13.27,0,0,0-11.87,14.42,13.46,13.46,0,0,0,6.57,10.26l.64.39,31.55,11.3,1.38.2a14,14,0,0,0,2.13.16,15,15,0,0,0,11.56-24.35Zm-5.22,16.14a9.44,9.44,0,0,1-7.31,2.56l-1.18-.1-31-10.93a7.68,7.68,0,0,1,5.53-14.07l3.12.62.1-1.89h0a7.82,7.82,0,0,1,2.48-5.46,7.67,7.67,0,0,1,5.58-2.13,8,8,0,0,1,4.32,1.47l2.2,1.61,2.33-1.73A9.26,9.26,0,0,1,521.71,348l-1.18,1.82,2.21,2.37a9.32,9.32,0,0,1,2.58,6.67A9.19,9.19,0,0,1,522.43,365.42Z"/><path d="M668.1,349.28l.11-.23a15.18,15.18,0,0,0-21.12-19.45l-.63.33-2.23-.78a13.5,13.5,0,0,0-16.7,7.11l-.3.74-1,.09a13.28,13.28,0,0,0-11.87,14.42A13.46,13.46,0,0,0,621,361.77l.65.39,31.54,11.3,1.38.2a14.11,14.11,0,0,0,2.14.16,15,15,0,0,0,11.55-24.35Zm-5.21,16.14a9.4,9.4,0,0,1-7.31,2.56l-1.19-.1-31-10.93a7.68,7.68,0,0,1,5.54-14.07l3.11.62.11-1.89h0a7.83,7.83,0,0,1,2.49-5.46,7.65,7.65,0,0,1,5.58-2.13,8,8,0,0,1,4.31,1.47l2.2,1.61,2.34-1.73A9.26,9.26,0,0,1,662.17,348L661,349.86l2.21,2.37A9.33,9.33,0,0,1,662.89,365.42Z"/><path d="M808.56,349.28l.11-.23a15.18,15.18,0,0,0-21.12-19.45l-.63.33-2.23-.78a13.49,13.49,0,0,0-16.7,7.11l-.31.74-1,.09a13.27,13.27,0,0,0-11.87,14.42,13.41,13.41,0,0,0,6.57,10.26l.64.39,31.55,11.3,1.38.2a14,14,0,0,0,2.13.16,15,15,0,0,0,11.56-24.35Zm-5.22,16.14A9.39,9.39,0,0,1,796,368l-1.18-.1-31-10.93a7.68,7.68,0,0,1,5.54-14.07l3.12.62.1-1.89h0a7.87,7.87,0,0,1,2.49-5.46,7.65,7.65,0,0,1,5.58-2.13,8,8,0,0,1,4.32,1.47l2.2,1.61,2.33-1.73A9.26,9.26,0,0,1,802.62,348l-1.18,1.82,2.21,2.37A9.34,9.34,0,0,1,803.34,365.42Z"/><path d="M949,349.28l.11-.23A15.18,15.18,0,0,0,928,329.6l-.63.33-2.23-.78a13.5,13.5,0,0,0-16.7,7.11l-.3.74-1,.09a13.28,13.28,0,0,0-11.87,14.42,13.46,13.46,0,0,0,6.57,10.26l.65.39,31.54,11.3,1.38.2a14.11,14.11,0,0,0,2.14.16,15,15,0,0,0,11.55-24.35Zm-5.21,16.14a9.41,9.41,0,0,1-7.32,2.56l-1.18-.1L904.3,357a7.7,7.7,0,0,1-3.43-4.73,7.55,7.55,0,0,1,.9-5.79,7.75,7.75,0,0,1,8.07-3.55l3.12.62.1-1.89h0a7.85,7.85,0,0,1,8.07-7.59,8,8,0,0,1,4.31,1.47l2.2,1.61,2.33-1.73A9.26,9.26,0,0,1,943.08,348l-1.19,1.82,2.21,2.37A9.34,9.34,0,0,1,943.8,365.42Z"/><path d="M1089.47,349.28l.11-.23a15.18,15.18,0,0,0-21.12-19.45l-.63.33-2.23-.78a13.49,13.49,0,0,0-16.7,7.11l-.31.74-1,.09a13.28,13.28,0,0,0-11.88,14.42,13.44,13.44,0,0,0,6.58,10.26l.64.39,31.55,11.3,1.38.2a14,14,0,0,0,2.13.16,15,15,0,0,0,11.56-24.35Zm-5.22,16.14a9.4,9.4,0,0,1-7.31,2.56l-1.18-.1-31-10.93a7.68,7.68,0,0,1,5.54-14.07l3.12.62.1-1.89h0a7.87,7.87,0,0,1,2.49-5.46,7.67,7.67,0,0,1,5.58-2.13,8,8,0,0,1,4.32,1.47l2.2,1.61,2.33-1.73a9.26,9.26,0,0,1,13.1,12.68l-1.18,1.82,2.21,2.37a9.32,9.32,0,0,1,2.58,6.67A9.19,9.19,0,0,1,1084.25,365.42Z"/><path d="M176.51,433.56l.11-.24a15.18,15.18,0,0,0-21.12-19.45l-.63.33-2.23-.78a13.5,13.5,0,0,0-16.7,7.11l-.3.74-1,.09a13.29,13.29,0,0,0-11.87,14.43A13.44,13.44,0,0,0,129.37,446l.64.4,31.55,11.29,1.38.21a15.47,15.47,0,0,0,2.13.15,15,15,0,0,0,11.56-24.35Zm-5.21,16.13a9.43,9.43,0,0,1-7.32,2.56l-1.18-.1-31-10.93a7.68,7.68,0,0,1-3.43-4.72,7.54,7.54,0,0,1,.9-5.79,7.74,7.74,0,0,1,8.06-3.56l3.12.63.11-1.89h0a7.86,7.86,0,0,1,2.48-5.47,7.72,7.72,0,0,1,5.59-2.12,7.87,7.87,0,0,1,4.31,1.46l2.2,1.62,2.33-1.73a9.26,9.26,0,0,1,13.11,12.67l-1.19,1.83,2.21,2.37a9.33,9.33,0,0,1,2.59,6.66A9.23,9.23,0,0,1,171.3,449.69Z"/><path d="M317,433.56l.11-.24A15.17,15.17,0,0,0,296,413.87l-.63.33-2.23-.78a13.49,13.49,0,0,0-16.7,7.11l-.31.74-1,.09A13.26,13.26,0,0,0,269.83,446l.64.4L302,457.73l1.38.21a15.25,15.25,0,0,0,2.13.15,15,15,0,0,0,11.56-24.35Zm-5.21,16.13a9.4,9.4,0,0,1-7.31,2.56l-1.18-.1-31-10.93a7.72,7.72,0,0,1-3.43-4.72,7.59,7.59,0,0,1,.91-5.79,7.73,7.73,0,0,1,8.06-3.56l3.12.63.1-1.89h0a7.88,7.88,0,0,1,2.49-5.47,7.68,7.68,0,0,1,5.58-2.12,7.82,7.82,0,0,1,4.31,1.46l2.21,1.62,2.33-1.73A9.25,9.25,0,0,1,311,432.31l-1.19,1.83,2.22,2.37a9.28,9.28,0,0,1,2.58,6.66A9.19,9.19,0,0,1,311.75,449.69Z"/><path d="M457.42,433.56l.11-.24a15.18,15.18,0,0,0-21.12-19.45l-.63.33-2.23-.78a13.5,13.5,0,0,0-16.7,7.11l-.3.74-1,.09a13.28,13.28,0,0,0-11.87,14.43A13.44,13.44,0,0,0,410.28,446l.64.4,31.55,11.29,1.38.21a15.47,15.47,0,0,0,2.13.15,15,15,0,0,0,11.56-24.35Zm-5.21,16.13a9.44,9.44,0,0,1-7.32,2.56l-1.18-.1-31-10.93a7.68,7.68,0,0,1-3.43-4.72,7.54,7.54,0,0,1,.9-5.79,7.74,7.74,0,0,1,8.06-3.56l3.12.63.11-1.89h0a7.82,7.82,0,0,1,2.48-5.47,7.72,7.72,0,0,1,5.59-2.12,7.87,7.87,0,0,1,4.31,1.46l2.2,1.62,2.33-1.73a9.26,9.26,0,0,1,13.11,12.67l-1.19,1.83,2.21,2.37a9.33,9.33,0,0,1,2.59,6.66A9.23,9.23,0,0,1,452.21,449.69Z"/><path d="M597.87,433.56l.11-.24a15.18,15.18,0,0,0-21.12-19.45l-.62.33-2.23-.78a13.51,13.51,0,0,0-16.71,7.11l-.3.74-1,.09a13.29,13.29,0,0,0-11.87,14.43A13.43,13.43,0,0,0,550.74,446l.64.4,31.54,11.29,1.39.21a15.25,15.25,0,0,0,2.13.15A15,15,0,0,0,598,433.74Zm-5.21,16.13a9.4,9.4,0,0,1-7.31,2.56l-1.18-.1-31-10.93a7.72,7.72,0,0,1-3.43-4.72,7.59,7.59,0,0,1,.91-5.79,7.73,7.73,0,0,1,8.06-3.56l3.12.63.1-1.89h0a7.83,7.83,0,0,1,12.38-6.13l2.21,1.62,2.33-1.73a9.25,9.25,0,0,1,13.1,12.67l-1.19,1.83,2.22,2.37a9.28,9.28,0,0,1,2.58,6.66A9.19,9.19,0,0,1,592.66,449.69Z"/><path d="M738.33,433.56l.11-.24a15.18,15.18,0,0,0-21.12-19.45l-.63.33-2.23-.78a13.5,13.5,0,0,0-16.7,7.11l-.3.74-1,.09a13.28,13.28,0,0,0-11.87,14.43A13.44,13.44,0,0,0,691.19,446l.64.4,31.55,11.29,1.38.21a15.47,15.47,0,0,0,2.13.15,15,15,0,0,0,11.56-24.35Zm-5.21,16.13a9.43,9.43,0,0,1-7.32,2.56l-1.18-.1-31-10.93a7.68,7.68,0,0,1-3.43-4.72,7.54,7.54,0,0,1,.9-5.79,7.74,7.74,0,0,1,8.06-3.56l3.12.63.11-1.89h0a7.82,7.82,0,0,1,2.48-5.47,7.71,7.71,0,0,1,5.59-2.12,7.87,7.87,0,0,1,4.31,1.46l2.2,1.62,2.33-1.73a9.26,9.26,0,0,1,13.11,12.67l-1.19,1.83,2.21,2.37a9.33,9.33,0,0,1,2.59,6.66A9.23,9.23,0,0,1,733.12,449.69Z"/><path d="M878.78,433.56l.11-.24a15.18,15.18,0,0,0-21.12-19.45l-.62.33-2.23-.78a13.51,13.51,0,0,0-16.71,7.11l-.3.74-1,.09a13.29,13.29,0,0,0-11.87,14.43A13.43,13.43,0,0,0,831.65,446l.64.4,31.54,11.29,1.39.21a15.25,15.25,0,0,0,2.13.15,15,15,0,0,0,11.56-24.35Zm-5.21,16.13a9.4,9.4,0,0,1-7.31,2.56l-1.18-.1-31-10.93a7.68,7.68,0,0,1-3.43-4.72,7.54,7.54,0,0,1,.91-5.79,7.73,7.73,0,0,1,8.06-3.56l3.12.63.1-1.89h0a7.88,7.88,0,0,1,2.49-5.47,7.7,7.7,0,0,1,5.58-2.12,7.82,7.82,0,0,1,4.31,1.46l2.21,1.62,2.33-1.73a9.25,9.25,0,0,1,13.1,12.67l-1.19,1.83,2.22,2.37a9.28,9.28,0,0,1,2.58,6.66A9.19,9.19,0,0,1,873.57,449.69Z"/><path d="M1019.24,433.56l.11-.24a15.18,15.18,0,0,0-21.12-19.45l-.63.33-2.23-.78a13.5,13.5,0,0,0-16.7,7.11l-.3.74-1,.09a13.28,13.28,0,0,0-11.87,14.43A13.44,13.44,0,0,0,972.1,446l.64.4,31.55,11.29,1.38.21a15.47,15.47,0,0,0,2.13.15,15,15,0,0,0,11.56-24.35ZM1014,449.69a9.39,9.39,0,0,1-7.31,2.56l-1.18-.1-31-10.93a7.68,7.68,0,0,1-3.43-4.72,7.54,7.54,0,0,1,.9-5.79,7.74,7.74,0,0,1,8.06-3.56l3.12.63.11-1.89h0a7.83,7.83,0,0,1,12.38-6.13l2.2,1.62,2.33-1.73a9.26,9.26,0,0,1,13.11,12.67l-1.19,1.83,2.21,2.37a9.33,9.33,0,0,1,2.59,6.66A9.24,9.24,0,0,1,1014,449.69Z"/><path d="M0,427.78l.1-1.89h0a7.88,7.88,0,0,1,2.49-5.47,7.7,7.7,0,0,1,5.58-2.12,7.82,7.82,0,0,1,4.31,1.46l2.21,1.62L17,419.64a9,9,0,0,1,11.88.86,9,9,0,0,1,1.22,11.81l-1.18,1.83,2.21,2.37a9.28,9.28,0,0,1,2.58,6.66,9.19,9.19,0,0,1-2.89,6.52,9.39,9.39,0,0,1-7.31,2.56l-1.18-.1L-.66,444v5.9l21.77,7.79,1.38.21a15.36,15.36,0,0,0,2.13.15,15,15,0,0,0,11.56-24.35l-.12-.18.11-.24a15.18,15.18,0,0,0-21.12-19.45l-.63.33-2.23-.78A13.51,13.51,0,0,0-.66,415.61v12Z"/><path d="M106.28,517.83l.11-.23a15.18,15.18,0,0,0-21.12-19.46l-.63.34-2.22-.79a13.51,13.51,0,0,0-16.71,7.11l-.3.75-1,.08a13.29,13.29,0,0,0-11.87,14.43,13.44,13.44,0,0,0,6.57,10.25l.65.4L91.33,542l1.38.21a15.5,15.5,0,0,0,2.14.15A15,15,0,0,0,106.41,518ZM101.07,534a9.4,9.4,0,0,1-7.31,2.56l-1.19-.1-31-10.93a7.68,7.68,0,0,1,5.54-14.06l3.12.62.1-1.89h0A7.83,7.83,0,0,1,82.71,504l2.21,1.62,2.33-1.73a9.25,9.25,0,0,1,13.1,12.67l-1.19,1.83,2.22,2.37A9.33,9.33,0,0,1,101.07,534Z"/><path d="M246.74,517.83l.11-.23a15.18,15.18,0,0,0-21.12-19.46l-.63.34-2.23-.79a13.5,13.5,0,0,0-16.7,7.11l-.3.75-1,.08A13.28,13.28,0,0,0,193,520.06a13.44,13.44,0,0,0,6.57,10.25l.64.4L231.79,542l1.38.21a15.36,15.36,0,0,0,2.13.15A15,15,0,0,0,246.86,518ZM241.52,534a9.37,9.37,0,0,1-7.31,2.56l-1.18-.1-31-10.93a7.68,7.68,0,0,1-3.43-4.72,7.54,7.54,0,0,1,.9-5.79,7.71,7.71,0,0,1,8.06-3.55l3.12.62.11-1.89h0a7.85,7.85,0,0,1,8.07-7.59,8,8,0,0,1,4.31,1.46l2.2,1.62,2.33-1.73a9.25,9.25,0,0,1,13.1,12.67l-1.18,1.83,2.21,2.37A9.33,9.33,0,0,1,241.52,534Z"/><path d="M387.19,517.83l.11-.23a15.18,15.18,0,0,0-21.12-19.46l-.63.34-2.23-.79a13.5,13.5,0,0,0-16.7,7.11l-.3.75-1,.08a13.29,13.29,0,0,0-11.87,14.43,13.44,13.44,0,0,0,6.57,10.25l.65.4L372.24,542l1.38.21a15.5,15.5,0,0,0,2.14.15A15,15,0,0,0,387.32,518ZM382,534a9.37,9.37,0,0,1-7.31,2.56l-1.19-.1-31-10.93a7.68,7.68,0,0,1-3.43-4.72A7.54,7.54,0,0,1,340,515a7.73,7.73,0,0,1,8.07-3.55l3.12.62.1-1.89h0a7.86,7.86,0,0,1,8.07-7.59,8,8,0,0,1,4.31,1.46l2.21,1.62,2.33-1.73a9.25,9.25,0,0,1,13.1,12.67l-1.19,1.83,2.22,2.37A9.33,9.33,0,0,1,382,534Z"/><path d="M527.65,517.83l.11-.23a15.18,15.18,0,0,0-21.12-19.46l-.63.34-2.23-.79a13.5,13.5,0,0,0-16.7,7.11l-.31.75-1,.08a13.28,13.28,0,0,0-11.87,14.43,13.44,13.44,0,0,0,6.57,10.25l.64.4L512.7,542l1.38.21a15.36,15.36,0,0,0,2.13.15A15,15,0,0,0,527.77,518ZM522.43,534a9.39,9.39,0,0,1-7.31,2.56l-1.18-.1-31-10.93a7.68,7.68,0,0,1,5.53-14.06l3.12.62.1-1.89h0a7.85,7.85,0,0,1,8.06-7.59,8,8,0,0,1,4.32,1.46l2.2,1.62,2.33-1.73a9.25,9.25,0,0,1,13.1,12.67l-1.18,1.83,2.21,2.37A9.33,9.33,0,0,1,522.43,534Z"/><path d="M668.1,517.83l.11-.23a15.18,15.18,0,0,0-21.12-19.46l-.63.34-2.23-.79a13.5,13.5,0,0,0-16.7,7.11l-.3.75-1,.08a13.29,13.29,0,0,0-11.87,14.43A13.44,13.44,0,0,0,621,530.31l.65.4L653.15,542l1.38.21a15.5,15.5,0,0,0,2.14.15A15,15,0,0,0,668.22,518ZM662.89,534a9.4,9.4,0,0,1-7.31,2.56l-1.19-.1-31-10.93a7.68,7.68,0,0,1,5.54-14.06l3.11.62.11-1.89h0a7.85,7.85,0,0,1,2.49-5.47,7.72,7.72,0,0,1,5.58-2.12,8,8,0,0,1,4.31,1.46l2.2,1.62,2.34-1.73a9.25,9.25,0,0,1,13.1,12.67L661,518.41l2.21,2.37A9.32,9.32,0,0,1,662.89,534Z"/><path d="M808.56,517.83l.11-.23a15.18,15.18,0,0,0-21.12-19.46l-.63.34-2.23-.79A13.49,13.49,0,0,0,768,504.8l-.31.75-1,.08a13.26,13.26,0,0,0-5.3,24.68l.64.4L793.61,542l1.38.21a15.36,15.36,0,0,0,2.13.15A15,15,0,0,0,808.68,518ZM803.34,534a9.37,9.37,0,0,1-7.31,2.56l-1.18-.1-31-10.93a7.68,7.68,0,0,1,5.54-14.06l3.12.62.1-1.89h0a7.86,7.86,0,0,1,8.07-7.59A8,8,0,0,1,785,504l2.2,1.62,2.33-1.73a9.25,9.25,0,0,1,13.1,12.67l-1.18,1.83,2.21,2.37A9.33,9.33,0,0,1,803.34,534Z"/><path d="M949,517.83l.11-.23A15.18,15.18,0,0,0,928,498.14l-.63.34-2.23-.79a13.5,13.5,0,0,0-16.7,7.11l-.3.75-1,.08a13.29,13.29,0,0,0-11.87,14.43,13.44,13.44,0,0,0,6.57,10.25l.65.4L934.06,542l1.38.21a15.5,15.5,0,0,0,2.14.15A15,15,0,0,0,949.13,518ZM943.8,534a9.38,9.38,0,0,1-7.32,2.56l-1.18-.1-31-10.93a7.68,7.68,0,0,1-3.43-4.72,7.54,7.54,0,0,1,.9-5.79,7.73,7.73,0,0,1,8.07-3.55l3.12.62.1-1.89h0a7.85,7.85,0,0,1,8.07-7.59,8,8,0,0,1,4.31,1.46l2.2,1.62,2.33-1.73a9.26,9.26,0,0,1,13.11,12.67l-1.19,1.83,2.21,2.37A9.33,9.33,0,0,1,943.8,534Z"/><path d="M1089.47,517.83l.11-.23a15.18,15.18,0,0,0-21.12-19.46l-.63.34-2.23-.79a13.49,13.49,0,0,0-16.7,7.11l-.31.75-1,.08a13.26,13.26,0,0,0-5.3,24.68l.64.4L1074.52,542l1.38.21a15.36,15.36,0,0,0,2.13.15A15,15,0,0,0,1089.59,518ZM1084.25,534a9.37,9.37,0,0,1-7.31,2.56l-1.18-.1-31-10.93a7.68,7.68,0,0,1,5.54-14.06l3.12.62.1-1.89h0a7.89,7.89,0,0,1,2.49-5.47,7.78,7.78,0,0,1,5.58-2.12,8,8,0,0,1,4.32,1.46l2.2,1.62,2.33-1.73a9.25,9.25,0,0,1,13.1,12.67l-1.19,1.83,2.22,2.37A9.33,9.33,0,0,1,1084.25,534Z"/><path d="M176.51,602.1l.11-.23a15.17,15.17,0,0,0-21.12-19.45l-.63.33-2.23-.79a13.52,13.52,0,0,0-16.7,7.12l-.3.74-1,.08a13.29,13.29,0,0,0-11.87,14.43,13.46,13.46,0,0,0,6.57,10.26l.64.39,31.55,11.29,1.38.21a15.47,15.47,0,0,0,2.13.15,15,15,0,0,0,11.56-24.34Zm-5.21,16.14a9.43,9.43,0,0,1-7.32,2.55l-1.18-.09-31-10.94a7.66,7.66,0,0,1-3.43-4.72,7.55,7.55,0,0,1,.9-5.79,7.74,7.74,0,0,1,8.06-3.55l3.12.62.11-1.89h0A7.86,7.86,0,0,1,143,589a7.73,7.73,0,0,1,5.59-2.13,7.88,7.88,0,0,1,4.31,1.47l2.2,1.61,2.33-1.73a9.26,9.26,0,0,1,13.11,12.68l-1.19,1.82,2.21,2.37a9.36,9.36,0,0,1,2.59,6.67A9.24,9.24,0,0,1,171.3,618.24Z"/><path d="M317,602.1l.11-.23A15.17,15.17,0,0,0,296,582.42l-.63.33L293.1,582a13.51,13.51,0,0,0-16.7,7.12l-.31.74-1,.08a13.3,13.3,0,0,0-11.87,14.43,13.44,13.44,0,0,0,6.58,10.26l.64.39L302,626.27l1.38.21a15.25,15.25,0,0,0,2.13.15,15,15,0,0,0,11.56-24.34Zm-5.21,16.14a9.4,9.4,0,0,1-7.31,2.55l-1.18-.09-31-10.94a7.69,7.69,0,0,1-3.43-4.72,7.59,7.59,0,0,1,.91-5.79,7.72,7.72,0,0,1,8.06-3.55l3.12.62.1-1.89h0A7.87,7.87,0,0,1,283.5,589a7.73,7.73,0,0,1,5.58-2.13,7.83,7.83,0,0,1,4.31,1.47l2.21,1.61,2.33-1.73A9.26,9.26,0,0,1,311,600.86l-1.19,1.82,2.22,2.37a9.3,9.3,0,0,1,2.58,6.67A9.2,9.2,0,0,1,311.75,618.24Z"/><path d="M457.42,602.1l.11-.23a15.17,15.17,0,0,0-21.12-19.45l-.63.33-2.23-.79a13.52,13.52,0,0,0-16.7,7.12l-.3.74-1,.08a13.28,13.28,0,0,0-11.87,14.43,13.46,13.46,0,0,0,6.57,10.26l.64.39,31.55,11.29,1.38.21a15.47,15.47,0,0,0,2.13.15,15,15,0,0,0,11.56-24.34Zm-5.21,16.14a9.43,9.43,0,0,1-7.32,2.55l-1.18-.09-31-10.94a7.66,7.66,0,0,1-3.43-4.72,7.55,7.55,0,0,1,.9-5.79,7.74,7.74,0,0,1,8.06-3.55l3.12.62.11-1.89h0A7.82,7.82,0,0,1,424,589a7.71,7.71,0,0,1,5.59-2.13,7.88,7.88,0,0,1,4.31,1.47l2.2,1.61,2.33-1.73a9.26,9.26,0,0,1,13.11,12.68l-1.19,1.82,2.21,2.37a9.36,9.36,0,0,1,2.59,6.67A9.24,9.24,0,0,1,452.21,618.24Z"/><path d="M597.87,602.1l.11-.23a15.17,15.17,0,0,0-21.12-19.45l-.62.33L574,582a13.51,13.51,0,0,0-16.71,7.12l-.3.74-1,.08a13.29,13.29,0,0,0-11.87,14.43,13.44,13.44,0,0,0,6.58,10.26l.64.39,31.54,11.29,1.39.21a15.25,15.25,0,0,0,2.13.15A15,15,0,0,0,598,602.29Zm-5.21,16.14a9.4,9.4,0,0,1-7.31,2.55l-1.18-.09-31-10.94a7.69,7.69,0,0,1-3.43-4.72,7.59,7.59,0,0,1,.91-5.79,7.72,7.72,0,0,1,8.06-3.55l3.12.62.1-1.89h0a7.87,7.87,0,0,1,2.49-5.46,7.69,7.69,0,0,1,5.58-2.13,7.85,7.85,0,0,1,4.31,1.47l2.21,1.61,2.33-1.73a9.26,9.26,0,0,1,13.1,12.68l-1.19,1.82,2.22,2.37a9.3,9.3,0,0,1,2.58,6.67A9.2,9.2,0,0,1,592.66,618.24Z"/><path d="M738.33,602.1l.11-.23a15.17,15.17,0,0,0-21.12-19.45l-.63.33-2.23-.79a13.5,13.5,0,0,0-16.7,7.12l-.3.74-1,.08a13.28,13.28,0,0,0-11.87,14.43,13.46,13.46,0,0,0,6.57,10.26l.64.39,31.55,11.29,1.38.21a15.47,15.47,0,0,0,2.13.15,15,15,0,0,0,11.56-24.34Zm-5.21,16.14a9.43,9.43,0,0,1-7.32,2.55l-1.18-.09-31-10.94a7.66,7.66,0,0,1-3.43-4.72,7.55,7.55,0,0,1,.9-5.79,7.74,7.74,0,0,1,8.06-3.55l3.12.62.11-1.89h0a7.82,7.82,0,0,1,2.48-5.46,7.71,7.71,0,0,1,5.59-2.13,7.88,7.88,0,0,1,4.31,1.47l2.2,1.61,2.33-1.73a9.26,9.26,0,0,1,13.11,12.68l-1.19,1.82,2.21,2.37a9.36,9.36,0,0,1,2.59,6.67A9.24,9.24,0,0,1,733.12,618.24Z"/><path d="M878.78,602.1l.11-.23a15.17,15.17,0,0,0-21.12-19.45l-.63.33-2.22-.79a13.52,13.52,0,0,0-16.71,7.12l-.3.74-1,.08a13.29,13.29,0,0,0-11.87,14.43,13.44,13.44,0,0,0,6.58,10.26l.64.39,31.54,11.29,1.39.21a15.25,15.25,0,0,0,2.13.15,15,15,0,0,0,11.56-24.34Zm-5.21,16.14a9.4,9.4,0,0,1-7.31,2.55l-1.18-.09-31-10.94a7.66,7.66,0,0,1-3.43-4.72,7.55,7.55,0,0,1,.91-5.79,7.72,7.72,0,0,1,8.06-3.55l3.12.62.1-1.89h0a7.87,7.87,0,0,1,2.49-5.46,7.71,7.71,0,0,1,5.58-2.13,7.85,7.85,0,0,1,4.31,1.47l2.21,1.61,2.33-1.73a9.26,9.26,0,0,1,13.1,12.68l-1.19,1.82,2.22,2.37a9.3,9.3,0,0,1,2.58,6.67A9.2,9.2,0,0,1,873.57,618.24Z"/><path d="M1019.24,602.1l.11-.23a15.17,15.17,0,0,0-21.12-19.45l-.63.33-2.23-.79a13.51,13.51,0,0,0-16.7,7.12l-.3.74-1,.08a13.28,13.28,0,0,0-11.87,14.43,13.46,13.46,0,0,0,6.57,10.26l.64.39,31.55,11.29,1.38.21a15.47,15.47,0,0,0,2.13.15,15,15,0,0,0,11.56-24.34ZM1014,618.24a9.4,9.4,0,0,1-7.31,2.55l-1.18-.09-31-10.94A7.66,7.66,0,0,1,971.1,605a7.55,7.55,0,0,1,.9-5.79,7.73,7.73,0,0,1,8.06-3.55l3.12.62.11-1.89h0a7.82,7.82,0,0,1,2.48-5.46,7.7,7.7,0,0,1,5.59-2.13,7.88,7.88,0,0,1,4.31,1.47l2.2,1.61,2.33-1.73a9.26,9.26,0,0,1,13.11,12.68l-1.19,1.82,2.21,2.37a9.36,9.36,0,0,1,2.59,6.67A9.25,9.25,0,0,1,1014,618.24Z"/><path d="M0,596.32l.1-1.89h0A7.87,7.87,0,0,1,2.59,589a7.71,7.71,0,0,1,5.58-2.13,7.83,7.83,0,0,1,4.31,1.47l2.21,1.61L17,588.18A9,9,0,0,1,28.9,589a9,9,0,0,1,1.22,11.82l-1.18,1.82,2.21,2.37a9.3,9.3,0,0,1,2.58,6.67,9.2,9.2,0,0,1-2.89,6.52,9.4,9.4,0,0,1-7.31,2.55l-1.18-.09-23-8.12v5.9l21.77,7.79,1.38.21a15.36,15.36,0,0,0,2.13.15,15,15,0,0,0,11.56-24.34l-.12-.19.11-.23a15.17,15.17,0,0,0-21.12-19.45l-.63.33L12.19,582A13.57,13.57,0,0,0-.66,584.15v12Z"/><polygon points="1216.32 0 1216.32 0 1216.32 0 1216.32 0"/><path d="M1237.68,12.19l.11-.23a15,15,0,0,0,.08-12h-6.53a9,9,0,0,1,.41,11l-1.19,1.82,2.22,2.37a9.34,9.34,0,0,1-.31,13.19,9.48,9.48,0,0,1-7.31,2.56l-1.18-.1-31-10.94a7.68,7.68,0,0,1,5.54-14.06l3.12.62.1-1.89h0A7.88,7.88,0,0,1,1203.36,0h-7.55A13.29,13.29,0,0,0,1184,14.42a13.44,13.44,0,0,0,6.58,10.26l.64.39,31.55,11.3,1.38.2a15.25,15.25,0,0,0,2.13.15,14.64,14.64,0,0,0,12.84-7.57,14.74,14.74,0,0,0-1.28-16.77Z"/><path d="M1378.14,12.19l.11-.23a15,15,0,0,0,.07-12h-6.53a9,9,0,0,1,.42,11L1371,12.77l2.21,2.37a9.34,9.34,0,0,1-.3,13.19,9.5,9.5,0,0,1-7.32,2.56l-1.18-.1-31-10.94a7.66,7.66,0,0,1-3.43-4.72,7.55,7.55,0,0,1,.9-5.79A7.74,7.74,0,0,1,1339,5.79l3.12.62.11-1.89h0A7.87,7.87,0,0,1,1343.81,0h-7.55a13.28,13.28,0,0,0-11.83,14.42A13.46,13.46,0,0,0,1331,24.68l.64.39,31.55,11.3,1.38.2a15.47,15.47,0,0,0,2.13.15,14.61,14.61,0,0,0,12.84-7.57,14.74,14.74,0,0,0-1.28-16.77Z"/><polygon points="1356.77 0 1356.77 0 1356.77 0 1356.77 0"/><path d="M1518.59,12.19l.11-.23a15,15,0,0,0,.07-12h-6.52a9,9,0,0,1,.41,11l-1.19,1.82,2.22,2.37a9.34,9.34,0,0,1-.31,13.19,9.48,9.48,0,0,1-7.31,2.56l-1.18-.1-31-10.94a7.69,7.69,0,0,1-3.43-4.72,7.55,7.55,0,0,1,.91-5.79,7.72,7.72,0,0,1,8.06-3.55l3.12.62.1-1.89h0A7.84,7.84,0,0,1,1484.28,0h-7.56a13.29,13.29,0,0,0-11.84,14.42,13.44,13.44,0,0,0,6.58,10.26l.64.39,31.54,11.3,1.39.2a15.25,15.25,0,0,0,2.13.15A14.64,14.64,0,0,0,1520,29.15a14.76,14.76,0,0,0-1.28-16.77Z"/><polygon points="1497.23 0 1497.23 0 1497.23 0 1497.23 0"/><polygon points="1637.68 0 1637.68 0 1637.68 0 1637.68 0"/><path d="M1659.05,12.19l.11-.23a15,15,0,0,0,.07-12h-6.53a9,9,0,0,1,.42,11l-1.19,1.82,2.21,2.37a9.36,9.36,0,0,1,2.59,6.67,9.25,9.25,0,0,1-2.9,6.52,9.44,9.44,0,0,1-7.31,2.56l-1.18-.1-31-10.94a7.68,7.68,0,0,1,5.53-14.06l3.12.62.11-1.89h0A7.83,7.83,0,0,1,1624.73,0h-7.56a13.28,13.28,0,0,0-11.83,14.42,13.46,13.46,0,0,0,6.57,10.26l.64.39,31.55,11.3,1.38.2a15.47,15.47,0,0,0,2.13.15,14.61,14.61,0,0,0,12.84-7.57,14.74,14.74,0,0,0-1.28-16.77Z"/><polygon points="1778.14 0 1778.13 0 1778.13 0 1778.14 0"/><path d="M1799.5,12.19l.11-.23a15,15,0,0,0,.07-12h-6.52a9,9,0,0,1,.41,11l-1.19,1.82,2.22,2.37a9.34,9.34,0,0,1-.31,13.19,9.48,9.48,0,0,1-7.31,2.56l-1.19-.1-31-10.94a7.68,7.68,0,0,1,5.54-14.06l3.12.62.1-1.89h0A7.84,7.84,0,0,1,1765.19,0h-7.56a13.29,13.29,0,0,0-11.84,14.42,13.46,13.46,0,0,0,6.57,10.26l.65.39,31.54,11.3,1.38.2a15.5,15.5,0,0,0,2.14.15,14.64,14.64,0,0,0,12.84-7.57,14.76,14.76,0,0,0-1.28-16.77Z"/></svg>